<?xml version="1.0" encoding="utf-8"?>
<!-- Generator: Adobe Illustrator 16.0.3, SVG Export Plug-In . SVG Version: 6.00 Build 0)  -->
<!DOCTYPE svg PUBLIC "-//W3C//DTD SVG 1.0//EN" "http://www.w3.org/TR/2001/REC-SVG-20010904/DTD/svg10.dtd">
<svg version="1.0" id="MLB_-_Los_Angeles_Angels" xmlns="http://www.w3.org/2000/svg" xmlns:xlink="http://www.w3.org/1999/xlink"
	 x="0px" y="0px" width="1800px" height="1800px" viewBox="0 0 1800 1800" enable-background="new 0 0 1800 1800"
	 xml:space="preserve">
<g>
	<path fill="#FFFFFF" d="M960.634,1764.009h492.478c-45.556-30.994-85.697-85.161-103.628-146.921l-137.646-472.521
		c-14.943-50.832,9.311-101.647,48.09-136.074c-54.957-16.806-103.629-55.085-119.116-107.625l-77.003-264.465
		c109.604-36.553,181.085-101.557,181.085-176.979c0-98.513-122.05-179.222-291.699-202.295L888.818,36.001h-72.18l-64.404,221.127
		c-169.73,23.073-291.897,103.782-291.897,202.295c0,75.423,71.58,140.418,181.294,176.979l-77.104,264.465
		c-15.133,52.54-64.041,90.81-118.969,107.625c38.632,34.427,62.987,85.242,48.198,136.074l-137.746,472.521
		c-18.167,61.77-58.136,115.927-103.537,146.911h492.432c-40.296-30.993-62.27-85.159-44.238-146.92l12.082-41.313H992.79
		l12.01,41.313c18.076,61.769-3.961,115.927-44.148,146.911L960.634,1764.009z M810.352,1241.237l42.477-146.104l42.421,146.104
		h-84.888H810.352z"/>
	<g>
		<path fill="#003263" d="M1370.195,1730.489c-23.391-30.794-42.167-66.529-53.104-103.991l-136.684-469.177
			c-21.766-74.523,18.385-127.382,23.645-135.876c-47.535-25.725-82.317-64.902-95.471-111.185l-83.298-285.612
			c117.417-31.294,197.39-93.454,197.39-165.233c0-90.82-128.689-166.661-298.929-183.466L863.656,69.52h-21.773l-60.089,206.438
			c-170.449,16.805-299.13,92.654-299.13,183.464c0,71.781,80.138,133.941,197.482,165.234l-83.235,285.622
			c-13.426,46.272-47.999,85.451-95.652,111.186c5.377,8.492,45.573,61.352,23.799,135.856l-136.729,469.177
			c-10.937,37.471-29.659,73.216-53.203,103.991h340.969c-27.588-60.86-13.063-105.1-0.727-146.812l12.108-41.514h330.468
			l12.264,41.514c12.081,41.722,26.524,85.959-0.973,146.812h340.95H1370.195z M765.152,1274.965l87.658-300.2l87.386,300.2H765.152
			z"/>
		<g>
			<g>
				<path fill="#003263" d="M1523.883,1695.453c0-13.053-7.694-15.188-18.831-15.188h-23.636v48.815h10.229v-19.439h8.394
					l11.146,19.439h11.336l-11.791-19.439c8.612-0.727,13.172-5.468,13.172-14.17L1523.883,1695.453z M1505.261,1701.021h-13.626
					v-11.836h11.191c4.76,0,11.027,0,11.027,5.269c0,5.151-3.125,6.567-8.603,6.567H1505.261z"/>
				<path fill="#003263" d="M1500.864,1657.892c-25.979,0-46.48,20.965-46.48,47.081c0,25.833,20.511,46.581,46.48,46.581
					c26.162,0,46.673-20.747,46.673-46.572c0-26.115-20.511-47.072-46.673-47.072V1657.892z M1500.864,1741.526
					c-20.047,0-36.098-15.696-36.098-36.553c0-20.948,16.051-36.645,36.098-36.645c19.985,0,36.445,15.696,36.445,36.653
					c0,20.865-16.46,36.562-36.445,36.562V1741.526z"/>
			</g>
		</g>
	</g>
	<g>
		<g>
			<g>
				<path fill="#BA0021" d="M943.329,532.829l-43.784-150.754l8.603,30.067c-17.923-0.908-36.454-1.617-55.321-1.617v97.796
					l262.576,900.293l60.443,206.565l103.736,62.16c-7.294-15.807-13.717-31.902-18.64-48.508l-130.761-447.521
					c-20.62-69.854-9.32-100.13,5.632-142.252c-39.242-30.066-65.477-69.354-78.175-113.592l-99.186-340.806l-0.146,0.091
					l-14.988-51.923H943.329z M883.604,327.091l-30.794-105.399v104.791C863.201,326.482,873.321,326.682,883.604,327.091z
					 M528.065,1620.639l83.88,56.683c-4.36-28.232-0.246-65.295,7.903-91.719l27.705-96.379l-57.619-80.609l-61.86,212.015
					L528.065,1620.639z"/>
				<path fill="#BA0021" d="M694.461,1327.924l158.357-542.301V508.331l-262.885,900.293h525.479l-104.69-80.691"/>
			</g>
			<g>
				<path fill="#862633" d="M852.809,785.631l157.904,542.302l104.69,80.683L852.819,508.322"/>
				<path fill="#862633" d="M1279.583,1677.331l-103.736-62.169l-60.425-206.547H589.926l262.884-900.293v-97.814
					c18.895,0,37.426,0.699,55.339,1.608l-8.603-30.068c-2.334,0-4.76-0.091-7.085-0.308c-12.971-0.6-26.134-1.109-39.642-1.109
					c-15.933,0-31.629,0.618-46.872,1.427l-43.938,150.754h0.155l-15.134,51.932h-0.154l-99.34,340.724
					c-12.663,44.237-38.516,83.524-77.867,113.601c14.789,42.113,26.071,72.397,5.568,142.253l-130.743,447.521
					c-4.923,16.597-11.2,32.702-18.894,48.489h186.353l-83.888-56.683l61.861-212.033l57.618,80.6h410.105l28.296,96.379
					c7.586,26.416,11.809,63.496,7.586,91.729h186.053V1677.331z M852.809,221.692l-30.703,105.399
					c10.12-0.409,20.402-0.608,30.73-0.608V221.692H852.809z"/>
			</g>
		</g>
		<path fill="#C4CED4" d="M762.154,532.829h-0.155c-95.125-11.237-162.663-39.996-162.663-73.396
			c0-38.488,88.957-70.491,206.601-77.367c15.243-0.817,30.939-1.417,46.872-1.417c13.517,0,26.689,0.518,39.642,1.117
			c2.334,0.208,4.76,0.309,7.085,0.309c117.508,6.776,206.701,38.788,206.701,77.358c0,33.401-67.792,62.169-162.817,73.396h-0.091
			l14.988,51.941l0.137-0.091c122.476-18.222,210.507-67.311,210.507-125.238c0-68.947-125.401-125.748-285.375-132.333
			c-10.265-0.409-20.394-0.609-30.776-0.609c-10.328,0-20.62,0.209-30.73,0.609c-160.419,6.585-285.521,63.376-285.521,132.333
			c0,57.917,87.821,107.007,210.29,125.338h0.154l15.152-51.923V532.829z"/>
	</g>
</g>
</svg>
