<?xml version="1.0" encoding="utf-8"?>
<!-- Generator: Adobe Illustrator 16.0.3, SVG Export Plug-In . SVG Version: 6.00 Build 0)  -->
<!DOCTYPE svg PUBLIC "-//W3C//DTD SVG 1.0//EN" "http://www.w3.org/TR/2001/REC-SVG-20010904/DTD/svg10.dtd">
<svg version="1.0" id="MLB_-_Houston_Astros" xmlns="http://www.w3.org/2000/svg" xmlns:xlink="http://www.w3.org/1999/xlink"
	 x="0px" y="0px" width="1800px" height="1800px" viewBox="0 0 1800 1800" enable-background="new 0 0 1800 1800"
	 xml:space="preserve">
<g>
	<g>
		<path fill="#002D62" d="M900.055,1764C423.657,1764,36,1376.402,36,900.004C36,423.599,423.657,36,900.055,36
			C1376.468,36,1764,423.599,1764,900.004C1764,1376.402,1376.46,1764.001,900.055,1764"/>
		<path fill="#002D62" d="M1577.014,1607.22h-17.903v48.532h-12.029v-48.532h-17.903v-10.52h47.836v10.527V1607.22z
			 M1657.853,1655.753h-12.06V1608.7h-0.348l-17.111,47.053h-11.615l-16.594-47.053h-0.236v47.053h-12.133v-59.06h20.892
			l13.85,38.566h0.163l14.367-38.566h20.825v59.052V1655.753z"/>
	</g>
	<g>
		<path fill="#FFFFFF" d="M475.37,1203.723v128.97l32.678-32.847h303.498v-73.122l32.847-22.993l-101.723-36.517l-32.921,23.119
			V977.95h380.571l-32.848,32.848v156.424l-101.842,36.517v128.971l32.892-32.848h303.438v-73.122l32.848-22.994l-101.797-36.517
			l-33.018,23.119V665.648l101.967-36.524V556.12l32.849-32.965H955.629v129.199l32.893-23.23l101.797,36.51l-32.848,23.096v156.439
			h-314.81l-32.921,32.958V665.648l101.797-36.524V556.12l32.847-32.965H475.37v129.199l32.678-23.23l102.019,36.51l-32.773,23.096
			v478.462"/>
		<path fill="#E7E9EA" d="M1324.791,652.362v-129.2l-32.898,32.958v73.004l-101.856,36.517v524.669l33.018-23.111V688.753
			 M1324.791,1203.723l-32.898,23.009v73.114h-303.38l-32.95,32.847h369.236 M742.661,1010.782h314.787l32.788-32.847H709.74
			v212.398l32.921-23.23v-57.676 M844.385,1235.646v-31.923l-32.773,23.009v73.114H508.099l-32.729,32.847h369.015 M610.073,665.648
			l-102.019-36.524l-32.678,23.23l101.872,36.509 M988.513,629.124l-32.891,23.23l101.841,36.509l32.848-23.229 M844.385,652.362
			v-129.2l-32.773,32.958v73.004l-101.931,36.524v212.495l32.966-32.958V688.745"/>
	</g>
	<g>
		<path fill="#EB6E1F" d="M900.055,94.474c-445.104,0-805.574,360.478-805.574,805.529c0,445.038,360.47,805.522,805.574,805.522
			c444.874,0,805.529-360.47,805.529-805.515c0-445.052-360.655-805.529-805.536-805.529 M1351.788,1499.771l-54.302-167.07
			h-208.271l246.318,178.855c-122.845,87.556-273.1,139.395-435.486,139.395c-162.387,0-312.753-51.616-435.428-139.38
			l246.156-178.862H581.295l-143.063,198.068l10.025-31.013C266.531,1362.9,149.006,1145.235,149.006,900.004
			c0-78.515,12.132-154.249,34.549-225.551l393.672,286.083v-49.553L276.54,692.415l-123.696-40.054h38.174
			C292.12,363.172,564.753,154.79,886.953,149.412l13.095-40.053v735.958h157.431V688.73l-101.85-36.383V523.162h78.842
			l-121.432-373.75c322.199,5.497,594.95,213.767,695.905,502.95h38.396l-123.718,40.171h-300.62v268.01l393.547-285.861
			c22.852,72.924,34.452,148.908,34.4,225.329c0,245.127-117.429,462.675-299.154,599.76"/>
		<path fill="#EB6E1F" d="M1057.463,1167.207v-156.425H813.994l-71.34,98.646v57.779l101.723,36.517v31.923l55.619-40.512
			l55.662,40.52v-31.923"/>
	</g>
	<path fill="#F4911E" d="M1223.054,688.745v3.788h300.51l123.709-40.171h-322.481 M844.385,523.162v129.206L742.661,688.73v156.439
		h157.342v-735.81l-12.931,40.053l-121.477,373.75 M742.661,1109.427l71.288-98.646h-71.288 M448.264,1499.764l-10.017,31.02
		l143.152-198.083h-78.878 M475.37,652.362H152.844l123.696,40.053l300.753,218.567V688.745"/>
</g>
</svg>
