<?xml version="1.0" encoding="utf-8"?>
<!-- Generator: Adobe Illustrator 16.0.3, SVG Export Plug-In . SVG Version: 6.00 Build 0)  -->
<!DOCTYPE svg PUBLIC "-//W3C//DTD SVG 1.0//EN" "http://www.w3.org/TR/2001/REC-SVG-20010904/DTD/svg10.dtd">
<svg version="1.0" id="MLB_-_Toronto_Blue_Jays" xmlns="http://www.w3.org/2000/svg" xmlns:xlink="http://www.w3.org/1999/xlink"
	 x="0px" y="0px" width="1800px" height="1800px" viewBox="0 0 1800 1800" enable-background="new 0 0 1800 1800"
	 xml:space="preserve">
<g>
	<path fill="#FFFFFF" d="M674.774,683.237c-13.4,9.025-23.137,25.807-22.669,42.091h21.706
		C672.809,717.23,670.213,701.613,674.774,683.237z"/>
	<path fill="#134A8E" d="M1420.967,1059.129h12.532v34.335h8.469v-34.335h12.607v-7.504h-33.608 M1486.908,1079.01h-0.179
		l-9.767-27.386h-14.757v41.824h8.527v-33.148h0.208l11.687,33.148h8.307l11.991-33.148h0.223v33.148h8.55v-41.824H1497
		 M562.825,691.498c0,0-10.108-25.384,2.744-51.095c5.094-10.196,14.787-19.629,27.646-27.067
		c94.833-63.724,295.816,1.505,295.816,1.505c-47.735-4.257-86.824-3.508-119.936,0.926c56.041,17.539,116.057,41.01,156.674,50.947
		c50.019,12.184,83.219,18.362,132.913,21.283l-1.558-19.54l27.646,4.761l73.662,12.518l10.901-27.476l11.938-30.479l23.382,22.796
		c0.616,0.423,36.738,35.744,55.819,54.284c-3.411-34.907-11.895-123.191-12.014-124.185l-3.471-35.744l33.223,13.534l36.293,14.535
		l54.447-88.945l18.494-30.39l18.584,30.39l43.925,71.83c15.32-62.381,26.303-128.531,58.377-159.091
		c-32.11,1.165-54.788,10.264-89.865,34.899c19.874-53.868,49.315-93.788,89.108-139.469
		c-38.636,5.754-75.538,16.945-111.786,37.576c13.831-32.822,14.787-73.662,14.787-73.662
		C1240.904,453.08,767.635,450.737,645.126,490.826c-80.387,26.312-121.596,70.153-150.244,113.41
		c-2.795,44.599,29.693,87.27,67.929,87.27L562.825,691.498z"/>
	<path fill="#1D2D5C" d="M1165.878,1037.919l33.148-39.837l17.909-21.714l-69.353-59.793
		c-37.702,57.546-74.491,120.099-92.03,168.368l76.368-0.245c-39.244,48.529-114.871,128.864-165.684,217.973
		c-50.902-124.935-169.993-285.611-385.118-373.89c-62.292-25.637-121.099-59.459-113.498-108.812
		c-107.751-15.455-225.589-27.809-359.221-32.236c-10.146-0.164-19.578-0.334-28.062-0.423c-7.764-0.074-9.767,3.011-1.335,9.863
		c36.665,26.4,160.967,74.41,313.421,102.968c73.342,13.615,106.817,33.741,159.558,70.569
		c114.5,79.994,270.75,294.873,365.955,574.472c180.598-350.664,390.294-508.093,406.875-520.277l-107.402,8.766l-51.524,4.256
		L1165.878,1037.919z M75.482,778.619c76.494-3.337,183.896-7.023,371.383-0.838c15.907,0.245,31.517,0.504,46.682,0.838
		c9.389-12.444,26.682-23.634,59.379-23.634h9.678c60.973,0.934,72.244,63.389,136.969,63.389
		c64.428,0,75.864-62.048,136.288-63.301c1.631-0.088,3.411-0.088,5.057-0.088h223.268l-3.04-37.08H837.529
		c-61.967,0-72.986-63.383-138.083-63.383c-64.094,0-75.714,62.634-135.375,63.22c-64.592-3.855-90.199-57.961-95.204-103.895
		c-28.232,12.013-42.76,26.059-64.051,59.623c-230.801,38.177-309.832,75.084-330.543,98.133c-3.093,4.102-1.706,6.103,1.208,7.03
		V778.619z M674.774,683.237c-4.553,18.375-1.958,33.993-0.964,42.091h-21.699C651.637,709.044,661.381,692.255,674.774,683.237z"/>
	<path fill="#FFFFFF" d="M1763.992,798.73l-35.745-12.347l-19.541-6.675l6.972-83.354l2.225-27.898l-27.661,4.761l-73.69,12.518
		l-10.863-27.476l-11.94-30.479l-23.463,22.796c-0.505,0.423-36.664,35.744-55.841,54.284
		c3.521-34.907,12.043-123.191,12.087-124.185l3.411-35.744l-33.148,13.534l-15.039,5.933c1.461-7.097,2.922-14.112,4.301-21.046
		c8.854-43.932,30.939-120.841,72.653-179.552c0,0-26.683-6.429-67.514,5.429c-11.569,3.425-0.935,0.252-1.335,0.415
		c13.601-32.318,73.98-115.242,73.98-115.242s-85.52-1.512-117.764,18.035c19.964-65.964,3.308-117.244,3.308-117.244l-66.431,77.08
		c-114.67,133.203-394.098,169.948-578.877,194.168c-74.788,10.011-133.915,17.702-170.326,29.738
		c-88.025,28.892-134.152,78.087-161.561,116.65l-17.575,7.438c-33.572,14.201-52.741,32.57-71.488,59.882
		c-190.2,32.326-300.177,67.306-335.965,106.892l-2.374,2.921c-8.023,10.946-10.657,23.805-7.49,35.567
		c-1.238,10.359,0.89,25.732,19.058,40.193l1.239,0.905c43.427,31.487,173.211,80.506,328.119,109.405
		c69.486,12.949,99.424,23.301,143.688,63.383c220.397,199.598,328.668,499.248,377.731,645.398l55.159-101.471
		c184.104-323.203,364.576-472.698,366.748-474.612l38.08-34.831l1.038,2.076l19.304,37.079l19.303-37.228l7.305-13.867
		l143.393,11.688l51.613,4.249l-33.118-39.838l-17.917-21.706l177.312-152.914L1763.992,798.73L1763.992,798.73z M645.126,490.826
		c122.509-40.083,595.786-37.746,765.481-234.666c0,0-0.948,40.839-14.779,73.662c36.248-20.639,73.157-31.829,111.785-37.598
		c-39.793,45.681-69.226,85.608-89.101,139.477c35.077-24.636,57.747-33.742,89.865-34.907
		c-32.066,30.575-43.057,96.717-58.385,159.099l-43.924-71.83l-18.584-30.39l-18.487,30.39l-54.447,88.945l-36.293-14.535
		l-33.223-13.52l3.463,35.73c0.126,1.001,8.603,89.286,12.013,124.185c-19.072-18.54-55.194-53.868-55.817-54.284l-23.382-22.796
		l-11.939,30.479l-10.901,27.476l-73.661-12.519l-27.64-4.761l1.559,19.541c-49.701-2.921-82.909-9.1-132.922-21.283
		c-40.638-9.938-100.632-33.408-156.673-50.947c33.112-4.427,72.201-5.191,119.929-0.927c0,0-200.968-65.221-295.816-1.498
		c-12.853,7.431-22.544,16.864-27.639,27.067c-12.844,25.711-2.743,51.095-2.743,51.095c-38.244,0-70.732-42.671-67.929-87.269
		c28.625-43.271,69.856-87.114,150.229-113.425L645.126,490.826z M74.258,771.589c20.72-23.042,99.764-59.95,330.559-98.111
		c21.284-33.579,35.819-47.609,64.051-59.637c5.013,45.933,30.605,100.039,95.204,103.895c59.667-0.592,71.28-63.22,135.375-63.22
		c65.097,0,76.116,63.383,138.083,63.383h223.608l3.04,37.08h-223.26c-1.631,0-3.425,0-5.057,0.088
		c-60.424,1.246-71.86,63.301-136.303,63.301c-64.71,0-75.982-62.463-136.948-63.382h-9.677c-32.703,0-49.982,11.197-59.379,23.641
		c-15.165-0.333-30.775-0.593-46.682-0.837c-187.486-6.186-294.889-2.507-371.383,0.837c-2.922-0.926-4.301-2.929-1.216-7.023
		L74.258,771.589z M917.923,1545.176c-95.204-279.599-251.469-494.486-365.955-574.48c-52.741-36.842-86.23-56.953-159.559-70.576
		c-152.453-28.565-276.757-76.575-313.42-102.961c-8.432-6.852-6.43-9.938,1.334-9.863c8.477,0.089,17.917,0.26,28.069,0.423
		c133.632,4.428,251.469,16.79,359.22,32.236c-7.586,49.353,51.206,83.177,113.506,108.813
		c215.133,88.277,334.231,248.948,385.118,373.89c50.813-89.108,126.439-169.451,165.691-217.966l-76.368,0.253
		c17.539-48.276,54.328-110.821,92.029-168.361l69.361,59.801l-17.91,21.714l-33.148,39.838l51.518-4.257l107.402-8.766
		c-16.581,12.184-226.277,169.614-406.875,520.277L917.923,1545.176z M1527.651,973.862l31.665,38.006l-157.882-12.771
		l-6.771,12.949l-7.178,13.867l-3.679-7.03l-1.75-3.412l-8.432-16.374l-84.466,6.853h-0.133l-62.175,5.088l-11.102,0.838
		l31.562-37.992L1053.892,806.94l35.41-12.11l-8.142-100.209l91.065,15.61l17.323-44.102c0,0,58.755,57.213,66.608,64.725
		c5.058,4.842,10.605,7.431,15.5,7.431c7.563,0,13.236-6.852,11.687-23.463l-0.668-7.097
		c-2.921-30.228-12.488-128.865-12.488-129.11l53.246,21.454l64.051-104.636l64.057,104.636l24.473-9.847l28.892-11.614
		c-0.073,0.245-9.566,98.882-12.532,129.109c-0.326,3.092-0.534,5.688-0.742,7.104c-1.453,16.611,4.183,23.463,11.791,23.463
		c4.791,0,10.472-2.67,15.521-7.431c7.765-7.52,66.521-64.725,66.521-64.725l17.368,44.102l91.103-15.618l-8.232,100.203
		l35.419,12.109L1527.672,973.87L1527.651,973.862z"/>
	<path fill="#E8291C" d="M1693.927,694.613l-91.11,15.61l-17.375-44.102c0,0-58.748,57.213-66.52,64.726
		c-5.043,4.746-10.724,7.431-15.521,7.431c-7.602,0-13.237-6.852-11.775-23.464c0.207-1.409,0.406-4.005,0.741-7.097
		c2.966-30.228,12.458-128.865,12.532-129.109l-28.906,11.606l-24.473,9.848l-64.043-104.636l-64.051,104.636l-53.244-21.461
		c0,0.245,9.566,98.882,12.488,129.109c0.281,3.092,0.533,5.688,0.666,7.104c1.543,16.612-4.138,23.464-11.694,23.464
		c-4.879,0-10.441-2.596-15.498-7.431c-7.861-7.52-66.594-64.726-66.594-64.726l-17.331,44.102l-91.066-15.618l8.143,100.203
		l-35.41,12.109l193.404,166.945l-31.562,37.998l11.108-0.83l62.174-5.088l84.6-6.853l8.432,16.367l1.758,3.411l3.678,7.03
		l7.193-13.867l6.749-12.941l157.882,12.778l-31.65-37.992l193.464-166.943l-35.411-12.11l8.217-100.209H1693.927z"/>
</g>
</svg>
