<?xml version="1.0" encoding="utf-8"?>
<!-- Generator: Adobe Illustrator 16.0.3, SVG Export Plug-In . SVG Version: 6.00 Build 0)  -->
<!DOCTYPE svg PUBLIC "-//W3C//DTD SVG 1.0//EN" "http://www.w3.org/TR/2001/REC-SVG-20010904/DTD/svg10.dtd">
<svg version="1.0" id="MLB_-_Atlanta_Braves" xmlns="http://www.w3.org/2000/svg" xmlns:xlink="http://www.w3.org/1999/xlink"
	 x="0px" y="0px" width="1800px" height="1800px" viewBox="0 0 1800 1800" enable-background="new 0 0 1800 1800"
	 xml:space="preserve">
<g>
	<path fill="#13274F" d="M1637.753,1098.894h-14.233v40.032h-9.693v-40.042h-14.189v-8.603h38.116v8.603V1098.894z
		 M1702.299,1138.927h-9.552v-38.8h-0.284l-13.657,38.79h-9.313l-13.213-38.8h-0.204v38.792h-9.649v-48.644h16.708l10.891,31.625
		h0.338l11.466-31.617h16.496v48.636L1702.299,1138.927z"/>
	<path fill="#13274F" d="M1703.354,1243.635c-21.373-20.636-56.137-54.274-99.035-33.345
		c-32.147,15.572-38.071,48.918-38.071,74.052c0,9.453,0.913,17.764,1.489,23.59c0.815,8.222,1.197,16.141,1.197,23.794
		c0,72.029-35.971,115.308-75.293,121.799c-27.705,1.153-129.302-86.077-178.221-283.755
		c186.77-70.31,255.705-179.144,278.78-261.868c8.123-29.23,11.511-57.609,11.511-83.595c0-62.292-19.066-112.273-38.702-134.037
		c-10.837-12.044-43.898-48.732-87.798-34.676c-44.803,14.323-50.638,64.953-52.793,84.162
		c-8.55,74.611-51.526,130.216-135.244,174.532c8.939-217.349,86.671-452.558,228.734-686.243
		c11.37-18.649,29.045-47.685,29.045-76.534c0-15.103-4.877-30.1-18.109-43.367c-37.212-37.655-85.847-8.513-114.979,8.869
		l-8.514,5.073c-414.77,215.734-623.853,635.15-776.639,941.263c0,0-2.82,5.721-5.347,10.794
		c-235.6,89.615-277.441,250.978-277.823,252.601c-1.623,7.36-4.256,18.642-4.256,31.43c0,17.116,4.789,36.601,23.261,51.313
		c10.75,8.603,22.083,11.849,33.106,12.904c-13.746,8.424-27.083,13.657-40.085,14.34
		c-123.485,6.013-161.451-101.083-162.178-103.282c-2.394-64.208-40.175-77.19-56.998-79.576
		c-62.913-9.17-85.847,68.783-95.584,102.227c-21.693,73.572-2.732,162.045,49.344,230.643
		c61.609,81.208,160.396,125.071,278.249,123.449c201.119-2.776,330.563-223.574,435.663-438.635
		c63.011-15.769,116.798-23.218,177.325-31.244c0,0,59.152-8.983,106.049-16.052c53.264,217.934,152.866,379.013,278.879,444.931
		c77.572,40.512,161.405,43.563,242.286,8.604c75.56-32.681,128.682-105.181,145.798-199.009
		c16.85-92.472-5.321-186.947-55.073-235.104L1703.354,1243.635z M930.236,1012.719c37.957-79.585,78.486-159.073,122.049-227.299
		c-1.003,24.743-2.573,49.682-2.573,73.963c0,44.893,3.672,88.463,7.007,132.123
		C1018.406,999.248,976.281,1006.404,930.236,1012.719z"/>
	<path fill="#CE1141" d="M1664.687,1283.668c-23.501-22.738-48.377-47.481-41.699,18.624
		c11.511,113.517-45.762,194.132-120.47,206.28c-71.994,11.653-206.617-126.881-252.796-374.426
		c370.596-111.885,306.246-372.991,276.005-406.619c-25.852-28.557-38.737-28.087-44.04,18.534
		c-13.569,118.368-95.638,198.716-247.12,253.949c-8.975-214.972,47.686-488.209,237.808-800.823
		c56.891-93.429-18.818-38.596-39.42-27.802c-411.391,214.111-612.173,636.224-766.893,945.956
		c-205.358,69.635-259.208,199.85-264.315,222.022c-6.918,30.001-4.204,35.916,32.432,18.534
		c51.587-24.654,97.109-44.696,138.436-62.39c-66.779,115.982-131.43,192.89-210.271,196.81
		c-157.416,7.741-220.133-129.268-220.133-152.964c0-44.139-20.974-46.347-44.041,32.388
		c-31.43,106.812,50.284,285.76,273.486,282.7c169.104-2.306,287.285-201.208,397.972-430.6
		c128.877-35.829,212.133-34.206,364.051-62.292c69.732,346.996,257.895,551.157,456.867,465.178
		c138.021-59.702,143.652-275.916,74.141-343.077V1283.668z M1114.717,1035.84c-78.964,18.712-168.722,32.776-272.704,43.942
		c-1.686,0.089-3.406,0.382-5.029,0.576c86.982-186.875,174.922-370.879,285.521-468.715
		c-20.734,152.005-21.745,295.319-7.805,424.197H1114.717z"/>
</g>
</svg>
