<?xml version="1.0" encoding="utf-8"?>
<!-- Generator: Adobe Illustrator 16.0.3, SVG Export Plug-In . SVG Version: 6.00 Build 0)  -->
<!DOCTYPE svg PUBLIC "-//W3C//DTD SVG 1.0//EN" "http://www.w3.org/TR/2001/REC-SVG-20010904/DTD/svg10.dtd">
<svg version="1.0" id="MLB_-_St._Louis_Cardinals" xmlns="http://www.w3.org/2000/svg" xmlns:xlink="http://www.w3.org/1999/xlink"
	 x="0px" y="0px" width="1800px" height="1800px" viewBox="0 0 1800 1800" enable-background="new 0 0 1800 1800"
	 xml:space="preserve">
<g>
	<path fill="#C41E3A" d="M1413.7,1489.62c-56.62,64.477-126.176,83.094-171.202,83.094H591.872v-164.176
		c83.095,22.562,167.098,38.777,246.052,43.779c307.966,19.677,602.29-64.288,602.29-353.192
		c0-143.507-109.609-271.185-329.856-289.481V689.587h163.372l-59.892-108.001H876.181l-59.863,108.001h163.307v121.097H591.872
		V424.784c145.303-2.572,418.984,9.049,630.637,86.433l96.191-161.604c-58.833,9.342-130.894,13.511-199.001-3.309
		c-77.839-19.29-314.936-64.478-527.827-60.024V161.693h97.023V36H353.743v125.692h97.024v128.804
		c-163.146,22.305-289.217,162.502-289.217,331.719c0,169.178,126.071,301.48,289.226,322.538v267.015
		c-37.175-14.625-73.811-30.587-109.835-47.854l-90.452,118.08c65.398,30.627,132.234,58.079,200.278,82.264v208.467h-97.024
		v141.096h888.755c112.237,0,200.731-38.74,271.44-115.642L1413.7,1489.62z M450.777,812.13
		c-99.311-12.424-161.481-96.229-161.481-197.687c0-94.849,69.167-174.284,161.481-194.406V812.13z M979.625,948.668v125.721
		h130.732V951.713c76.135,8.312,172.289,40.507,172.289,167.448c0,183.399-317.149,247.717-690.784,140.452V948.668H979.625
		L979.625,948.668z M1570.69,1720.448h-15.79V1764h-10.108v-43.552h-15.725v-8.218h41.633v8.218H1570.69z M1609.978,1748.919
		l13.994-36.688h14.477V1764h-9.37v-40.347h-0.293L1613.344,1764h-7.025l-15.375-40.347h-0.255V1764h-9.407v-51.77h14.542
		L1609.978,1748.919z"/>
</g>
</svg>
