<?xml version="1.0" encoding="utf-8"?>
<!-- Generator: Adobe Illustrator 16.0.3, SVG Export Plug-In . SVG Version: 6.00 Build 0)  -->
<!DOCTYPE svg PUBLIC "-//W3C//DTD SVG 1.0//EN" "http://www.w3.org/TR/2001/REC-SVG-20010904/DTD/svg10.dtd">
<svg version="1.0" id="MLB_-_Chicago_Cubs" xmlns="http://www.w3.org/2000/svg" xmlns:xlink="http://www.w3.org/1999/xlink" x="0px"
	 y="0px" width="1800px" height="1800px" viewBox="0 0 1800 1800" enable-background="new 0 0 1800 1800" xml:space="preserve">
<g>
	<path fill="#FFFFFF" d="M36,899.997C36,422.822,422.818,35.959,899.911,35.959c477.271,0,864.089,386.863,864.089,864.038
		c0,477.182-386.818,864.037-864.082,864.037C422.825,1764.034,36,1377.172,36,899.997z"/>
	<g>
		<path fill="#CC3433" d="M1162.45,1065.373c-55.584,86.295-152.458,143.506-262.762,143.506
			c-172.457,0-312.153-139.784-312.153-312.271c0-172.265,139.697-312.198,312.153-312.198
			c113.625,0,213.148,60.845,267.823,151.712l153.649-149.892c-95.409-129.272-248.587-213.037-421.473-213.037
			c-289.003,0-523.407,234.529-523.407,523.408c0,289.033,234.404,523.318,523.407,523.318
			c171.066,0,322.896-81.937,418.351-208.679l-155.589-145.875V1065.373z"/>
		<g>
			<path fill="#CC3433" d="M807.313,948.509v0.006V948.509c0,25.842-40.425,25.842-40.425,0v-189.8h-93.981v187.032
				c0,61,14.566,90.164,59.653,90.164h97.784c54.726,0,71.003-16.121,71.003-85.104V758.709h-94.034V948.509z"/>
			<path fill="#CC3433" d="M1137.77,898.265c19.472-9.803,25.953-27.5,25.953-61.555c0-64.877-23.985-78.002-79.887-78.002H935.401
				v277.196h148.436c52.698,0,79.887-9.722,79.887-71.202C1163.723,940.377,1163.723,912.796,1137.77,898.265z M1073.441,961.403
				c0,14.604-19.08,12.947-39.315,12.947v-38.871c31.614,0,34.373-1.591,39.308,11.689h0.008
				C1074.403,949.935,1073.441,957.837,1073.441,961.403z M1074.121,849.657c0,14.62-23.793,12.963-39.996,12.963V823.74
				c29.002,0,39.663-0.791,39.988,10.506h0.008V849.657z"/>
		</g>
		<path fill="#CC3433" d="M1351.258,1035.905c50.605,0,76.811-13.746,76.811-58.478c0-5.451-0.281-56.493-0.281-62.027
			c0.281-32.479-23.068-53.579-55.71-53.579h-67.711c-18.378,0-14.264-26.783-14.264-34.847c0-12.948,38.279-16.986,38.279,4.113
			v12.874h99.687c0-64.707-11.815-85.252-76.811-85.252c-15.019,0.245-70.359,0.245-87.598,0.245
			c-41.631,0-64.388,16.276-65.971,64.795c-1.51,48.608,0,27.507,0,45.441c0,17.705-2.738,57.449,51.789,57.449h68.775
			c19.479,0,15.609,22.676,15.609,22.676v14.456c0,16.351-32.87,17.068-40.291,3.626c-4.905-8.842-2.294-22.906-2.294-22.906
			h-93.589c0,19.28-10.521,91.423,45.98,91.423h107.573L1351.258,1035.905z"/>
	</g>
	<g>
		<path fill="#0E3386" d="M91.71,896.6c0-446.197,361.737-808.016,807.979-808.016c446.198,0,808.054,361.819,808.054,808.016
			s-361.855,808.099-808.054,808.099C453.447,1704.699,91.71,1342.798,91.71,896.6L91.71,896.6z M899.689,1493.562
			c329.569,0,596.808-267.304,596.808-596.962c0-329.576-267.23-596.814-596.815-596.814c-329.621,0-596.829,267.23-596.829,596.814
			c0.015,329.658,267.208,596.962,596.829,596.962H899.689z"/>
		<g>
			<path fill="#0E3386" d="M1327.317,1084.979h-15.995v43.769h-10.876v-43.776h-15.958v-9.492h42.836v9.484L1327.317,1084.979z
				 M1400.131,1128.748h-10.897v-42.267h-0.206l-15.404,42.267h-10.506l-14.826-42.267h-0.4v42.267h-10.742v-53.254h18.733
				l12.406,34.921h0.223l12.933-34.921h18.68v53.254H1400.131z"/>
		</g>
	</g>
</g>
</svg>
