<?xml version="1.0" encoding="utf-8"?>
<!-- Generator: Adobe Illustrator 16.0.3, SVG Export Plug-In . SVG Version: 6.00 Build 0)  -->
<!DOCTYPE svg PUBLIC "-//W3C//DTD SVG 1.0//EN" "http://www.w3.org/TR/2001/REC-SVG-20010904/DTD/svg10.dtd">
<svg version="1.0" id="MLB_-_Arizona_Diamondbacks" xmlns="http://www.w3.org/2000/svg" xmlns:xlink="http://www.w3.org/1999/xlink"
	 x="0px" y="0px" width="1800px" height="1800px" viewBox="0 0 1800 1800" enable-background="new 0 0 1800 1800"
	 xml:space="preserve">
<g>
	<path fill="#E3D4AD" d="M1690.178,1521.885h-16.235v44.379h-11.058v-44.379h-16.33v-9.608h43.623V1521.885L1690.178,1521.885z
		 M1763.996,1566.263h-11.028v-42.951h-0.221l-15.657,42.958h-10.581l-15.159-42.965h-0.315v42.958h-11.028v-54.001h19.165
		l12.552,35.225h0.308l13.079-35.225h18.895v53.993L1763.996,1566.263z M607.556,1368.113l206.037-345.991
		c5.383,21.259,16.185,63.587,17.833,70.082c-10.582,18.235-169.927,293.88-169.927,293.88s235.074-194.255,245.882-203.16
		c3.955,4.717,174.189,211.238,174.189,211.238s-80.042-267.369-85.461-285.59c4.079-6.504,30.802-49.19,47.71-76.322
		l72.896,336.471l-145.645,200.304h625.936L1297.831,230.969l-416.337,0.263L36.004,1569.031h667.215l-95.67-200.918H607.556z
		 M820.975,1009.745l131.327-220.501h38.872l47.769,220.501H820.975z"/>
	<g>
		<path d="M943.807,283.622h310.006l274.574,1232.667h-446.055l99.669-134.842l-143.073-639.855l-118.255-0.088l-381.61,627.766
			l71.195,146.485H168.304l-43.354,26.861h532.938l-84.319-173.889l361.912-603.562h78.842l136.65,609.618l-122.773,167.921h534.768
			L1276.902,256.577l-350.985-0.271"/>
		<path d="M482.674,1291.262l46.209-29.175L446.702,1066.5l261.803-164.017l-89.965-161.345l253.221-122.202l-81.727-143.996
			l194.958-86.634l-71.211-104.685l-16.536-24.188L84.176,1542.163"/>
	</g>
	<g>
		<path fill="#A71930" d="M860.557,1096.203L760.72,1268.76c0,0,131.634-108.771,150.315-124.165
			c12.89,15.657,105.894,128.346,105.894,128.346s-45.989-153.691-50.398-168.359l42.299-67.521H845.478
			c0,0,12.274,48.385,15.086,59.15L860.557,1096.203z"/>
		<path fill="#A71930" d="M539.07,1369.262l381.611-627.765l118.255,0.088l143.072,639.854l-99.668,134.85h446.055l-274.59-1232.667
			H943.8l76.402,117.317l-192.599,86.634l82.934,143.636L657.5,752.35l84.677,156.988l-261.899,165.078l80.673,197.909
			l-392.64,243.423h441.954"/>
	</g>
</g>
</svg>
