<?xml version="1.0" encoding="utf-8"?>
<!-- Generator: Adobe Illustrator 16.0.3, SVG Export Plug-In . SVG Version: 6.00 Build 0)  -->
<!DOCTYPE svg PUBLIC "-//W3C//DTD SVG 1.0//EN" "http://www.w3.org/TR/2001/REC-SVG-20010904/DTD/svg10.dtd">
<svg version="1.0" id="MLB_-_Los_Angeles_Dodgers" xmlns="http://www.w3.org/2000/svg" xmlns:xlink="http://www.w3.org/1999/xlink"
	 x="0px" y="0px" width="1800px" height="1800px" viewBox="0 0 1800 1800" enable-background="new 0 0 1800 1800"
	 xml:space="preserve">
<g>
	<path fill="#005A9C" d="M1267.657,991.091v176.933l-78.386,0.093c-3.611-15.356-170.119-711.303-170.119-711.303H769.567
		c0,0-166.192,695.956-169.803,711.313H540.57V203.494h130.553V36l-424.535,1.099v166.396h122.978v972.841H239.887v169.039h317.455
		c-5.268,21.919-54.374,227.006-57.548,240.827H370.775V1764l440.759-0.884v-176.914H687.439
		c4.718-21.816,51.861-226.698,54.913-240.827h304.108c3.389,14.129,50.297,219.001,55.127,240.827H977.4v176.914l440.758,0.884
		l-0.111-177.798H1289.14c-3.165-13.821-52.289-218.908-57.427-240.827h213.417V991.091H1267.657L1267.657,991.091z
		 M782.839,1168.116c5.24-22.132,98.862-430.464,111.577-486.698c12.936,56.234,106.429,464.557,111.483,486.708H782.83
		L782.839,1168.116z M1538.185,1707.542c0-12.053-7.119-14.147-17.535-14.147h-22.03v45.494h9.438v-18.084h7.894l10.518,18.075
		h10.424l-10.964-18.084c8.004-0.67,12.266-5.044,12.266-13.271L1538.185,1707.542z M1520.762,1712.688h-12.714v-10.954h10.518
		c4.505,0,10.201,0,10.201,5.044C1528.767,1711.488,1525.918,1712.688,1520.762,1712.688z"/>
	<path fill="#005A9C" d="M1516.816,1672.789c-24.339,0-43.298,19.517-43.298,43.744c0,24.013,18.959,43.298,43.298,43.298
		c24.227,0,43.307-19.285,43.307-43.298c-0.019-24.228-19.099-43.744-43.316-43.744H1516.816z M1516.816,1750.626
		c-18.745,0-33.768-14.678-33.768-34.093c0-19.62,15.022-34.316,33.768-34.316c18.634,0,33.879,14.706,33.879,34.316
		C1550.695,1735.938,1535.43,1750.626,1516.816,1750.626z"/>
</g>
</svg>
