<?xml version="1.0" encoding="utf-8"?>
<!-- Generator: Adobe Illustrator 16.0.3, SVG Export Plug-In . SVG Version: 6.00 Build 0)  -->
<!DOCTYPE svg PUBLIC "-//W3C//DTD SVG 1.0//EN" "http://www.w3.org/TR/2001/REC-SVG-20010904/DTD/svg10.dtd">
<svg version="1.0" id="MLB_-_San_Francisco_Giants" xmlns="http://www.w3.org/2000/svg" xmlns:xlink="http://www.w3.org/1999/xlink"
	 x="0px" y="0px" width="1800px" height="1800px" viewBox="0 0 1800 1800" enable-background="new 0 0 1800 1800"
	 xml:space="preserve">
<g>
	<path fill="#FD5A1E" d="M799.948,805.319v173.963c0,0,221.099,14.244,288.796-26.749c-12.117,38.422-8.297,164.085,0,185.016
		c-85.558-43.888-288.796-26.397-288.796-26.397v175.056h327.568l69.77-81.146V905.101l-80.85-93.845
		c-48.061-5.318-219.878-5.938-316.47-5.938H799.948z M293.144,183.072c68.01-32.401,140.407-100.967,166.083-147.067
		c65.56,30.967,668.309,26.398,737.996,0c42.028,61.435,87.194,95.788,150.857,116.59c-5.957,58.956-4.125,79.823,15.096,127.086
		h-165.953l-69.687-77.805H536.497l-77.418,68.14v313.437l77.177,74.717l97.721,4.07c0-116.377,1.202-138.631-84.429-161.375
		c28.506-57.087,34.241-63.785,41.743-134.977c73.302,24.604,830.692,11.192,863.62-7.677
		c-5.272,74.181,36.628,215.096,64.793,267.679h-165.981c-8.436-57.698-44.859-102.28-102.808-113.121H799.948v149.471
		c0,0,350.896,9.545,397.264-6.345c23.059,59.909,106.035,147.759,165.953,172.085c-20.117,122.259-16.371,331.333,0,458.153
		c-65.282,32.41-131.942,98.97-165.935,166.083c-82.533-22.735-397.282-11.544-397.282-11.544v93.929
		c16.241,64.07,50.668,79.489,111.067,84.743c0,0-48.514,91.237-50.483,144.661h-283.57c-1.249-52.11-50.557-144.661-50.557-144.661
		c54.525-2.553,99.274-34.76,107.571-84.725v-93.938c0,0-99.524-3.728-174.759,11.543
		c-22.762-51.075-105.767-142.571-166.073-166.082c13.929-36.693,7.464-265.876-12.857-314.186h178.939l-0.139,233.123
		l69.741,81.146h105.167V805.374c0,0-92.051-4.56-174.75,1.739c-23.771-46.248-94.771-120.742-166.092-155.917
		c22.291-84.661,24.233-388.2,0-468.115L293.144,183.072z"/>
	<path fill="#FD5A1E" d="M982.181,1694.403h-20.145v54.804H948.42v-54.804h-20.043v-12.024h53.813v12.024H982.181z
		 M1073.51,1749.207h-13.624v-53.093h-0.416l-19.211,53.093h-13.209l-18.685-53.093h-0.425v53.093h-13.504v-66.828h23.604
		l15.447,43.611h0.342l16.186-43.611h23.477v66.828H1073.51z"/>
</g>
</svg>
