<?xml version="1.0" encoding="utf-8"?>
<!-- Generator: Adobe Illustrator 16.0.3, SVG Export Plug-In . SVG Version: 6.00 Build 0)  -->
<!DOCTYPE svg PUBLIC "-//W3C//DTD SVG 1.0//EN" "http://www.w3.org/TR/2001/REC-SVG-20010904/DTD/svg10.dtd">
<svg version="1.0" id="MLB_-_Miami_Marlins" xmlns="http://www.w3.org/2000/svg" xmlns:xlink="http://www.w3.org/1999/xlink"
	 x="0px" y="0px" width="1800px" height="1800px" viewBox="0 0 1800 1800" enable-background="new 0 0 1800 1800"
	 xml:space="preserve">
<g>
	<path fill="#FFFFFF" d="M1703.38,503.804c9.985-7.924,21.165-16.28,31.531-23.879L1764,458.652l-35.818-5.102
		c-25.269-3.399-50.705-5.393-76.194-5.97c-45.913,0-116.191,5.59-191.354,32.128c-46.076,12.698-88.948,30.228-128.295,52.262
		c-8.628,4.938-17.148,10.04-24.963,14.978c-31.313,18.561-56.82,35.711-80.536,54.107l-8.792,6.783l-19.754-21.49
		c-11.56-12.699-56.061-54.432-141.481-59.046l-58.177-3.146l54.649-20.243c92.747-34.353,256.044-94.375,277.589-102.299
		l84.715-81.838l-447.235,80.156c-21.98-0.381-44.013,0.488-65.884,2.713l-3.147,0.325l-2.876-1.247
		c-15.923-6.837-32.436-12.214-49.331-16.064l-5.589-1.248l-2.551-5.155c-45.158-90.898-102.728-175.079-171.059-250.13
		c-10.36-10.703-21.399-20.728-33.049-30.01l-14.653-11.94l-7.869,17.313c-5.202,12.89-9.552,26.105-13.025,39.563
		c-7.435,24.909-11.125,60.293-11.451,108.484c0.489,17.258-0.542,62.41-19.538,101.158l-4.558,7.924
		c-1.236,2.274-2.558,4.501-3.961,6.675c-2.931,4.342-6.079,8.304-8.901,11.613l-3.853,4.614
		c-13.187,14.761-30.173,28.871-53.564,44.663l-15.304,9.335c-18.94,11.18-43.795,25.886-63.333,40.702
		c-59.262,42.493-100.507,91.01-133.882,157.437l-2.389,4.667l-4.992,1.41c-43.742,12.863-110.113,42.385-190.161,84.443
		c46.835-3.961,110.221-8.249,150.164-8.303l15.195,0.108l-3.582,14.708c-9.063,38.038-13.078,77.104-11.94,116.19l0.706,12.211
		c8.846,138.063,82.272,236.779,125.254,283.396l4.721,5.102l-2.062,6.675c-31,100.364-62.296,200.637-93.887,300.816
		c-30.445,92.259-92.42,138.659-178.276,202.86L36,1702.784l43.252,0.814c34.082,0.65,69.411,1.302,104.524-1.465l3.907-0.327
		c52.099-4.069,190.432-14.814,283.07-110.655c3.853-3.799,7.544-7.652,11.071-11.56c8.792-9.822,17.312-20.677,26.158-33.43
		c25.145-32.057,45.778-67.408,61.325-105.066l18.072-42.493l10.419,94.755c20.785,186.417,107.291,203.457,144.195,210.729
		l39.671,8.737l-16.553-28.926c-14.165-24.692-41.353-103.112-42.873-164.979c-0.815-35.849-1.085-71.707-0.815-107.563
		c0.109-18.778,0.109-34.896-0.108-47.649l0.435-26.211l14.002-26.647l55.734,265.271l54.433-72.722l0.108,0.055l284.265-382.602
		l-154.614,492.335l315.958-0.272l42.818-42.764l-3.527-8.847c-5.21-13.241-6.133-16.117-7.815-21.056
		c-6.132-16.498-7.325-36.415-3.853-62.79c1.791-13.893,5.753-28.98,11.56-48.789l207.581-668.603
		C1574.49,644.688,1628.434,560.842,1703.38,503.804 M1188.958,632.749c-40.105,36.144-80.481,80.591-126.937,140.016l-3.147,4.124
		l-104.306,141.97l-16.01,21.708l-49.44-236.127l70.496-68.977l257.076-27.624L1188.958,632.749L1188.958,632.749z"/>
	<path fill="#FFFFFF" d="M724.682,1291.746c-3.419,9.389-17.583,29.74-18.29,30.987c-2.814,4.272-4.666,9.105-5.426,14.165
		l20.405,21.49c-0.054-1.899,0.272-9.388,0.272-10.04v-4.884c-0.109-3.039,0.108-4.287,3.147-10.148
		c0.33-0.58,0.693-1.143,1.086-1.682c5.264-7.924,10.312-15.414,13.676-22.632l-10.312-43.523
		C728.785,1274.386,727.255,1283.206,724.682,1291.746"/>
	<path d="M1021.483,563.609l-107.454,6.513c0,0-1.303-51.772,53.727-72.559c54.976-20.785,305.051-112.339,305.051-112.339
		l-246.06,44.339h-0.055l-56.602,10.202c-42.656-1.52-77.064,3.854-77.064,3.854c-20.285-9.979-41.854-17.102-64.092-21.165
		c-4.884-1.086-9.823-2.17-14.708-3.039c-28.925-61.542-85.691-166.499-175.779-264.511c-24.53,72.505,10.04,121.13-37.772,220.987
		c-5.155,12.155-12.264,23.335-21.056,33.158c-41.734,45.857-65.015,51.339-107.617,80.211
		c-68.271,42.818-117.819,96.545-150.381,155.808c23.391-5.644,46.998-10.474,70.768-14.436
		c10.528-14.164,21.979-27.84,34.787-40.594c10.365-9.932,21.328-19.32,32.941-28.111c72.288-54.595,173.121-83.956,282.04-87.32
		l7.489-0.162c-127.805,16.226-242.477,65.611-318.834,150.489c92.204-11.939,169.593-9.226,215.776-2.659
		c-32.453,11.885-65.178,26.918-96.6,44.936l-1.682,0.868l-6.947,4.124l-13.513,8.304c-10.854,6.893-21.436,14.219-31.693,21.979
		l-0.489,0.381c-1.253,0.91-2.483,1.851-3.69,2.821c-37.604-3.536-75.333-5.581-113.098-6.132
		c-33.213,63.767-49.549,141.101-42.547,233.251c-6.554-25.602-10.481-51.806-11.723-78.202
		c-2.54-53.224,7.151-106.319,28.329-155.212c-19.809,0.055-38.585,0.488-56.494,1.193c-52.968,146.365-15.196,313.95,88.73,431.933
		l27.949-90.358c-33.648-253.928,305.972-381.68,463.299-380.431l61.542-59.859l193.96-20.785
		C1131.921,580.922,1104.19,558.454,1021.483,563.609 M663.683,249.823c-0.109-1.194-0.109-4.234-0.163-7.272
		c37.565,51.289,70.974,105.496,99.91,162.104c-52.099,0.542-103.546,11.45-151.357,32.127
		C638.881,400.746,669.76,337.304,663.683,249.823 M886.731,571.804l-46.889,2.876c0,0,9.769-38.965,71.636-59.534
		C911.478,515.092,891.995,526.326,886.731,571.804"/>
	<path fill="#EF3340" d="M1223.854,970.578l-53.673,72.179L995.65,1598.532l289.963-0.217l31.693-31.64h-277.914L1223.854,970.578z
		 M966.453,980.401c44.935-60.782,106.477-144.032,163.785-218.707l0.435-0.543c103.221-122.921,168.995-183.215,251.214-230.375
		c26.152-14.565,53.516-26.841,81.784-36.686c-39.888,11.017-81.893,26.972-124.006,50.524c-8.574,4.884-16.878,9.932-25.127,15.142
		c-76.628,45.478-142.403,96.003-241.012,222.017L930.906,975.571l8.63,41.136L966.453,980.401 M838.322,1489.125l1.899-2.605
		l1.52-2.008l1.195-1.629l-4.668,6.242H838.322L838.322,1489.125z M737.76,1246.267l6.622,31.694L737.76,1246.267z
		 M764.515,1251.857c-4.45,6.512-5.536,9.77-5.969,13.459l-0.109,1.248c-0.76,13.133-2.768,29.74-7.056,41.354
		c-0.148,0.43-0.329,0.847-0.543,1.248l48.354,232.274l25.887-34.461l-55.355-262.611
		C767.609,1247.244,765.818,1249.958,764.515,1251.857 M402.483,1611.829c-75.598,35.438-154.397,39.778-188.804,42.221
		c-13.838,0.923-27.678,1.466-41.516,1.52c51.665-40.376,92.529-79.831,119.773-135.729c7.87-15.249,15.304-32.29,21.871-51.284
		c9.768-28.438,107.182-343.311,176.593-568.149c-7.11,8.141-13.947,16.606-20.081,25.507
		c-17.42,25.289-36.415,52.533-46.563,81.893c-0.706,1.954-1.249,4.071-1.899,6.079c-2.876,9.279-5.699,18.614-8.684,28.058
		c-9.226,30.01-18.724,60.564-27.949,90.357l-4.504,14.545l-0.218-0.217c-50.958,164.057-92.854,298.32-98.661,316.066
		c-34.407,104.632-109.788,154.505-204.868,226.196c33.973,0.597,70.605,1.356,105.663-1.411
		c48.625-3.854,186.471-12.266,277.915-106.912c3.528-3.526,6.947-7.108,10.366-10.854c9.551-10.637,18.072-21.925,26.158-33.484
		c-3.365,4.179-6.513,8.574-10.148,12.591C462.981,1574.935,434.335,1596.31,402.483,1611.829 M711.115,1118.191
		c8.411-6.893,17.637-14.109,27.46-21.328l-30.988-146.962l-18.777,61.324L711.115,1118.191z M754.856,1220.327l7.543-10.42
		L754.856,1220.327 M754.856,1220.327c-3.962,5.536-7.381,10.528-10.094,14.436L754.856,1220.327"/>
	<path fill="#00A3E0" d="M719.58,1668.269c-0.889-0.179-1.761-0.433-2.605-0.761c-11.885-4.233-60.673-29.522-80.699-163.948
		c-3.03-19.978-5.707-40.006-8.031-60.077l-0.814-7.163c-4.504-41.191-4.938-61.867-7.272-80.536
		c-1.356-10.745-3.853-33.484-18.289-60.077c0.123-0.297,0.214-0.606,0.271-0.922l-0.054-0.055l86.669-283.559l18.777-61.271
		l30.988,146.962c-9.878,7.272-18.995,14.49-27.46,21.383c-19.646,16.063-34.841,29.902-42.222,35.872
		c-12.319,9.877-21.002,15.575-29.414,18.669l-8.358,27.352c16.498-3.907,32.345-13.947,51.285-31.368
		c19.266-17.691,26.375-22.305,51.285-43.903c13.404-11.614,25.832-21.165,37.284-28.98l-57.744-273.628l-161.072,527.176
		c-8.412,28.98-34.027,117.113-88.948,178.113c-16.769,18.613-64.473,71.636-198.518,89.762
		c25.072-28.058,56.821-73.155,79.288-138.279c10.854-31.585,123.735-396.819,193.2-621.821
		c-16.877,12.915-32.562,27.405-46.727,43.252c-69.411,224.84-166.825,539.713-176.593,568.149
		c-6.566,18.995-14.055,36.035-21.87,51.23c-27.244,55.897-68.108,95.352-119.773,135.729c13.729-0.108,27.515-0.542,41.516-1.52
		c34.353-2.442,113.206-6.838,188.804-42.222c31.852-15.519,60.498-36.893,84.443-63.007c3.636-4.017,6.784-8.358,10.148-12.591
		c52.533-65.178,77.334-149.133,85.746-177.95l1.792-6.133l7.218-23.716c3.093,9.063,4.992,18.832,5.969,30.065
		c0,0,5.916,55.409,14.599,133.178c21.002,188.315,105.608,191.789,139.961,199.495
		C752.359,1691.224,736.458,1684.658,719.58,1668.269 M1651.824,462.234c-49.006,0-116.191,6.512-188.153,31.856
		c-26.863,9.442-54.269,21.273-81.784,36.686c-82.219,47.105-147.993,107.4-251.214,230.375l-0.435,0.543
		c-55.259,72.403-109.855,145.308-163.785,218.707l-26.918,36.36l-8.63-41.137l-60.618-289.094
		c-10.754,0.171-21.494,0.859-32.182,2.062l84.606,403.604l21.11-27.896c9.823-12.971,26.755-35.872,48.246-64.906
		c53.727-73.156,108.159-145.822,163.243-217.947c100.398-119.556,163.84-177.896,242.259-222.832
		c90.522-50.688,181.532-63.224,244.811-64.309c-65.991,61.107-114.726,143.978-148.427,251.92l-207.528,668.657
		c-6.512,22.412-11.016,39.67-13.241,56.439c-3.256,24.313-3.202,44.99,0.271,63.441h-190.813l226.739-732.749l-467.75,629.04
		l-46.78-221.854c-9.931,13.078-18.995,26.104-25.182,35.058l55.356,262.611l345.101-464.223l53.672-72.124l-184.407,596.097
		h277.914c-5.698-14.598-6.458-17.094-7.978-21.544c-6.946-18.669-8.357-40.756-4.559-69.628
		c2.008-14.762,6.133-30.771,12.156-51.447l207.528-668.386c36.957-118.362,92.475-204.488,169.646-263.316
		c10.366-8.194,21.601-16.606,32.183-24.313C1726.337,468.095,1688.239,462.668,1651.824,462.234"/>
	<path fill="#41748D" d="M737.706,1245.996c1.042-2.158,2.257-4.227,3.637-6.187l3.419-5.047l10.094-14.436l7.543-10.42
		c8.63-11.776,17.692-23.336,27.081-34.516l15.414-17.691l1.519-1.791c4.505-5.156,8.901-10.202,13.297-15.032l2.659-2.985
		c7.996-9.025,16.267-17.804,24.801-26.321l1.356-1.411h0.109c15.358-15.087,29.36-26.212,41.625-30.337
		c-0.869-0.271-1.846-0.162-2.768-0.325c-6.675-0.217-24.258,2.279-54.921,26.43c-15.955,13.729-35.601,32.888-59.479,59.75
		c-26.754,30.229-39.183,51.067-48.408,63.008c-6.892,8.846-9.009,13.784-10.366,22.088c-0.271,1.52-0.868,25.561-5.373,37.88
		c-3.474,9.389-17.584,29.74-18.289,30.987c-6.621,11.017-5.861,16.39-5.644,22.469c0.216,6.132-0.977,87.319,1.302,177.679
		c2.279,90.358,33.267,148.428,33.267,148.428l-0.055-0.055c16.878,16.443,32.779,22.956,32.779,22.956
		c-16.172-28.22-43.252-109.517-44.827-171.872c-1.683-65.123-0.271-121.998-0.868-155.428c-0.055-7.327-0.218-14.653-0.434-21.98
		l-0.055-1.899c-0.108-3.038-0.108-3.962,2.931-9.769c0.325-0.542,0.596-1.03,1.086-1.682c7.814-11.831,15.521-23.933,18.668-32.508
		c4.342-11.614,5.753-28.165,6.512-41.354l0.109-1.248c0.487-2.484,1.251-4.904,2.279-7.219V1245.996L737.706,1245.996z"/>
	<path fill="#00A3E0" d="M385.225,1132.355c-103.926-117.927-141.698-285.566-88.731-431.932c-8.954,0.38-17.962,0.813-26.917,1.302
		c-15.853,48.181-23.163,98.762-21.599,149.46c0,0.434-0.163,0.813-0.163,1.247l0.109,1.356c0.054,0.706-0.109,1.411-0.054,2.117
		l0.706,6.187c7.543,117.277,67.24,219.304,131.929,284.591l0.218,0.217L385.225,1132.355"/>
	<path fill="#41748D" d="M1272.045,385.279l-245.299,44.229l246.059-44.284c0,0-250.021,91.5-305.05,112.339
		c-54.975,20.786-53.728,72.505-53.728,72.505l107.455-6.513c82.707-5.21,110.438,17.312,110.438,17.312l-193.96,20.731
		l-61.542,59.859c-157.327-1.248-496.893,126.503-463.299,380.431l8.629-28.111l1.899-6.078l0.597-1.9l8.357-27.08
		c2.117-6.513,4.125-12.917,6.024-18.561c5.48-19.319,12.752-37.826,21.87-55.3c42.168-81.242,127.806-133.993,189.89-162.81
		c61.054-28.275,129.651-47.595,187.665-53.618c11.125-1.194,21.979-1.899,32.127-2.063l3.853-0.163l12.32,0.108l66.48-64.96
		l234.607-25.236c-8.899-9.714-53.238-52.858-140.666-54.595c-8.965-0.1-17.928,0.208-26.864,0.922l-73.047,4.451
		c4.979-13.871,15.79-24.86,29.577-30.066c54.215-20.514,343.906-127.045,346.403-127.968l23.228-22.685L1272.045,385.279
		L1272.045,385.279z"/>
	<path fill="#EF3340" d="M324.66,854.495c1.139,26.538,5.155,52.696,11.668,78.203c-7.056-92.15,9.334-169.43,42.493-233.197
		c-8.61-0.153-17.222-0.227-25.833-0.217C331.811,748.177,322.119,801.273,324.66,854.495 M749.646,474.39l-7.49,0.162
		c-108.864,3.419-209.751,32.779-282.039,87.374c-11.521,8.718-22.521,18.105-32.941,28.112
		c-12.588,12.648-24.216,26.218-34.787,40.594c13.025-2.171,25.886-4.124,38.422-5.753
		C507.115,540.003,621.787,490.617,749.646,474.39"/>
	<path fill="#00A3E0" d="M663.52,242.551c0.054,3.038,0.054,6.078,0.163,7.272c6.078,87.481-24.747,150.923-51.61,186.958
		c47.832-20.67,99.307-31.593,151.412-32.127C734.498,348.063,701.071,293.859,663.52,242.551"/>
	<path fill="#41748D" d="M839.842,574.68l46.889-2.876c5.264-45.479,24.747-56.658,24.747-56.658
		C849.556,535.716,839.842,574.68,839.842,574.68 M352.989,699.284c46.401-0.163,92.801,2.008,139.039,6.35l3.691-2.822l0.488-0.381
		c10.256-7.76,20.84-15.086,31.693-21.979c4.451-2.876,9.009-5.589,13.513-8.304l6.947-4.124
		c-117.115-5.156-274.659,0.705-424.986,49.603c3.745-0.706,60.402-11.071,146.257-15.901
		C297.363,700.097,325.203,699.284,352.989,699.284"/>
	<path fill="#00A3E0" d="M548.305,668.024l1.682-0.868c30.895-17.638,63.207-32.669,96.6-44.935
		c-46.128-6.567-123.572-9.28-215.721,2.658c-36.733,4.878-73.194,11.616-109.245,20.188
		c32.616-59.263,82.11-112.936,150.436-155.808c42.601-28.872,65.883-34.354,107.562-80.156c10.8-11.886,15.684-21.98,21.056-33.214
		c47.866-99.856,13.242-148.481,37.772-220.932c90.143,97.957,146.908,202.914,175.779,264.51c4.939,0.868,9.823,1.899,14.708,3.04
		c18.505,3.364,40.594,9.497,64.092,21.165c0,0,34.408-5.428,77.117-3.854l56.604-10.203l245.354-44.229l74.132-18.995
		l24.367-23.498l-402.301,72.07c-23.797-0.688-47.613,0.363-71.256,3.146c-19.382-8.899-39.747-15.476-60.674-19.591
		c-1.682-0.326-3.256-0.923-4.884-1.303c-30.716-63.604-86.072-162.158-173.608-257.292c-10.082-10.473-20.831-20.279-32.182-29.36
		c-5.101,11.126-12.374,37.935-12.374,37.935c-7.923,26.483-10.528,65.231-10.746,103.329c0.652,26.538-2.496,70.551-21.328,108.811
		c-1.302,2.552-2.822,4.993-4.287,7.489c-1.682,2.876-3.365,5.861-5.209,8.683c-3.147,4.505-6.512,8.847-10.04,13.025
		c-1.302,1.52-2.497,3.202-3.907,4.668c-14.381,16.063-33.05,31.204-56.983,47.377l-4.993,3.256
		c-17.367,10.421-48.789,28.058-72.612,46.237c-63.333,45.371-102.841,96.384-134.317,162.267
		c-54.324,15.196-110.493,35.927-165.849,63.984l0.217-0.055C273.647,668.729,431.137,662.868,548.305,668.024"/>
	<path d="M758.384,1266.51l0.108-1.249c0.434-3.689,1.519-6.945,5.969-13.458l5.209-7.544c6.188-9.009,15.305-21.979,25.182-35.059
		l46.78,221.855l467.75-629.041l-226.739,732.695h190.813c-3.473-18.452-3.581-39.074-0.271-63.44
		c2.226-16.771,6.729-34.027,13.241-56.441l207.636-668.711c33.702-107.996,82.437-190.812,148.428-251.974
		c-63.332,1.086-154.288,13.677-244.81,64.31c-78.42,44.936-141.915,103.33-242.26,222.831
		c-55.095,72.137-109.512,144.789-163.243,217.947c-21.491,29.034-38.423,51.936-48.245,64.907l-21.111,27.894l-84.606-403.604
		c-58.014,6.024-126.611,25.344-187.665,53.618c-62.084,28.817-147.722,81.568-189.944,162.81
		c-9.163,17.637-16.492,36.168-21.87,55.301l-6.024,18.56l-8.357,27.081l-0.651,1.899c10.203-29.359,29.143-56.603,46.563-81.893
		c6.133-8.9,12.971-17.366,20.08-25.452c14.165-16.01,30.066-30.338,46.78-43.254c-69.411,225.002-182.346,590.237-193.2,621.822
		c-22.467,65.124-54.215,110.221-79.288,138.278c134.046-18.125,181.749-71.201,198.518-89.815
		c54.922-61.053,80.536-149.188,88.948-178.113c0.706-2.605,161.073-527.229,161.073-527.229l57.743,273.627
		c-12.964,8.95-25.412,18.626-37.284,28.98c-24.909,21.6-32.019,26.267-51.285,43.904c-18.94,17.42-34.787,27.46-51.284,31.422
		l-28.927,94.7l-0.271,0.868c14.436,26.593,16.933,49.386,18.289,60.132c2.279,18.723,2.713,39.399,7.272,80.536l0.814,7.163
		l1.954,16.064l1.465,11.343c1.303,9.985,2.822,20.73,4.559,32.67c20.08,134.425,68.868,159.715,80.753,163.948
		c1.682,0.597,2.55,0.76,2.604,0.814h0.054c0,0-30.934-58.069-33.267-148.428c-2.279-90.359-1.085-171.547-1.302-177.679
		c-0.217-6.134-0.977-11.451,5.644-22.469c0.706-1.247,14.87-21.599,18.289-30.987c4.559-12.265,5.156-36.307,5.373-37.88
		c1.357-8.304,3.419-13.242,10.366-22.088c9.225-11.938,21.653-32.778,48.408-62.953c23.825-26.917,43.524-46.075,59.479-59.805
		c30.663-24.15,48.246-26.646,54.921-26.43c0.923,0.163,1.846,0.109,2.769,0.325c-12.266,4.125-26.267,15.251-41.625,30.337h-0.109
		l-1.356,1.411c-3.256,3.202-6.621,6.675-9.985,10.257l-3.365,3.583c-4.776,5.101-9.443,10.256-14.11,15.467l-13.296,15.032
		l-1.519,1.791l-15.414,17.691c-9.442,11.18-18.505,22.685-27.08,34.57l-7.544,10.419c-3.962,5.535-7.381,10.528-10.094,14.436
		l-3.419,4.993c-1.378,1.96-2.595,4.028-3.636,6.187l0.054,0.271l6.622,31.694l6.458,31.149l0.542-1.247
		C755.67,1296.25,757.624,1279.697,758.384,1266.51"/>
	<path fill="#FFFFFF" d="M1397.571,1603.091h-0.108l-6.187-19.266h-9.389v29.469h5.428v-23.499h0.107l7.49,23.499h5.209
		l7.707-23.499h0.108v23.499h5.427v-29.469h-9.334L1397.571,1603.091L1397.571,1603.091z M1355.62,1589.09h7.978v24.258h5.427
		v-24.258h8.032v-5.265h-21.437V1589.09z"/>
</g>
</svg>
