<?xml version="1.0" encoding="utf-8"?>
<!-- Generator: Adobe Illustrator 16.0.3, SVG Export Plug-In . SVG Version: 6.00 Build 0)  -->
<!DOCTYPE svg PUBLIC "-//W3C//DTD SVG 1.0//EN" "http://www.w3.org/TR/2001/REC-SVG-20010904/DTD/svg10.dtd">
<svg version="1.0" id="MLB" xmlns="http://www.w3.org/2000/svg" xmlns:xlink="http://www.w3.org/1999/xlink" x="0px" y="0px"
	 width="1800px" height="1800px" viewBox="0 0 1800 1800" enable-background="new 0 0 1800 1800" xml:space="preserve">
<g>
	<path fill="#FFFFFF" d="M1619.579,414.569H180.016c-38.163-0.119-74.836,14.802-102.075,41.531
		c-27.195,27.238-42.306,64.26-41.935,102.749v642.383c-0.419,38.353,14.652,75.252,41.8,102.345
		c27.105,27.097,63.884,42.284,102.21,42.205h1439.563c79.547-0.372,143.815-65.001,143.74-144.55V558.715
		c0.597-79.011-62.971-143.546-141.981-144.143C1620.752,414.568,1620.166,414.567,1619.579,414.569z"/>
	<path fill="#BF0D3E" d="M1712.754,558.715c0.598-51.083-40.33-92.979-91.414-93.576c-0.586-0.006-1.174-0.008-1.761-0.003h-402.366
		l230.848,385.78l21.306,2.696l13.483,17.665v16.451l14.563,2.966l13.483,18.339v15.911l15.103,2.697l15.237,16.585v36.677
		c18.141,16.378,38.583,30.007,60.678,40.452c20.361,7.821,22.654,40.452,34.924,57.847c15.372,25.351,36.407,35.463,31.958,49.621
		c-10.247,37.891-49.082,101.806-85.22,104.772h-142.932v61.218h179.069c51.682-0.222,93.398-42.298,93.178-93.98
		c0-0.136-0.001-0.272-0.002-0.408V558.715"/>
	<path fill="#041E42" d="M728.414,1234.538H659.24c0-172.866,58.387-268.468,128.369-287.48c9.574-1.753,4.989-48.948-7.146-63.375
		h-40.452c-6.472,0-2.697-12.136-2.697-12.136l32.766-69.982l-4.449-19.148H644.543l99.512-69.578
		c4.585-183.518,192.823-197.811,306.225-121.356c67.421,44.632,72.544,133.088,67.421,194.17c-0.811,3.911-17.53,1.349-17.53,1.349
		s-11.461,67.42,18.474,67.42h132.279c53.937-2.157,105.984,34.385,105.984,34.385l12.676-46.25l-289.773-377.42H180.016
		c-24.892-0.146-48.832,9.547-66.612,26.968c-17.51,17.722-27.217,41.701-26.968,66.612v642.518
		c-0.313,24.844,9.41,48.763,26.968,66.342c17.67,17.668,41.624,27.608,66.612,27.643h584.13
		c-14.293-24.541-30.608-52.453-35.597-60.679"/>
	<path fill="#FFFFFF" d="M216.154,1098.214c0.001-35.299,28.617-63.913,63.917-63.912c35.299,0.001,63.914,28.618,63.912,63.917
		c-0.001,35.299-28.617,63.914-63.917,63.912c-0.179,0-0.358-0.001-0.537-0.002c-34.926,0.076-63.303-28.176-63.378-63.102
		C216.149,1098.756,216.15,1098.485,216.154,1098.214 M1750.914,1354.142c0-7.281-4.315-8.226-10.518-8.226h-13.484v26.968h5.664
		v-10.651h4.584l6.202,10.651h6.339l-6.473-10.651c3.87,0.109,7.098-2.939,7.207-6.811c0.012-0.383-0.009-0.766-0.062-1.146
		 M1739.992,1357.379h-7.552v-6.607h6.203c2.696,0,6.068,0,6.068,2.966C1744.712,1356.705,1743.094,1357.379,1739.992,1357.379"/>
	<path fill="#FFFFFF" d="M1738.105,1333.511c-14.299,0-25.89,11.592-25.89,25.891c0,14.297,11.592,25.889,25.891,25.889
		c14.245,0,25.813-11.51,25.889-25.755c0.224-14.147-11.063-25.798-25.211-26.022
		C1738.557,1333.51,1738.331,1333.51,1738.105,1333.511 M1738.105,1379.762c-11.171,0-20.226-9.056-20.226-20.227
		s9.055-20.227,20.226-20.227s20.226,9.056,20.226,20.227S1749.276,1379.762,1738.105,1379.762"/>
</g>
</svg>
