<?xml version="1.0" encoding="utf-8"?>
<!-- Generator: Adobe Illustrator 16.0.3, SVG Export Plug-In . SVG Version: 6.00 Build 0)  -->
<!DOCTYPE svg PUBLIC "-//W3C//DTD SVG 1.0//EN" "http://www.w3.org/TR/2001/REC-SVG-20010904/DTD/svg10.dtd">
<svg version="1.0" id="MLB_-_Washington_Nationals" xmlns="http://www.w3.org/2000/svg" xmlns:xlink="http://www.w3.org/1999/xlink"
	 x="0px" y="0px" width="1800px" height="1800px" viewBox="0 0 1800 1800" enable-background="new 0 0 1800 1800"
	 xml:space="preserve">
<g>
	<path fill="#AB0003" d="M1608.387,85.295c-160.316-128.501-305.938,32.101-305.938,124.139
		c160.554,34.101,303.647,194.71,239.459,611.849c-52.229,340.874-253.362,553.258-380.086,557.398
		c105.013-143.488,175.527-305.646,214.005-464.233c114.964-473.292-69.105-626.059-214.957-633.22
		c-177.152-8.834-354.346,232.388-403.796,517.018c-39.081,225.582-34.268,455.838,103.019,624.712
		c-121.229,153.212-412.791,200.522-361.639-168.526c42.949-308.897,196.397-649.437,281.226-816.97l2.521-4.479
		c45.575-93.275,81.705-159.484,97.248-185.764l-34.17-0.445c-331.816,5.708-595.367,82.204-718.381,250.181
		C11.689,654.215,8.355,819.734,103.519,918.044l13.925,13.751c27.85,28.06,64.417,42.506,100.825,42.506h0.277
		c32.823,0,66.146-12.308,91.205-37.477c25.1-24.934,37.462-58.368,37.365-91.246c0-36.463-14.55-73.03-42.56-100.88
		c-14.655-14.655-31.768-25.614-49.937-32.782l0.556-1c2.465-6.042,5.431-11.856,8.668-17.558
		c22.252-39.032,61.118-74.592,111.783-100.102c39.769-20.016,86.732-33.774,137.516-38.914l-8.015,17.105
		c-70.342,130.293-173.124,378.446-205.496,507.851c-101.157,404.631,62.348,641.603,239.111,674.71
		c212.823,39.706,376.329-63.521,462.665-196.827c103.012,65.305,374.884,102.997,579.255-260.92
		C1815.857,876.872,1824.399,258.523,1608.387,85.295z M1006.762,1283.732c-40.421-98.303-58.875-214.053-58.875-323.878
		c0-132.641,26.44-255.988,72.23-328.351c30.213-47.644,65.938-70.681,106.471-68.105c14.377,1.125,30.712,5.82,42.227,33.545
		c9.398,22.475,13.647,52.229,13.647,86.885C1182.462,856.856,1079.117,1151.773,1006.762,1283.732L1006.762,1283.732z
		 M1578.19,1396.696c0-22.821,17.835-36.351,37.698-36.351c19.572,0,37.464,13.522,37.464,36.351
		c0,22.921-17.892,36.567-37.464,36.567c-19.863,0-37.691-13.641-37.691-36.567H1578.19z M1615.888,1367.277
		c-15.71,0-28.128,11.966-28.128,29.419c0,17.558,12.418,29.407,28.128,29.407c15.036,0,27.837-11.855,27.837-29.407
		C1643.725,1379.243,1630.924,1367.277,1615.888,1367.277z M1609.623,1416.713h-8.667v-39.936h14.98
		c10.467,0,16.446,2.792,16.446,12.086c0,7.375-4.25,10.278-11.07,10.625l10.39,17.225h-8.771l-9.35-16.668h-3.959V1416.713z
		 M1609.623,1393.342h7.55c4.751,0,6.542-2.243,6.542-5.369c0-3.68-2.735-4.361-7.043-4.361h-7.034v9.725L1609.623,1393.342z"/>
</g>
</svg>
