<?xml version="1.0" encoding="utf-8"?>
<!-- Generator: Adobe Illustrator 16.0.3, SVG Export Plug-In . SVG Version: 6.00 Build 0)  -->
<!DOCTYPE svg PUBLIC "-//W3C//DTD SVG 1.0//EN" "http://www.w3.org/TR/2001/REC-SVG-20010904/DTD/svg10.dtd">
<svg version="1.0" id="MLB_-_San_Diego_Padres" xmlns="http://www.w3.org/2000/svg" xmlns:xlink="http://www.w3.org/1999/xlink"
	 x="0px" y="0px" width="1800px" height="1800px" viewBox="0 0 1800 1800" enable-background="new 0 0 1800 1800"
	 xml:space="preserve">
<g>
	<path fill="#002D62" d="M1115.925,383.249H513.964c-4.275,0-4.275,8.552,0,8.552s80.628,7.33,80.628,77.879v204.318H437.613
		c-34.511,0-41.841-28.709-41.841-46.116c0-1.527-1.527-174.083,0-282.197c1.527-87.958,48.865-132.548,131.021-132.548
		l387.258-4.275c22.905,0,43.063,10.079,43.063,38.787s-30.236,36.038-36.038,38.786c-2.749,1.527-2.749,4.276,0,4.276h226.001
		l-2.748-73.299C1142.8,164.272,1109.817,36,941.231,36H487.699c-164.004,0-279.448,118.193-279.448,274.867v2.749
		c0,93.455-2.749,226.002-2.749,310.906c0,103.533,89.18,211.647,215.924,211.647h503.008c34.511,0,44.589,31.763,44.589,43.063
		c0,4.275,1.527,159.729,1.527,273.646l-1.527,1.526c0,72.076-47.644,128.272-122.469,128.272h-74.825l1.527-375.652l-178.664-1.527
		v378.706c-90.706,0-152.704,1.526-159.729,1.526c-37.564,0-44.59-31.762-44.59-46.116c0-8.552,0-126.744,1.527-169.807
		c0-48.866,70.55-63.22,70.55-63.22v-5.803H204.586c0,0,0,175.609-1.527,262.04c0,92.234,77.88,197.294,188.742,197.294h200.043
		v182.939c0,70.55-46.117,105.061-84.904,116.666c-1.526,0-1.526,4.275,0,4.275h606.236c249.213,0,388.784-122.468,388.784-367.101
		V748.823C1501.96,499.609,1362.083,383.249,1115.925,383.249L1115.925,383.249z M1329.099,731.415
		c-1.526,179.886,1.527,535.686,1.527,693.888c0,113.611-90.706,174.083-204.318,174.083h-351.22l1.527-142.626h90.706
		c165.532,0,273.646-119.414,273.646-276.395c8.551-169.807,4.275-293.803,4.275-312.433c0-67.801-54.668-197.294-215.924-197.294
		H779.67V532.288h354.273C1252.746,534.427,1329.099,619.33,1329.099,731.415L1329.099,731.415z"/>
	<path fill="#FFFFFF" d="M1491.881,1750.868v-51.919h18.63v-11.301h-50.392v11.301h18.63v51.919H1491.881z M1596.942,1750.868
		v-63.22h-21.684l-15.881,41.535l-14.354-41.535h-22.905v63.22h12.827v-50.393l18.629,50.393h11.606l18.63-50.393v50.393H1596.942
		L1596.942,1750.868z"/>
</g>
</svg>
