<?xml version="1.0" encoding="utf-8"?>
<!-- Generator: Adobe Illustrator 16.0.3, SVG Export Plug-In . SVG Version: 6.00 Build 0)  -->
<!DOCTYPE svg PUBLIC "-//W3C//DTD SVG 1.0//EN" "http://www.w3.org/TR/2001/REC-SVG-20010904/DTD/svg10.dtd">
<svg version="1.0" id="MLB_-_Pittsburgh_Pirates" xmlns="http://www.w3.org/2000/svg" xmlns:xlink="http://www.w3.org/1999/xlink"
	 x="0px" y="0px" width="1800px" height="1800px" viewBox="0 0 1800 1800" enable-background="new 0 0 1800 1800"
	 xml:space="preserve">
<g>
	<path fill="#FDB827" d="M1437.671,609.693c0-88.065,12.287-183.687,67.479-278.657C1359.324,294.85,1247.001,157.554,1210.601,36
		c-60.416,59.07-119.593,72.888-213.498,72.888l-626.309-0.859l-85.281,213.197c51.334,22.297,85.281,71.035,85.281,129.804v976.752
		c0,58.563-33.947,107.364-85.281,129.661L370.794,1764h239.072l85.295-206.549c-51.406-21.382-85.294-71.965-85.294-129.676
		v-385.184l387.244,0.215c93.903,0,153.081,23.091,213.497,82.161c39.55-121.41,158.213-211.895,303.88-248.087
		c-55.334-95.049-76.809-179.264-76.809-267.193L1437.671,609.693z M1106.9,830.561H611.082V313.784H1106.9
		c78.585,0,127.75,49.517,127.75,115.207v295.258c0,68.823-38.969,106.297-127.742,106.297L1106.9,830.561z"/>
	<g>
		<path fill="#FDB827" d="M714.102,1755.156v-53.024h19.421v-11.249h-51.95v11.256h19.277v53.023 M821.331,1755.156v-64.273h-22.577
			l-15.642,41.968h-0.258l-15.026-41.968h-22.705v64.273h13.216v-51.164h0.244l18.104,51.164h12.494l18.697-51.164h0.344v51.164"/>
	</g>
</g>
</svg>
