<?xml version="1.0" encoding="utf-8"?>
<!-- Generator: Adobe Illustrator 16.0.3, SVG Export Plug-In . SVG Version: 6.00 Build 0)  -->
<!DOCTYPE svg PUBLIC "-//W3C//DTD SVG 1.0//EN" "http://www.w3.org/TR/2001/REC-SVG-20010904/DTD/svg10.dtd">
<svg version="1.0" id="MLB_-_Chicago_White_Sox" xmlns="http://www.w3.org/2000/svg" xmlns:xlink="http://www.w3.org/1999/xlink"
	 x="0px" y="0px" width="1800px" height="1800px" viewBox="0 0 1800 1800" enable-background="new 0 0 1800 1800"
	 xml:space="preserve">
<g>
	<path fill="#FFFFFF" d="M472.998,180.257c-44.66,47.565-87.739,141.935-93.964,205.813c-1.976,20.354-2.993,39.463-2.993,57.208
		c0,64.076,13.121,113.192,41.774,161.054c35.847,59.729,92.581,108.933,164.234,142.221
		c67.537,31.361,164.752,74.974,176.432,79.607c3.951,1.65,9.02,4.15,14.572,6.857c-22.33,16.007-35.469,25.57-46.042,33.297
		c-60.153-13.803-135.803-3.19-153.409,1.058c-71.535,16.896-137.162,49.127-184.667,90.703
		c-48.455,42.467-84.875,91.1-97.176,130.268c-13.704,43.611-9.268,74.498,13.171,91.957c33.041,25.77,75.744-0.572,89.686-9.346
		c28.752-18.143,81.712-51.34,148.504-61.359c57.979-8.596,135.861-0.592,171.749,22.666v63.395
		c-8.744,7.805-17.864,16.303-17.864,16.303c-8.972,8.873-13.833,21.223-13.833,34.059c0,5.898,1.047,11.975,3.221,17.764
		c5.978,16.303,19.683,23.16,19.683,23.16c115.403,70.252,115.403,70.252,193.065,117.717c-1.146,0.396-3.359,0.494-4.229,0.969
		c-10.275,4.447-34.02,19.297-34.02,60.688v168.957l100.387,95.91c22.232,22.291,43.811,26.057,58.039,25.098
		c17.518-1.088,33.436-9.664,44.729-24.139c0,0,66.873-85.863,108.359-138.941c30.631,47.477,78.986,122.352,78.986,122.352
		c-0.475-0.959,1.166,2.52,1.166,2.52c5.594,12.055,17.271,37.152,44.719,44.186c12.154,3.191,31.361,3.578,53.701-12.744
		c29.998-21.797,99.793-76.309,111.818-88.176l2.174-2.322c8.35-8.102,20.887-20.551,20.887-40.904v-161.35
		c0-17.35-9.287-39.256-30.629-47.941c-15.582-6.176-33.426-6.176-54.609,11.285c-9.555,7.627-25.711,19.307-49.305,37.25
		c-13.754-21.906-21.045-33.576-31.42-50.076c20.324-25.57,68.572-86.455,95.684-120.523c3.43,2.709,10.473,8.398,10.473,8.398
		l1.186,0.771c28.428,18.91,50.047,11.857,60.471,5.988c28.119-15.928,28.703-51.34,28.219-61.951l0.049-135.266l-85.299-88.49
		c-12.352-13.803-29.721-21.047-47.428-19.594c-18.082,1.453-34.828,11.777-44.719,27.408c-4.594,6.66-45.154,57.605-87.244,110
		V956.959c5.166-5.305,10.57-10.711,10.57-10.711c7.678-6.758,24.949-28.081,24.949-53.157c0-5.998-0.92-12.173-3.281-18.446
		c-4.92-13.023-16.797-27.981-42.881-34.158c7.658-29.522,10.65-58.177,11.037-80.367c0.049-2.036,0.098-4.052,0.098-6.177
		c0-59.154-13.654-109.041-40.678-148.405c-31.934-46.705-56.783-62.426-91.029-84.232l-8.834-5.603
		C1071.34,490.231,861.811,380.24,852.93,375.3c-0.723-0.276-80.329-39.642-80.329-39.642c-52.534-26.539-56.2-45.153-56.2-55.192
		v-1.838c1.205-6.066,15.493-28.159,45.499-28.159c30.678,0,52.297,0.859,92.778,14.564c64.066,21.52,65.943,47.574,65.943,57.208
		c-0.049,2.421-2.074,29.444-2.074,29.444l133.387,91.078l199.953-256.529L1089.549,77.696l-21.539,21.411
		c-7.174,7.332-11.658,11.383-14.326,13.221c-3.162-0.396-11.561-1.838-11.561-1.838l-35.867-13.625
		C949.938,74.021,855.557,36,769.784,36C619.727,36,540.878,107.308,472.998,180.257z"/>
	<g>
		<path d="M493.125,199.751c-40.411,42.932-80.803,131.215-86.405,188.817c-1.828,19.308-2.796,37.35-2.796,53.949
			c0,58.858,11.758,103.528,37.526,146.667c32.853,54.808,85.398,100.061,151.727,130.839
			c70.491,32.803,165.007,75.15,175.384,79.301c19.295,7.904,48.612,23.831,56.349,32.132c-10.039,7.331-87.423,63.492-92.344,66.96
			c-50.845-16.501-130.822-7.232-153.508-2.025c-67.109,16.007-128.29,45.945-172.387,84.527
			c-44.086,38.506-77.908,83.275-88.628,117.146c-9.683,30.688-8.577,50.854,3.191,60.123c11.382,8.773,29.819,5.008,56.25-11.195
			c28.229-17.953,86.949-54.809,159.986-65.707c54.175-7.904,108.492-1.738,149.368,8.398c0,0,31.46,9.645,56.348,26.432v93.588
			c-4.247,3.854-26.479,24.109-26.479,24.109c-3.725,3.576-5.117,8.498-5.117,13.238c0,2.787,0.494,5.396,1.354,7.707
			c2.024,5.406,7.381,8.201,7.381,8.201l275.192,167.605c0,0,65.33-49.799,76.771-58.473c4.477,7.43,10.178,16.895,13.26,22.191
			c-5.986,7.242-76.475,93.41-85.209,104.021l-61.457-54.896c-15.295-14.09-27.271-12.055-32.953-9.555
			c-10.424,4.723-16.352,16.996-16.352,33.961v156.805l91.85,87.797c14.672,14.477,27.311,16.896,35.471,16.402
			c9.061-0.572,17.41-5.107,23.389-12.824c0,0,106.234-136.451,133.98-171.951l101.799,157.377l3.082,6.076
			c4.545,9.939,11.432,24.604,25.434,28.18c8.773,2.311,18.613-0.395,29.049-8.004c29.938-21.717,98.805-75.654,108.488-85.396
			l2.371-2.332c6.748-6.748,12.104-12.055,12.104-20.156V1458.26c0-7.629-4.287-17.271-12.686-20.75
			c-5.533-2.51-14.662-2.994-26.105,8.104c0.594-0.574-55.43,41.793-74.381,56.061l-59.678-94.951
			c6.273-7.707,118.398-149.355,126.984-160.066c8.596,6.848,32.605,25.66,32.605,25.66c12.152,8.004,22.104,9.654,30.107,5.02
			c14.197-7.904,13.438-32.033,13.338-34.83v-125.244l-78.027-80.764c-6.264-7.045-14.377-10.426-22.924-9.842
			c-8.91,0.77-17.359,6.076-22.23,13.793c-4.148,6.57-64.451,82.01-106.809,134.701c-11.066-8.773-26.678-15.146-35.076-17.943
			V945.605c2.797-2.885,20.602-21.025,20.602-21.025c2.994-2.607,14.949-16.402,14.949-30.778c0-2.896-0.416-5.503-1.482-8.201
			c-4.486-12.054-18.477-18.14-41.439-18.14c-0.395,0-7.627,0.691-14.523,1.354c16.936-38.495,21.855-79.697,22.23-108.834
			c0-1.938,0.061-3.854,0.061-5.691c0-53.158-11.918-97.65-35.512-132.104c-28.604-41.775-48.969-54.709-82.602-75.933l-9.061-5.879
			c-38.881-24.8-247.637-134.504-256.559-139.139c-0.148-0.098-79.796-39.561-79.796-39.561
			c-62.721-31.757-72.75-59.353-72.75-82.306c0-1.067,0-2.035,0.099-3.093c0.573-18.911,27.735-55.875,75.013-55.875
			c32.803,0,57.604,1.067,102.333,16.026c58.039,19.484,86.207,47.664,86.207,86.258c-0.059,0.197-1.016,13.793-1.016,13.793
			l96.779,66.101l163.662-210.268l-116.096-77.662l-4.477,4.447c-24.949,25.076-25.957,24.78-52.594,19.465
			c-7.035-1.433-21.994-7.312-41.104-15.236c-54.412-21.915-145.6-58.77-225.929-58.77c-138.468,0-209.334,63.888-275.573,135.195
			H493.125z M738.859,912.811l104.101-75.645v-3.755c-1.205-17.469-51.044-40.629-68.61-48.247
			c-9.979-4.248-105.85-46.982-174.75-78.926c-63.533-29.522-113.726-72.85-145.027-124.851
			c-22.775-38.219-42.684-87.71-32.606-191.249c5.158-53.947,44.423-139.513,82.404-179.954
			C568.148,141.467,636.406,79.91,768.698,79.91c77.384,0,166.782,36.084,220.286,57.702c20.453,8.3,35.373,14.465,43.811,16.007
			c29.275,5.8,37.053,4.742,61.803-19.297c8.598,5.8,80.854,54.047,92.146,61.674c-9.219,11.758-136.777,175.51-144.879,185.834
			c-9.703-6.748-71.307-48.711-77.484-53.059c0.199-2.608,0.338-5.414,0.338-5.414c0-46.023-32.469-79.895-96.682-101.504
			c-46.805-15.641-73.87-16.797-107.155-16.797c-57.603,0-89.448,45.926-90.309,70.528c-1.551,39.857,23.536,70.745,81.09,99.675
			l79.757,39.66c1.975,0.969,216.906,113.953,255.264,138.368l9.09,5.79c33.031,21.124,51.418,32.507,78.254,71.782
			c22.469,33.001,33.564,76.426,32.645,128.911c-0.434,30.689-5.256,75.261-25.658,114.151l-6.521,12.449l40.58-3.656
			c14.523,0,24.365,3.063,26.34,8.102c2.51,6.838-5.986,19.484-9.168,22.281l-26.48,26.915l0.574,2.51v225.969l5.553,1.561
			c12.152,3.756,33.723,12.449,39.65,20.551l5.928,8.201l6.186-8.002c10.967-13.418,106.68-132.4,112.904-142.23
			c2.313-3.656,6.424-6.266,10.514-6.463c3.725-0.475,7.154,1.256,10.275,4.645c0,0,63.354,65.705,74.104,76.801v121.176
			c0,7.43-1.729,17.191-5.631,19.395c-2.371,1.355-7.48-0.295-13.557-4.346l-43.949-34.533l-143.248,180.418l74.254,118.508
			l88.381-66.971c5.553-5.305,8.834-6.174,10.275-5.592c1.838,0.672,3.33,4.15,3.33,6.66v161.518c0,1.738-3.479,5.307-7.627,9.268
			l-2.313,2.322c-8.635,8.695-75.408,61.18-106.711,83.846c-6.57,4.842-12.072,6.67-16.322,5.711
			c-6.945-1.738-11.816-12.252-15.285-19.879l-4.051-7.904l-113.527-175.529l-147.24,188.947c-2.322,2.984-6.324,6.561-12.252,7.035
			c-7.242,0.494-15.346-3.756-23.693-11.957c0,0-82.84-79.221-87.424-83.559v-150.244c0-12.252,3.715-18.23,7.242-19.861
			c3.854-1.648,10.078,0.861,16.5,6.938c0.139,0.098,73.512,65.508,73.512,65.508l102.096-124.861l-27.645-46.023
			c0,0-74.578,56.834-82.01,62.525c-8.635-5.02-266.655-162.486-267.169-162.684c-0.297-0.672-0.494-1.354-0.494-2.313
			c0-0.988,0.197-2.035,0.672-2.52l30.924-28.08l0.051-3.381v-105.543l-3.557-2.223c-20.809-13.408-37.645-23.162-67.652-30.68
			c-50.688-12.943-110.429-15.156-152.016-8.398c-76.179,12.152-136.866,49.402-165.914,67.73
			c-27.982,17.371-36.756,13.605-38.791,11.957c-4.249-3.262-6.324-16.58,2.075-43.219c9.653-30.789,42.704-74.203,84.084-110.297
			c42.318-36.953,101.177-65.707,165.825-81.05c25.422-5.979,104.412-13.705,149.132,2.41l3.853,1.453l3.291-2.411L738.859,912.811z
			"/>
		<g>
			<path d="M1459.973,1713.572h-11.492v31.461h-7.805v-31.471h-11.492v-6.748h30.777v6.748L1459.973,1713.572z M1512.358,1745.033
				h-7.863v-30.502h-0.148l-11.086,30.492h-7.568l-10.623-30.502h-0.295v30.492h-7.758v-38.209h13.557l8.873,24.9h0.148l9.219-24.9
				h13.557v38.209L1512.358,1745.033z"/>
		</g>
		<g>
			<path d="M1458.985,1245.314v-114.912l-71.773-64.461l-198.816,246.816l-27.893-44.492c24.188-18.041,55.352-41.4,58.828-43.029
				c5.791-2.896,20.117-11.58,27.252-11.58c6.52,0-9.98-28.654-57.357-28.654V931.031l27.25-30.294c0,0-33.139,5.307-48.77,0.673
				c-3.34-1.156-8.992-3.755-15.74-7.332c8.922-14.188,16.936-30.294,22.924-49.205c32.604-102.856,11.283-197.809-66.002-256.381
				C1054.67,547.498,831.963,434.8,831.963,434.8s-134.75-66.002-149.275-80.665c-10.425-10.325-31.599-26.44-31.599-77.482
				c0-30.394,33.871-63.779,48.485-70.646c23.268-11.086,30.827-16.303,78.212-17.063c26.727-0.297,51.479,6.066,54.858,6.451
				c29.346,3.093,99.043,26.056,134.84,74.599c13.852,13.694,16.551,54.115,16.551,54.115l55.924,35.809l121.984-159.306
				l-66.002-44.462c-18.674,20.255-54.461,21.5-68.936,14.366c-14.328-7.242-137.439-52.11-154.908-57.604
				c-33.002-10.622-104.733-18.438-143.484-12.646c-38.732,5.602-102.325,17.469-152.166,70.25
				c-58.097,61.754-58.809,111.156-58.809,137.784c0,41.577,10.77,96.484,57.455,143.17
				c67.112,67.168,169.296,109.338,192.259,121.877c40.777,22.676,169.403,90.012,187.979,100.732
				c78.975,45.945,109.08,94.755,100.445,156.508c-0.375,2.994-1.383,5.889-2.016,8.695
				c-34.582-20.177-83.225-50.855-102.816-70.448c0,0-11.719,12.548-19.248,20.057l-57.309,43.05
				c6.75-27.883,7.51-75.557,6.324-80.279c-1.402-5.79-5.75-51.715-45.885-80.28c-27.271-19.493-88.233-56.062-140.639-81.811
				c-22.479-11.105-95.668-55.4-130.556-84.538c0,0-60.341-56.151-69.608-90.605c-17.943-39.452-18.675-132.755-9.407-142.122
				c0,0-22.923,25.868-38.633,77.583c-7.775,25.195-12.944,58.098-12.944,80.378c0,37.251,6.521,102.561,47.289,157.852
				c18.031,24.308,46.339,52.002,76.258,71.783c36.618,24.009,73.436,38.208,75.847,40.046
				c10.078,7.232,104.833,47.18,113.379,51.517c8.625,4.249,52.09,24.604,61.309,29.444c32.655,17.549,49.454,28.654,59.827,56.616
				l-98.231,73.441c0,0,4.346,7.808,4.346,20.06v9.385c-13.219-4.445-26.736-8.299-40.143-10.631
				c-64.551-11.006-103.876-10.424-154.972,2.313c-56.714,13.99-116.254,36.854-172.218,92.818
				c-63.126,63.314-62.465,105.484-62.465,105.484l63.166-37.152c52.782-29.721,122.302-47.377,171.507-47.377
				c117.306,0,178.188,33.771,195.124,52.684v113.756c0,22.576-6.758,25.473-11.826,29.721c-1.877,1.65-3.607,1.838-10.375,6.471
				c0,0,8.596,3.182,10.721,5.404c5.789,4.25,229.171,139.238,229.171,139.238l86.494-63.492l42.742,68.027l-118.783,147.516
				l-81.713-74.568v139.139l93.193,86.158l164.709-206.77l135.285,215.375L1421.713,1617v-137.686l-87.561,65.904l-88.777-141.461
				l160.51-201.465l53.119,43.029L1458.985,1245.314z M901.522,935.388l50.955-37.348c13.832,11.392,30.105,22.004,46.359,31.361
				c-1.117,0.869-1.879,1.641-1.879,1.641s-58.789,50.172-95.445,55.479V935.4L901.522,935.388z M990.744,1262.484l-89.223-54.5
				v-135.088c37.35-6.658,128.576-50.094,175.775-97.264c0.613,8.793,0.375,99.104,0.178,160.264l-54.709-87.316l-83.449,59.441
				v106.148l46.17-30.6l34.543,55.094l-29.285,23.813V1262.484z"/>
		</g>
	</g>
</g>
</svg>
