<?xml version="1.0" encoding="utf-8"?>
<!-- Generator: Adobe Illustrator 16.0.3, SVG Export Plug-In . SVG Version: 6.00 Build 0)  -->
<!DOCTYPE svg PUBLIC "-//W3C//DTD SVG 1.0//EN" "http://www.w3.org/TR/2001/REC-SVG-20010904/DTD/svg10.dtd">
<svg version="1.0" id="MLB_-_Milwaukee_Brewers" xmlns="http://www.w3.org/2000/svg" xmlns:xlink="http://www.w3.org/1999/xlink"
	 x="0px" y="0px" width="1800px" height="1800px" viewBox="0 0 1800 1800" enable-background="new 0 0 1800 1800"
	 xml:space="preserve">
<g>
	<path fill="#0A2351" d="M1469.598,1252.737l-6.086-6.057l-51.892-52.019c0,0-12.937-1.334-26.729-2.833
		c-13.92-38.962-12.615-90.441-3.599-121.376l54.987-197.896l11.184-40.168l13.38-47.912l11.115-40.078l15.261-54.89l6.784-24.249
		l108.378-389.738c0.862-2.742,1.627-5.733,2.203-8.604c0.03-0.128,0.157-0.158,0.188-0.225h0.128v-0.098
		c1.783-1.56,6.432-4.902,8.755-6.596c19.944-14.145,52.979-37.688,69.191-96.43l16.984-61.517l-69.574-69.543l-315.929,77.316
		L1182.602,340.92l-11.881,20.868L967.855,717.796l-8.216-86.109c-9.369-100.096-47.948-187.096-111.728-251.641
		c-0.03-0.097-34.885-34.914-41.032-41.218h-0.157l-1.05-1.116c-9.656-9.482-19.836-18.416-30.491-26.76
		c-79.708-62.888-183.91-91.88-293.601-81.521c-100.478,9.429-193.722,56.742-262.944,133.166
		c-68.659,75.9-106.473,172.623-106.473,272.268c0,99.459,32.425,186.625,91.333,245.554l37.814,37.785
		c39.344,39.313,88.312,63.33,136.351,67.28l-27.553,100.035l-6.597,24.15l-28.13,102.074l-4.97,18.859
		c-4.49,18.672-7.233,25.297-8.409,27.65c-27.367,17.997-61.899,50.273-76.425,103.281l-25.709,92.322l75.532,75.533l26.093-15.516
		c21.452-12.65,43.141-24.895,65.053-36.729l-10.831,38.295l-4.175,2.421c-75.123,42.479-146.826,90.738-214.462,144.342
		l-30.425,24.173l57.626,74.131l31.032-24.623c64.289-50.909,132.498-96.879,202.896-136.568c0,0,1.979-1.05,4.108-2.294
		l85.568,24.016l5.127-2.421c12.635-5.995,25.303-11.921,38.002-17.779c9.752-4.49,20.231-9.115,31.474-14.084
		c155.083-67.827,450.812-168.237,873.11-107.771c8.192,1.178,16.28,2.234,24.502,3.538c8.695,1.335,17.075,2.196,25.868,3.726
		l13.791,2.294l12.519-48.196l84.961,7.323l11.536-74.513l-78.209-32.015l13.253-49.537l-40.267-8.695
		c-8.238-1.789-16.502-3.466-24.787-5.03c-2.55-0.585-5.108-1.127-7.676-1.626L1469.598,1252.737L1469.598,1252.737z
		 M465.114,666.916c-34.278-33.288-71.68-50.302-111.309-50.302c-0.322,0-0.6,0-0.794,0.067
		c5.412-61.576,49.028-115.454,108.348-135.616c-6.979,36.48,3.882,67.954,30.454,88.822L465.114,666.916z M625.578,1329.035
		l59.065-216.404l13.956,148.711l36.541,35.837C698.287,1306.617,661.747,1317.241,625.578,1329.035 M965.591,1254.042
		l97.93-171.963c7.225,61.897,30.739,118.287,67.698,160.974C1074.508,1243.533,1018.951,1247.191,965.591,1254.042"/>
	<path fill="#B6922E" d="M741.999,1415.879c-24.915,6.723-49.696,14.173-74.041,22.081l80.951,39.914
		c23.288-6.49,46.72-12.448,70.279-17.87L741.999,1415.879z M934.822,1375.792c-25.48,3.673-50.868,7.964-76.14,12.869
		l75.248,49.509c23.857-3.599,47.754-6.656,71.935-9.205L934.822,1375.792L934.822,1375.792z M901.623,1302.748l-46.704,70.945
		c25.515-4.939,51.359-9.369,77.347-13.154l51.479-68.682C956.161,1294.817,928.675,1298.445,901.623,1302.748 M555.772,1479.298
		c-23.818,9.805-47.4,20.172-70.728,31.091l85.119,29.631c22.318-9.328,44.859-18.113,67.603-26.347L555.772,1479.298z
		 M465.833,1519.428c-23.135,11.287-46.005,23.11-68.591,35.462l86.813,24.338c21.721-10.669,43.687-20.833,65.879-30.485
		L465.833,1519.428z M647.855,1444.653c-24.402,8.276-48.59,17.169-72.542,26.669l83.216,34.914
		c22.848-7.926,45.876-15.327,69.063-22.201L647.855,1444.653z M758.084,1395.52c25.357-6.597,50.745-12.518,76.425-17.899
		l46.959-71.522c-27.249,4.688-54.387,9.998-81.394,15.927L758.084,1395.52L758.084,1395.52z M837.635,1392.717
		c-25.199,5.28-50.268,11.156-75.188,17.622l78.403,44.854c23.664-5.024,47.436-9.527,71.298-13.508L837.635,1392.717
		L837.635,1392.717z M1034.528,1287.022c-10.359,0.794-20.426,1.813-30.649,2.803l-50.753,67.761
		c25.867-3.411,51.802-6.147,77.984-8.351l55.526-65.398C1069.344,1284.631,1051.985,1285.68,1034.528,1287.022 M955.697,1372.839
		l72.31,54.095c5.765-0.479,11.506-1.146,17.329-1.559c18.32-1.47,36.669-2.488,54.988-3.245l-67.857-57.469
		C1006.666,1366.752,981.084,1369.458,955.697,1372.839 M662.697,1423.531c24.849-8.121,49.894-15.632,75.112-22.523l42.627-74.545
		c-26.984,6.342-53.744,13.291-80.217,20.936L662.697,1423.531z M1564.934,1400.264c-119.531-32.59-242.975-54.478-371.299-56.449
		l13.477,7.803l-12.802,7.586c126.314,2.099,251.386,14.332,370.34,42.687L1564.934,1400.264z M389.206,1541.735
		c22.906-12.634,46.148-24.648,69.701-36.03l28.258-80.982c-25.329,11.165-50.376,22.956-75.12,35.364L389.206,1541.735z
		 M569.144,1457.148c24.337-9.606,48.894-18.646,73.651-27.111l37.913-76.807c-26.495,7.95-52.785,16.565-78.846,25.837
		L569.144,1457.148z M477.841,1496.748c23.675-11.123,47.615-21.669,71.8-31.631l33.295-79.229
		c-25.986,9.531-51.715,19.751-77.159,30.649L477.841,1496.748L477.841,1496.748z M1471.383,1442.232
		c-118.641-25.709-240.78-40.903-366.9-35.836l17.742,14.879c118.64-3.502,236.095,1.783,348.708,22.358L1471.383,1442.232z
		 M1086.951,1305.918l-42.373,49.891l51.675,43.482l80.659-48.265L1086.951,1305.918z M170.936,1705.176
		c65.534-52.042,135.046-98.867,207.896-140.047l-8.058-13.124c-73.324,41.442-143.275,88.588-209.208,140.998L170.936,1705.176
		L170.936,1705.176z M1618.1,75.87l-10.928,39.54c-12.458,45.273-36.481,62.348-53.9,74.834
		c-12.803,9.018-19.722,14.018-23.731,27.554l-223.794,804.174c-14.722,50.587-11.281,130.265,19.848,176.52
		c9.018,13.379,19.594,22.3,31.541,27.337c-25.229-47.147-27.336-119.112-13.701-166.042l223.892-804.174
		c3.95-13.604,10.995-18.536,23.61-27.553c17.555-12.547,41.602-29.63,54.096-74.866l10.831-39.501L1618.1,75.87z M1376.001,1277.42
		c-83.147,19.624-157.091,0.99-208.375-52.528c7.323,7.548,32.65,32.336,37.814,37.785c8.028,8.38,16.82,15.613,25.964,22.299
		c-41.157-2.33-82.54-3.47-124.493-1.94l-13.319,15.83c53.233-2.354,105.957-2.264,158.366-0.704
		c45.617,25.042,101.242,31.346,161.799,17.044l12.33-2.99c23.063,3.118,46.165,6.146,68.876,10.352l0.322-1.343
		c-20.29-4.362-40.805-7.93-61.291-11.625l-2.519-39.531l-37.845-37.845l2.549,40.296L1376.001,1277.42L1376.001,1277.42z
		 M882.712,1215.949c-47.881,5.93-108.857,17.367-146.477,27.366l38.482,37.815c32.463-8.763,106.182-22.3,145.841-27.367
		l211.374-370.624c14.938-53.899,36.347-131.127,56.097-202.582L882.712,1215.949z M456.216,396.155
		c-101.369,9.526-180.821,95.41-180.821,195.506c0,27.621,9.653,54.185,26.886,75.15c5.254-2.324,10.891-3.725,16.408-5.322
		c-0.352-0.127-0.705-0.127-1.087-0.284c-2.925-10.348-4.436-21.043-4.49-31.797c0-100.035,79.453-185.949,180.913-195.476
		c31.606-2.993,63.468,1.618,92.929,13.447l17.525-4.302C563.498,407.918,509.963,390.975,456.216,396.155 M353.797,909.082
		c-42.02,0-86.655-20.583-122.589-56.419c6.372,6.312,31.444,31.384,37.906,37.785c35.776,35.836,80.441,56.419,122.364,56.419
		c13.634,0,26.819-2.233,39.12-6.214l21.691-78.748C429.045,890.643,393.553,909.082,353.797,909.082 M1113.306,950.465
		c0.794-3.186,2.638-9.654,5.156-18.701C1115.914,940.937,1114.092,947.346,1113.306,950.465 M911.114,896.377l29.435-51.577
		c-9.624-100.417-19.976-209.432-19.976-209.395c-8.635-91.686-43.136-169.639-100.478-227.843
		c-6.911-6.941-34.689-34.787-41.893-41.862c-0.029,0-0.059,0-0.089-0.03c59.859,58.615,95.793,138.068,104.615,231.919
		L911.114,896.377 M544.851,1299.727c-108.602,36.953-232.016,101.242-301.147,142.624l37.875,37.748
		c79.895-47.244,191.909-105.829,300.796-141.86l121.151-443.871l-12.263-131.344L544.851,1299.727L544.851,1299.727z"/>
	<path fill="#FFFFFF" d="M1325.616,1198.492c-31.151-46.255-34.562-125.933-19.878-176.52l223.794-804.205
		c4.018-13.506,10.959-18.543,23.731-27.524c17.427-12.487,41.45-29.562,53.9-74.834l10.928-39.54l-278.046,68.112L940.555,844.807
		l-29.434,51.577c-10.383-109.428-28.387-298.788-28.387-298.788c-8.822-93.852-44.763-173.334-104.614-231.919
		c-8.637-8.466-17.73-16.452-27.239-23.926c-71.777-56.644-166.109-82.668-265.664-73.336
		c-90.569,8.605-174.863,51.352-237.429,120.453c-62.22,68.69-96.459,156.036-96.459,246.004
		c0,88.882,28.453,166.296,79.902,217.806c35.934,35.836,80.533,56.418,122.582,56.418c39.756,0,75.248-18.447,98.477-47.214
		l-21.663,78.748l-79.677,289.643c-3.755,13.191-12.301,47.313-26.887,57.056c-17.427,11.693-48.196,39.06-60.782,84.678
		l-19.563,70.308c69.131-41.353,192.544-105.634,301.147-142.595l146.38-536.695l12.293,131.344l32.718,348.932
		c37.59-9.999,98.566-21.437,146.447-27.366l305.316-535.392c-19.75,71.455-41.157,148.674-56.097,202.582
		c-5.51,20.037-10.133,36.511-13.447,48.646c-2.547,9.048-4.361,15.486-5.193,18.702c-0.24,0.779-0.463,1.564-0.668,2.354
		c-28.423,100.635-6.881,207.395,55.018,272.058c51.292,53.488,125.198,72.13,208.376,52.536l20.133-4.909l-2.548-40.296
		l-20.673-2.166c-5.547-0.578-10.771-2.196-15.801-4.235C1345.172,1220.792,1334.597,1211.871,1325.616,1198.492 M586.946,447.394
		l-81.619,20.036l-3.793,13.635c-13.761,49.507,19.848,63.202,32.493,68.307c1.02,0.441,2.392,0.952,3.568,1.461
		c-0.285,1.432-58.585,213.443-58.585,213.443c-3.696-26.917-16.183-51.771-35.709-71.328c-23.67-23.831-55.901-37.186-89.49-37.081
		c-12.038,0-23.731,2.263-35.139,5.606c-5.517,1.627-11.154,3.029-16.408,5.352c-17.378-21.188-26.87-47.747-26.856-75.15
		c0-100.096,79.453-185.98,180.792-195.507c53.757-5.189,107.308,11.758,148.292,46.931L586.946,447.394z"/>
	<path fill="#0A2351" d="M524.846,1280.98l178.108-651.572l54.792,584.322c19.564-4.077,66.681-14.046,110.073-19.975
		l394.962-692.641l-126.885,458.232c-43.676,154.19,40.394,340.521,234.469,294.648c-89.392-9.488-112.65-153.171-87.893-238.515
		l223.892-804.392c13.986-47.559,58.938-34.307,77.638-102.104l-228.194,55.88L894.451,974.421l-35.619-374.515
		c-19.811-210.385-183.844-325.066-371.39-307.452c-175.665,16.535-312.039,169.579-312.039,342.403
		c0,167.121,103.026,250.142,178.401,250.142c56.576,0,102.577-45.94,102.577-102.547c0-56.644-46.001-102.547-102.577-102.547
		c-20.867,0-40.138,6.214-56.329,16.82c-29.46-26.979-46.193-65.119-46.097-105.065c0-112.808,87.705-208.631,202.582-219.462
		c78.434-7.391,151.351,26.759,196.75,84.355l-125.933,30.904c-15.419,55.625,48.586,24.368,35.521,72.062l-191.653,694.807
		c-21.467,78.118-59.349,39.059-86.011,137.34C351.541,1353.335,438.19,1312.394,524.846,1280.98 M1528.67,1187.302h-18.955v51.546
		h-12.841v-51.546h-18.889v-11.214h50.685V1187.302z M1614.495,1238.842h-12.841v-49.921h-0.322l-18.124,49.921h-12.428
		l-17.555-49.921h-0.284v49.921h-12.81v-62.762h22.171l14.624,41.001h0.255l15.261-41.001h22.045v62.762H1614.495z"/>
</g>
</svg>
