<?xml version="1.0" encoding="utf-8"?>
<!-- Generator: Adobe Illustrator 16.0.3, SVG Export Plug-In . SVG Version: 6.00 Build 0)  -->
<!DOCTYPE svg PUBLIC "-//W3C//DTD SVG 1.0//EN" "http://www.w3.org/TR/2001/REC-SVG-20010904/DTD/svg10.dtd">
<svg version="1.0" id="MLB_-_Cleveland_Indians" xmlns="http://www.w3.org/2000/svg" xmlns:xlink="http://www.w3.org/1999/xlink"
	 x="0px" y="0px" width="1800px" height="1800px" viewBox="0 0 1800 1800" enable-background="new 0 0 1800 1800"
	 xml:space="preserve">
<g>
	<path fill="#E31937" d="M1438.704,646.85V36h-288.077v66.387L1084.305,36H509.308L221.241,324.068v1151.866L509.308,1764h641.311
		l288.085-288.058v-322.901h-288.077v203.744l-119.156,119.157H628.658l-119.35-119.157V443.601l119.359-119.533h402.813
		l119.146,119.542v203.24 M1464.525,1635.885h-25.252v69.174h-16.917v-69.184h-25.309v-14.652h67.487v14.644L1464.525,1635.885z
		 M1578.758,1705.058h-16.854v-66.661h-0.366l-24.061,66.661h-16.78l-23.354-66.661h-0.33v66.661h-17.101v-83.827h29.589
		l19.376,54.54h0.366l20.21-54.54h29.287v83.827H1578.758z"/>
</g>
</svg>
