<?xml version="1.0" encoding="utf-8"?>
<!-- Generator: Adobe Illustrator 16.0.3, SVG Export Plug-In . SVG Version: 6.00 Build 0)  -->
<!DOCTYPE svg PUBLIC "-//W3C//DTD SVG 1.0//EN" "http://www.w3.org/TR/2001/REC-SVG-20010904/DTD/svg10.dtd">
<svg version="1.0" id="MLB_-_Seattle_Mariners" xmlns="http://www.w3.org/2000/svg" xmlns:xlink="http://www.w3.org/1999/xlink"
	 x="0px" y="0px" width="1800px" height="1800px" viewBox="0 0 1800 1800" enable-background="new 0 0 1800 1800"
	 xml:space="preserve">
<g>
	<g>
		<path fill="#FFFFFF" d="M840.474,769.274c-1.887,1.301-3.396,2.244-3.632,2.244c0,0-4.151-0.812-5.849-2.235h-0.142h0.065
			c-0.302-0.217-0.527-0.566-0.584-0.802c0,0,7.264-5.038,11.414-7.735c2-13.49,4.34-29.057,7.038-46.159
			c2.641-17.226,5.641-36.092,8.678-55.658c-5.329,1.18-10.594,2.34-15.82,3.755c-10.311,2.924-20.263,6.565-29.876,10.896
			c-5.376,2.453-10.659,5.037-15.753,7.972h-0.123c-2.924,1.642-5.792,3.273-8.613,5.037l-0.528,0.35
			c-2.641,1.651-5.15,3.301-7.669,5.047c-0.35,0.236-0.755,0.472-1.17,0.708c-2.292,1.631-4.575,3.272-6.792,4.904
			c-0.528,0.472-1.057,0.821-1.528,1.17c-2.642,2-5.217,4.104-7.802,6.227c1,0.924,2.698,2.453,2.924,3.283
			c0,0-3.98,14.292-5.678,14.877c0,0-1.529-1.416-2.643-2.585c-1.763,0.472-11.301,3.396-15.349,4.339
			c-2.357,2.565-4.621,5.283-6.792,7.849c-0.132,0.095-0.188,0.227-0.302,0.35c-2.113,2.575-4.227,5.264-6.226,8.084
			c-3.566,4.679-7.02,9.604-10.113,14.755c-2.471,3.867-4.688,7.849-6.868,11.952c-0.349,0.585-0.697,1.292-1.057,1.868
			c-2.169,4.245-4.206,8.452-6.131,12.669c0,0.236-0.066,0.236-0.066,0.349c-1.981,4.463-3.755,9.019-5.443,13.585
			c-0.056,0.245-0.123,0.377-0.123,0.377c-1.763,4.793-3.301,9.717-4.621,14.509v0.123c-1.416,5.169-2.698,10.33-3.755,15.716
			c25.641-4.104,50.13-7.971,71.572-11.253c37.149-5.736,65.28-9.84,74.525-10.66c0.123-1.284,0.303-2.925,0.528-4.906
			c0.85-6.697,2.321-17.357,4.312-30.961L840.474,769.274z M752.477,735.407c0,0-4.452-2.68-4.226-4.565
			c0,0,16.98-5.265,17.867-5.151l3.632,2.217l3.698-13.584l0.282-1.292l1.189,0.697c0,0,4.282,2.472,4.744,3.632
			c0,0-4.057,15-5.612,15.585c0,0-2.415-1.416-3.812-2.585c-1.065,0.245-16.886,5.047-17.754,5.047H752.477z M765.365,741.86
			c0,0,16.508-6.208,17.395-6.095l3.98,1.98l2.293-13.696l0.227-1.416l1.302,0.708c0,0,4.557,2.245,5.15,3.302
			c0,0-2.519,15.094-4.056,15.942c0,0-2.68-1.302-4.198-2.472c-0.773,0.349-16.471,6.095-17.302,6.095c0,0-4.905-2.453-4.791-4.34
			V741.86z M785.051,751.954c0,0,16.104-6.792,16.934-6.792l4.34,1.744l1.104-13.717l0.057-1.414l1.282,0.585
			c0,0,4.906,1.98,5.566,2.924c0,0-1.245,15.235-2.708,16.179c0,0-2.867-1.179-4.452-2.236c-0.339,0.123-16.036,6.793-16.857,6.793
			c0,0.019-5.265-2.094-5.265-4.085V751.954z M811.636,764.717c0,0-3.926-1.057-5.444-2.575h-0.056
			c-0.227-0.235-0.528-0.585-0.566-0.943c0,0,14.622-8.434,15.396-8.547l4.812,1.283l-1.604-13.472l-0.16-1.641l1.528,0.472
			c0,0,5.442,1.415,6.207,2.357c0,0,1.697,15.217,0.405,16.273c0,0-3.34-0.943-5.151-1.642c-0.302,0.113-14.527,8.321-15.377,8.434
			H811.636z"/>
		<path fill="#FFFFFF" d="M755.76,717.615l2.858-9.849c-3.273,2.83-6.443,5.755-9.527,8.792c2.207-0.708,3.915-1.057,4.197-0.943
			l2.453,2H755.76z M690.008,911.768c1.113,5.396,2.472,10.659,3.934,15.829c5.68,19.564,14.123,38.083,24.905,54.95
			c3.207,5.037,6.557,9.962,10.188,14.65c2.396,3.17,4.904,6.321,7.499,9.265c0.283,0.472,0.528,0.707,0.755,1.057
			c2.697,3.047,5.442,6.094,8.264,9.018c-0.425-1.415-0.708-2.575-0.66-2.924c0,0,3.642-3.047,5.217-2.698
			c0,0,4.528,12.075,4.245,13.245l-0.538,0.472c1.528,1.527,3.113,2.924,4.755,4.339l9.434,3.623l-1.415,1.16
			c0,0-0.52,0.358-1.17,0.943c2.396,1.98,4.906,3.868,7.5,5.735c0.405,0.349,0.755,0.585,1.18,0.812
			c2.216,1.632,4.452,3.16,6.792,4.811l0.707,0.341c2.453,1.764,5.028,3.301,7.547,4.905c0.122,0,0.189,0.132,0.358,0.132
			c2.642,1.528,5.377,3.17,8.132,4.688c0,0,0.123,0,0.188,0.095c5.207,2.829,10.471,5.282,15.925,7.735l0.122,0.132
			c8.83,3.755,17.98,7.15,27.404,9.716c5.217,1.538,10.49,2.831,15.811,3.887c-2.98-18.866-5.849-37.026-8.424-53.79
			c-1.575-10.424-3.095-20.263-4.51-29.404c-1.414,0.227-2.924,0.585-3.462,0.472c0,0-9.782-8.084-12.358-11.603l-0.404-0.228
			l0.122-0.132c-0.303-0.349-0.415-0.708-0.415-0.943c0,0,3.452-0.924,5.33-1.17c0.349-2.339,1.98-12.546,2.688-13.235
			c0,0,2.357-0.595,4.405-0.849c-1.293-8.896-2.358-16.396-3.113-22.358l-0.17,0.113c0.047-0.122,0.113-0.234,0.113-0.357
			c-0.585-4.453-1-8.076-1.226-10.424c-9.198-0.821-36.914-4.925-73.535-10.566c-21.565-3.377-46.226-7.245-72.129-11.461
			L690.008,911.768z M767.817,1013.01l-2.575,2.217l16.112,6.226l-1.34,1.038c0,0-3.283,2.924-4.339,3.179
			c0,0-12.528-4.811-15.802-7.282h-0.057c-0.357-0.35-0.594-0.585-0.66-0.812c0,0,1.887-1.528,3.169-2.453
			c-0.811-2.471-4.15-11.603-3.98-12.669c0,0,3.698-3.057,5.283-2.585c-0.02,0,4.434,11.943,4.188,13.113V1013.01z M809.947,988.746
			c0.283-1.981,2.048-12.642,2.688-13.357c0,0,5.283-2.123,6.736-0.944c0,0-2.113,13.02-2.765,13.717l-3.509,1.283l14.83,9.839
			l-1.869,0.708c0,0-4.98,1.981-5.924,1.867c0,0-10.896-7.15-13.886-10.424l-0.349-0.227h0.121
			c-0.302-0.349-0.527-0.697-0.527-0.943c0,0,2.585-1.038,4.452-1.509V988.746z M793.117,983.133c0,0,4.812-2.452,6.349-1.527
			c0,0,0.349,12.763-0.188,13.707l-3.095,1.65l15.472,8.905l-1.765,0.82c0,0-4.574,2.218-5.565,2.104c0,0-11.245-6.443-14.415-9.367
			l-0.472-0.227l0.123-0.122c-0.358-0.359-0.585-0.708-0.585-0.944c0,0,2.292-1.036,3.991-1.754
			c-0.058-2.122-0.35-12.311,0.169-13.245H793.117z M782.287,989.802c0,0,1.415,12.66,0.943,13.717l-2.877,1.65l15.811,7.972
			l-1.632,0.943c0,0-4.151,2.453-5.218,2.565c0,0-12.008-6.094-15.121-8.914l-0.227-0.095h0.122
			c-0.358-0.377-0.584-0.594-0.584-0.849c0,0,2-1.151,3.528-1.858c-0.188-2.217-1.293-12.302-0.831-13.235
			c0,0,4.576-2.698,6.095-1.888L782.287,989.802z"/>
		<path fill="#FFFFFF" d="M835.719,982.19l7.5,6.226l-1.792-12.547c-0.472,2.576-1.01,4.812-1.303,5.16l-4.396,1.17L835.719,982.19z
			 M964.969,933.796c-0.188,1.414-0.358,3.396-0.66,5.754c-0.802,6.556-2.227,16.509-4.095,29.056
			c1.415-0.83,2.358-1.415,2.575-1.528c0,0,4.15,0.812,5.792,2.217l0.058,0.123c0.358,0.235,0.584,0.472,0.66,0.811
			c0,0-6.16,4.227-10.32,7.028c-2.047,13.584-4.509,29.433-7.207,46.885c-2.643,16.622-5.443,34.433-8.434,53.064h0.056
			c5.331-1.16,10.604-2.453,15.812-4.094h0.056c9.085-2.575,17.812-5.868,26.357-9.736h0.058c5.443-2.452,10.782-5.037,15.942-7.849
			c2.98-1.765,5.915-3.396,8.849-5.282c0.095,0,0.227-0.095,0.406-0.227c2.575-1.642,5.207-3.302,7.782-5.038l1.113-0.708
			c2.339-1.621,4.688-3.263,6.915-5.027c0.519-0.349,0.99-0.697,1.452-1.038c2.642-2.009,5.283-4.112,7.858-6.226
			c-0.584-0.585-1.057-1.18-1.179-1.528c0,0,3.925-14.292,5.632-14.877c0,0,1.622,1.415,2.679,2.575
			c1.358-0.349,6.509-1.98,10.848-3.16c2.869-3.047,5.566-6.094,8.208-9.15c0.283-0.472,0.519-0.802,0.82-1.037
			c2.576-3.17,5.038-6.321,7.453-9.5h0.057c3.52-4.812,6.849-9.717,10.019-14.754c4.981-8.085,9.49-16.51,13.415-25.188
			c0-0.133,0.056-0.133,0.056-0.133c1.868-4.207,3.566-8.434,5.151-12.641c0.122-0.378,0.236-0.718,0.357-0.943
			c1.633-4.34,3.16-8.915,4.453-13.472c1.528-5.16,2.811-10.443,3.98-15.707c-25.074,3.868-48.865,7.623-69.779,10.896
			c-36.065,5.527-63.422,9.527-73.205,10.452L964.969,933.796z M975.582,999.764l-1.528-0.349c0,0-5.473-1.528-6.227-2.341
			c0,0-1.745-15.234-0.472-16.291c0,0,3.462,0.942,5.227,1.65c0.404-0.226,14.527-8.434,15.282-8.557c0,0,3.98,1.058,5.509,2.698
			h0.123h-0.048c0.283,0.228,0.529,0.585,0.529,0.944c0,0-14.528,8.423-15.349,8.546l-4.812-1.414l1.792,15.121L975.582,999.764z
			 M997.656,993.557l-4.34-1.765l-1.227,15.123l-1.282-0.566c0,0-4.906-2-5.623-3.057c0,0,1.293-15.094,2.698-16.057
			c0,0,2.925,1.18,4.575,2.236c0.415-0.227,16.065-6.905,16.82-6.905c0,0,5.217,2.217,5.217,4.103c0,0-16.065,6.906-16.83,6.906
			L997.656,993.557z M1016.882,1002.933l-4.057-1.999l-2.453,14.999l-1.282-0.584c0,0-4.623-2.218-5.218-3.396
			c0,0,2.528-15.122,4.057-15.812c0,0,2.689,1.284,4.208,2.34c0.887-0.235,16.509-5.972,17.292-5.972c0,0,3.264,1.642,4.387,3.274
			h0.122h-0.057c0.227,0.471,0.406,0.706,0.406,1.056c0-0.019-16.604,6.085-17.406,6.085L1016.882,1002.933z M1051.391,1007.84
			c0,0-17.113,5.283-17.925,5.037l-3.585-2.113l-4.037,14.887l-1.18-0.708c0,0-4.207-2.452-4.735-3.632
			c0,0,4.104-14.999,5.566-15.584c0,0,2.396,1.415,3.802,2.575c1.226-0.358,16.98-5.159,17.811-5.047c0,0,4.509,2.707,4.283,4.575
			V1007.84z"/>
		<path fill="#FFFFFF" d="M1042.24,1026.602c1.292-1.179,2.575-2.452,3.867-3.632l-2.339-1.867L1042.24,1026.602z M951.442,714.323
			c1.584,10.547,3.112,20.508,4.509,29.772c1.227-0.227,2.472-0.473,2.878-0.35c0,0,9.734,7.98,12.414,11.49l0.472,0.358
			l-0.16,0.123c0.282,0.358,0.471,0.707,0.405,0.943c0,0-3.452,0.943-5.34,1.16c-0.405,2.358-1.98,12.547-2.641,13.244
			c0,0-2.038,0.473-3.962,0.698c1.273,9.028,2.386,16.528,3.149,22.396c0.586,4.81,1.058,8.556,1.293,10.896
			c9.435,0.924,36.735,4.792,72.894,10.414c21.263,3.274,45.583,7.027,71.129,11.019c-0.472-2.698-1.179-5.377-1.82-8.085
			c-0.566-2.575-1.282-5.15-2.048-7.735c-5.376-19.217-13.413-37.376-23.658-54.007c-3.18-5.038-6.51-9.962-10.094-14.773
			c-2.387-3.273-4.906-6.565-7.548-9.622c-0.405-0.566-0.754-1.038-1.113-1.396c-2.688-3.274-5.442-6.444-8.376-9.368
			c0.585,1.764,0.943,3.17,0.877,3.519c0,0-3.623,3.17-5.264,2.698c0,0-4.463-11.952-4.246-13.245l0.944-0.708l-3.68-3.49
			l-10.726-4.112l1.293-1.18c0,0,0.811-0.707,1.697-1.414c-2.471-1.981-4.925-3.962-7.51-5.85c-0.283-0.236-0.632-0.472-0.942-0.708
			c-2.33-1.754-4.67-3.396-7.02-5.037c-0.122,0-0.283-0.122-0.405-0.227c-5.264-3.642-10.66-6.934-16.226-10.094
			c-5.16-2.811-10.442-5.5-15.83-7.849c-9.027-4.095-18.396-7.604-28.074-10.425c-5.207-1.527-10.49-2.811-15.811-3.98
			c2.963,19.339,5.83,37.857,8.538,54.95V714.323z M989.685,749.953c-0.283,1.868-2.104,12.66-2.688,13.358
			c0,0-5.34,2.113-6.745,0.943c0,0,2.047-12.896,2.698-13.83l3.452-1.282l-14.829-9.736l1.934-0.697c0,0,4.981-1.98,5.915-1.887
			c0,0,10.849,7.15,13.82,10.32l0.405,0.226l-0.094,0.123c0.283,0.359,0.519,0.718,0.519,0.943c0,0-2.566,0.944-4.396,1.529
			L989.685,749.953z M1006.448,755.576c0,0-4.811,2.453-6.339,1.528c0,0-0.35-12.783,0.188-13.717l3.094-1.642l-15.405-8.905
			l1.698-0.811c0,0,4.566-2.236,5.565-2.236c0,0,11.349,6.565,14.528,9.623l0.396,0.112l-0.094,0.113
			c0.282,0.34,0.519,0.689,0.519,0.925c0,0-2.282,1.057-3.98,1.642c0.047,2.452,0.349,12.423-0.189,13.358L1006.448,755.576z
			 M1023.382,747.019c0,0-4.585,2.585-6.104,1.887c0,0-1.461-12.67-0.942-13.716l2.877-1.642l-15.812-7.972l1.643-1.057
			c0,0,4.15-2.34,5.15-2.453c0,0,12.188,6.085,15.234,8.896h0.123l-0.056,0.122c0.349,0.236,0.632,0.595,0.632,0.821
			c0,0-2.029,1.179-3.613,1.868c0.217,2.358,1.273,12.329,0.868,13.264V747.019z M1039.701,720.323h0.066
			c0.35,0.226,0.66,0.565,0.66,0.565s-1.83,1.773-3.179,2.708c0.812,2.339,4.227,11.604,3.98,12.64c0,0-3.632,3.058-5.264,2.586
			c0,0-4.51-11.943-4.282-13.112l2.641-2.227l-16.111-6.227l1.291-1.15c0,0,3.33-2.831,4.387-3.047
			C1023.891,713.059,1036.486,717.85,1039.701,720.323L1039.701,720.323z"/>
	</g>
	<path fill="#FFFFFF" d="M963.912,756.51l-6.98-5.754c0.538,3.642,1.065,7.169,1.604,10.565c0.34-1.887,0.688-3.396,0.925-3.632
		L963.912,756.51L963.912,756.51z"/>
	<g>
		<path fill="#0C2C56" d="M1226.044,1684.766h29.168v79.223h19.688v-79.223h29.131v-17.217h-77.979 M1378.66,1730.594h-0.472
			l-22.452-63.045h-34.093V1764h19.622v-76.762h0.538l26.951,76.762h19.037l27.952-76.762h0.415V1764h19.744v-96.459h-33.913"/>
		<path fill="#0C2C56" d="M836.955,944.455c0,0,0-0.112-0.057-0.226c0,0.122-0.047,0.235-0.113,0.357l0.189-0.122L836.955,944.455z
			 M704.658,726.86c0,0,3.755,8.556,9.019,20.282c3.207-5.038,6.604-9.735,10.245-14.415
			c-29.773-66.091-59.649-132.523-58.583-132.881c0,0,61.856,38.555,122.788,76.751c4.981-2.924,10.019-5.631,15.301-8.206
			C745.601,632.543,644,569.734,644,569.734S658.962,625.27,704.658,726.86z M1133.293,1137.797c0,0-61.225-38.206-123.731-77.449
			c-5.095,2.924-10.378,5.631-15.707,8.206c58.28,36.565,167.54,105.214,167.54,105.214s-65.847-159.947-71.411-172.239
			c0,0-2.171-4.811-5.434-12.188c-3.228,5.037-6.623,9.848-10.188,14.414c30.508,67.95,60.091,133.58,58.922,134.052
			L1133.293,1137.797z"/>
		<path fill="#0C2C56" d="M1257.562,903.702c15.519-2.585,30.168-5.169,43.771-7.509c90.798-16.179,138.552-27.896,138.552-27.896
			s-82.374-14.527-174.475-30.348c-20.377-3.632-41.319-7.15-61.923-10.66l-2.037-0.358
			c-32.357-36.678-69.903-66.903-110.496-92.214c0.416-0.942,0.755-1.763,1.17-2.575c3.867-8.434,6.452-14.179,6.452-14.179
			c3.981-8.546,7.604-16.508,10.943-24.008c32.923-72.289,40.564-94.563,40.564-94.563l12.878-28.226l-136.034,76.979
			l-31.998,20.396c5.283,2.575,10.377,5.264,15.358,8.207c61.035-39.018,124.844-79.092,126.202-77.101
			c0.17,2.452-31.886,68.894-61.762,133.806c3.622,4.698,7.019,9.5,10.188,14.434c9.367,14.405,17.113,29.876,22.961,46.385
			c8.905,6.792,17.641,13.962,26.132,21.32c-6.981-1.17-13.943-2.33-20.509-3.509c1.282,5.263,2.452,10.546,3.396,15.81
			c101.354,16.188,218.879,35.632,243.717,40.434c3.047,0.707,4.755,1.057,4.755,1.178c0.217,1.066-134.806,23.566-248.829,41.603
			c-1.057,5.283-2.359,10.565-3.699,15.708c34.112-5.378,75.818-12.057,103.714-16.51c40.017,63.394,65.545,144.466,65.545,254.028
			c0,295.177-212.445,492.019-413.211,492.019c-132.825,0-203.596-80.044-240.5-80.044c0,0-83.724,43.941-120.985,52.026v-406.022
			c44.187,27.669,103.23,319.195,368.947,319.195c91.506,0,177.105-79.902,177.105-235.765c0-91.864-40.375-152.088-99.194-201.313
			c1.228-7.83,2.388-15.451,3.566-22.357c-5.217,1.396-10.489,2.566-15.811,3.736c-18.282,114.015-40.904,249.235-42.007,248.999
			c-1.133,0.236-23.49-134.617-41.546-248.641c-5.34-0.943-10.604-2.113-15.754-3.519c1.452,9.244,3.094,19.452,4.744,29.876
			l18.207,113.543c19.226,116.599,34.282,188.539,34.282,188.539s15.226-71.94,34.563-188.417l3.453-21.669
			c2.396-14.414,5.68-34.688,9.132-56.13c0.425-2.452,0.755-4.905,1.18-7.377c43.648,44.763,73.176,97.261,73.176,163.352
			c0,118.826-59.997,202.352-150.56,202.352c-154.051,0-235.246-121.485-306.894-264.679c-18.113-36.225-50.97-71.364-89.582-75.817
			v508.999l161.343-58.356c36.206,11.254,94.676,70.186,244.142,70.186c233.218,0,434.823-219.708,434.823-529.856
			c0-103.241-22.15-186.078-59.055-253.104l1.887-0.358L1257.562,903.702z"/>
		<path fill="#0C2C56" d="M624.115,916.211c2.339,0.472,4.622,0.831,6.98,1.18c22.489,19.112,46.556,36.451,71.469,52.969
			c-7.018-13.471-12.773-27.763-16.933-42.64c-0.755-0.707-1.51-1.292-2.283-1.886c0.585,0.122,1.227,0.234,1.812,0.234
			c-1.416-5.037-2.642-10.319-3.68-15.706c-111.26-17.924-240.679-39.838-240.5-40.895c-0.565-1.528,128.769-23.207,240.161-41.131
			c1-5.264,2.104-10.547,3.396-15.584c-32.574,5.16-71.366,11.48-97.846,15.707c-51.319-69.837-85.525-161.71-85.525-291.763
			c0-252.047,192.162-422.19,361.893-422.19c61.921,0,109.202,22.508,144.71,45.12c35.329,24.622,58.932,47.112,76.695,47.112
			c0,0,68.96-30.471,100.279-43.019v362.78C1101.841,466.483,1078.483,229.2,886.652,229.2
			c-79.733,0-152.022,71.837-152.022,190.653c0,98.656,46.507,159.938,112.354,209.736c-1.358,8.557-2.698,16.754-3.925,24.245
			c5.15-1.274,10.424-2.453,15.754-3.396C876.86,536.925,898.887,403.91,900,404.155c1.528-0.585,23.603,132.872,41.535,246.642
			c5.33,1.057,10.594,2.236,15.754,3.755c-2.452-15.585-5.329-33.631-8.207-51.678l-14.414-90.336
			c-19.272-117.071-35.508-177.993-35.508-177.993s-14.283,61.743-33.489,178.107c0,0-1.227,7.971-3.283,20.508
			c-2.047,13.019-4.98,31.056-8.019,50.498c-0.302,1.283-0.472,2.688-0.717,3.981c-52.903-49.338-85.827-105.581-85.827-168.739
			c0-90.581,43.018-155.607,133.58-155.607c117.825,0,161.938,135.222,232.123,255.218c16.462,28.234,52.073,52.025,84.242,59.996
			V115.685c0,0-107.401,44.178-136.74,54.13c-49.81-39.593-142.259-90.232-218.143-90.232c-184.549,0-392.89,194.398-392.89,454.767
			c0,135.107,32.328,228.613,83.109,299.497l-6.019,1.057c-15.83,2.575-30.829,5.283-44.886,7.622
			c-90.42,15.585-142.088,25.754-142.088,25.754s71.176,15.942,191.285,36.103c1.584,0.349,3.17,0.584,4.812,0.83
			C556.212,905.212,587.192,910.239,624.115,916.211z M789.909,1061.054c-61.506,39.149-122.448,77.921-122.976,76.978
			c-1.114-0.472,28.413-66.082,58.299-132.4c-3.632-4.574-7.104-9.263-10.376-14.179c-4.453,9.962-7.547,16.981-7.547,16.981
			l-5.34,11.735c-43.649,96.666-71.535,152.541-71.535,152.541s40.423-17.924,151.268-88.337c0,0,5.812-3.744,14.123-9.018
			c2.989-1.868,6.272-3.868,9.734-6.095c-5.282-2.471-10.565-5.283-15.66-8.207H789.909z"/>
	</g>
	<g>
		<path fill="#C4CED4" d="M795.948,681.522h-0.066h0.123 M985.704,1063.394h0.056h-0.094 M1053.437,1305.705
			c0,155.844-85.6,235.766-177.115,235.766c-265.697,0-324.742-291.537-368.929-319.187v406.022
			c37.263-8.085,120.985-52.026,120.985-52.026c36.914,0,107.685,80.034,240.5,80.034c200.785,0,413.221-196.86,413.221-492.028
			c0-109.562-25.538-190.634-65.545-254.047c-27.896,4.472-69.602,11.132-103.704,16.528c-6.226,22.499-15.811,43.583-28.301,62.573
			c3.283,7.377,5.453,12.188,5.453,12.188c5.564,12.302,71.412,172.239,71.412,172.239s-109.27-68.658-167.56-105.214
			c-11.48,5.51-23.556,10.075-36.036,13.472c-1.17,6.915-2.33,14.527-3.566,22.377c58.828,49.225,99.194,109.43,99.194,201.313
			L1053.437,1305.705z M1070.56,995.302h-0.067 M685.15,926.059c-0.565,0-1.227-0.112-1.811-0.226
			c0.755,0.585,1.528,1.179,2.282,1.886c-0.113-0.595-0.349-1.065-0.472-1.651V926.059z M704.658,726.86
			c-45.687-101.601-60.63-157.126-60.63-157.126s101.581,62.8,159.428,98.657c12.595-5.973,25.819-10.896,39.603-14.528
			c1.227-7.5,2.566-15.698,3.925-24.245C781.117,579.8,734.629,518.529,734.629,419.853c0-118.808,72.28-190.625,152.013-190.625
			c191.822,0,215.199,237.274,298.102,297.271V163.73c-31.357,12.548-100.316,43.018-100.316,43.018
			c-17.735,0-41.349-22.509-76.695-47.121c-35.498-22.621-82.771-45.111-144.693-45.111c-169.737,0-361.892,170.145-361.892,422.191
			c0,130.052,34.207,221.926,85.526,291.763c26.479-4.227,65.279-10.547,97.844-15.707c6.133-23.659,16.104-45.81,29.17-65.61
			c-5.283-11.736-9.028-20.283-9.028-20.283V726.86z M959.224,1073.13h0.057H959.224 M1113.482,812.054
			c6.575,1.18,13.547,2.34,20.519,3.52c-8.49-7.377-17.227-14.528-26.131-21.32c2.104,5.849,3.98,11.83,5.623,17.801H1113.482z
			 M693.31,811.224v0.123V811.224"/>
		<path fill="#C4CED4" d="M757.865,708.351c-2.991,2.698-5.915,5.377-8.773,8.207c3.084-3.047,6.254-5.972,9.527-8.792
			C758.335,707.88,758.1,708.125,757.865,708.351L757.865,708.351z"/>
		<path fill="#C4CED4" d="M752.591,702.257c10.942-9.716,22.848-18.272,35.564-25.659c-60.941-38.205-122.808-76.742-122.808-76.742
			l87.243,102.411V702.257z M1044.948,701.681c10.896,9.604,20.914,20.15,29.753,31.744
			c29.866-64.903,61.913-131.353,61.753-133.807l-91.506,102.072V701.681z M755.572,1037.027
			c-11.132-9.49-21.263-20.037-30.349-31.414c-29.876,66.318-59.403,131.947-58.299,132.419l88.657-101.005H755.572z
			 M1045.353,1034.574c-11.019,9.717-23.018,18.396-35.791,25.773c62.517,39.262,123.731,77.449,123.731,77.449L1045.353,1034.574z"
			/>
		<path fill="#C4CED4" d="M962.979,804.904c0.405,0,0.942,0.123,1.462,0.123c-0.227-2.34-0.698-6.095-1.283-10.896
			c-0.755-5.867-1.867-13.367-3.16-22.386c-0.415-3.273-0.943-6.792-1.472-10.424c-0.528-3.396-1.056-6.915-1.585-10.547
			c-0.349-2.227-0.66-4.462-1-6.679c-1.415-9.265-2.924-19.226-4.509-29.772c-2.698-17.094-5.565-35.612-8.557-54.951
			c-0.472-2.802-0.877-5.623-1.34-8.547C923.593,537.056,901.519,403.59,900,404.183v465.294
			c2.518-3.047,30.225-31.509,48.205-49.791c7.217-7.414,13.019-13.149,14.773-14.791V804.904z"/>
		<path fill="#C4CED4" d="M899.934,869.591l0.058-0.123c-1.652,2.123-7.567,8.443-15.377,16.528
			c-1.096,1.179-2.208,2.339-3.396,3.519c-3.151,3.273-6.435,6.679-9.887,10.188c-6.227,6.319-12.66,12.895-18.584,18.753
			c-6.321,6.321-11.943,11.727-15.98,15.472c-0.35,0-0.755,0-1.113-0.123c0.235,2.358,0.66,5.972,1.227,10.425l0.065,0.122
			c0.755,6.094,1.812,13.585,3.113,22.499c0.396,2.924,0.868,5.972,1.321,9.019c0.594,3.962,1.188,8.207,1.82,12.528
			c0.302,1.98,0.66,3.98,0.943,6.094c1.414,9.15,2.924,18.98,4.5,29.404c2.575,16.773,5.442,34.924,8.434,53.8
			c0.49,2.812,0.896,5.613,1.367,8.434c18.047,114.015,40.423,248.878,41.536,248.642l-0.047-465.171V869.591z"/>
		<path fill="#C4CED4" d="M900,869.458c-4.905-6.207-47.111-49.555-63.225-64.431c-0.349,0-0.755,0-1.112,0.122
			c-9.245,0.812-37.376,4.905-74.526,10.66c-21.442,3.283-45.941,7.142-71.582,11.245c-2.83,0.472-5.632,0.811-8.434,1.282
			c-111.383,17.924-240.745,39.622-240.151,41.131h459.04L900,869.458z"/>
		<path fill="#C4CED4" d="M900.17,869.591c0.123,0.226,0.357,0.472,0.527,0.697c6.98,8.085,46.979,49.216,62.573,63.63
			c0.528,0,1.057-0.122,1.698-0.122c9.792-0.944,37.149-4.906,73.232-10.425c20.915-3.273,44.716-7.027,69.781-10.896l8.557-1.415
			c114.014-18.037,249.046-40.536,248.82-41.603L900.17,869.591L900.17,869.591z"/>
	</g>
	<g>
		<path fill="#005C5C" d="M957.29,654.561c13.019,3.527,25.659,8.207,37.611,13.961l31.979-20.396
			c-25.772-13.839-52.422-28.942-77.789-45.233l8.208,51.677L957.29,654.561z M813.749,1064.101h0.122l-0.122-0.123V1064.101z
			 M797.758,1056.13l0.058,0.095c-0.058-0.095-0.123-0.095-0.123-0.095H797.758z"/>
		<path fill="#005C5C" d="M1301.323,896.193c-13.584,2.34-28.243,4.905-43.771,7.499l-1.887,0.34
			c36.923,67.026,59.055,149.862,59.055,253.104c0,310.158-201.597,529.866-434.823,529.866
			c-149.466,0-207.936-58.941-244.142-70.187l-161.352,58.338v-508.999c38.611,4.452,71.478,39.593,89.581,75.808
			c71.648,143.202,152.853,264.688,306.875,264.688c90.591,0,150.579-83.534,150.579-202.351c0-66.101-29.527-118.58-73.177-163.352
			c-0.405,2.452-0.754,4.905-1.179,7.376c-3.453,21.443-6.736,41.716-9.132,56.131c25.546,36.441,38.838,72.761,38.838,107.92
			c0,44.178-11.415,146.711-117.278,146.711c-144.835,0-226.803-183.031-261.782-261.188
			c-27.075-60.47-103.109-99.6-147.579-104.524l-23.131-2.575v652.899c0,0,189.115-67.828,203.171-72.997
			c4.679,2.113,9.604,4.104,9.604,4.104c56.187,24.026,141.08,60.12,231.075,60.12c241.728,0,491.84-214.426,491.84-573.337
			c0-99.241-20.849-188.2-61.394-265.395H1301.323z M1109.52,693.937c-3.358,7.499-6.98,15.471-10.962,24.018
			c0,0-2.575,5.754-6.452,14.179c-0.406,0.812-0.756,1.632-1.16,2.575c40.611,25.301,78.156,55.526,110.505,92.214
			c0.697,0.132,1.415,0.245,2.047,0.357c20.622,3.52,41.546,7.028,61.932,10.66c-39.961-55.875-92.166-104.146-155.899-143.994
			L1109.52,693.937z M1088.823,114.864C1036.278,75.479,952.262,36,859.511,36c-176.238,0-437.059,161.937-437.059,509.717
			c0,117.759,25.603,214.896,79.79,296.799c14.056-2.339,29.055-5.037,44.884-7.622l6.038-1.056
			c-50.8-70.885-83.139-164.399-83.139-299.498c0-260.367,208.342-454.757,392.91-454.757c75.846,0,168.295,50.621,218.104,90.224
			c29.358-9.962,136.75-54.13,136.75-54.13v462.849c-32.168-7.97-67.78-31.762-84.242-59.996
			c-70.186-119.996-114.316-255.217-232.123-255.217c-90.581,0-133.579,65.034-133.579,155.606
			c0,63.168,32.924,119.411,85.826,168.748c0.236-1.292,0.425-2.697,0.708-3.98c3.047-19.452,5.972-37.499,8.019-50.498
			c-29.923-32.357-49.498-68.677-49.498-109.685c0-33.508,7.849-111.43,80.619-111.43c79.384,0,119.146,74.403,135.806,118.702
			c15.812,42.057,52.96,110.261,104.931,156.9l28.726-16.527l-12.887,28.234c0,0,0.16-0.471,0,0
			c27.404,20.877,58.394,36.226,92.846,39.622l22.848,2.112V49.358c-0.02,0-159.428,59.055-176.955,65.497L1088.823,114.864z"/>
		<path fill="#005C5C" d="M689.555,827.054c1.057-5.378,2.34-10.547,3.746-15.707v-0.123c1.319-4.811,2.858-9.717,4.565-14.414
			c0,0,0.123-0.235,0.188-0.472c1.679-4.585,3.443-9.151,5.434-13.604c0-0.095,0.057-0.095,0.057-0.35
			c1.935-4.197,3.981-8.423,6.132-12.64c0.378-0.585,0.717-1.293,1.065-1.888c2.171-4.094,4.388-8.074,6.859-11.942
			c3.094-5.16,6.546-10.075,10.122-14.755c1.98-2.83,4.104-5.509,6.226-8.084c0.113-0.122,0.16-0.236,0.283-0.35
			c2.169-2.575,4.453-5.282,6.792-7.857c0.821-0.943,1.698-1.756,2.528-2.689c0.943-1.057,1.887-1.98,2.868-2.942
			c0.877-0.944,1.755-1.868,2.641-2.688c2.869-2.812,5.793-5.501,8.774-8.208c0.244-0.217,0.472-0.472,0.755-0.565
			c1.008-0.944,2.122-1.888,3.179-2.83c2.565-2.104,5.15-4.198,7.791-6.207c0.473-0.35,1.001-0.699,1.529-1.161
			c2.217-1.65,4.499-3.302,6.792-4.925c0.405-0.235,0.812-0.472,1.18-0.707c2.519-1.755,5.037-3.396,7.669-5.038l0.528-0.357
			c2.83-1.765,5.688-3.396,8.613-5.037h0.104c5.095-2.925,10.376-5.51,15.754-7.972c9.622-4.34,19.565-7.972,29.876-10.896
			c5.217-1.415,10.49-2.575,15.83-3.755c-3.038,19.565-6.038,38.433-8.679,55.659c-2.68,17.112-5.029,32.687-7.02,46.168
			c-0.471,2.924-0.877,5.735-1.282,8.546c-1.98,13.585-3.453,24.264-4.283,30.943c-0.226,1.98-0.405,3.622-0.528,4.904
			c0.358-0.113,0.755-0.113,1.113-0.113c16.112,14.877,58.3,58.233,63.225,64.433V404.193
			c-1.114-0.246-23.15,132.731-41.188,246.293c-5.33,0.942-10.604,2.113-15.754,3.396c-13.773,3.632-27.009,8.557-39.621,14.528
			c-5.283,2.575-10.311,5.282-15.282,8.207c-12.718,7.377-24.604,15.942-35.565,25.659l-87.224-102.43
			c-1.056,0.357,28.82,66.79,58.584,132.881c-3.623,4.68-7.02,9.367-10.245,14.415c-13.066,19.811-23.019,41.951-29.17,65.61
			c-1.291,5.028-2.396,10.311-3.396,15.565c2.802-0.472,5.613-0.811,8.434-1.273V827.054z"/>
		<path fill="#005C5C" d="M1009.562,1060.347c12.764-7.378,24.781-16.057,35.791-25.773l87.94,103.223
			c1.178-0.472-28.415-66.092-58.941-134.051c3.585-4.558,6.98-9.368,10.188-14.415c12.49-18.98,22.075-40.074,28.301-62.573
			c1.34-5.15,2.643-10.424,3.699-15.697l-8.557,1.415c-1.18,5.254-2.454,10.537-3.981,15.697c-1.292,4.557-2.83,9.132-4.452,13.472
			c-0.123,0.226-0.236,0.565-0.359,0.943c-1.584,4.197-3.272,8.424-5.15,12.527c0,0-0.066,0.095-0.066,0.227
			c-3.924,8.679-8.434,17.112-13.414,25.188c-3.16,5.047-6.49,9.972-9.999,14.764h-0.067c-2.414,3.161-4.867,6.32-7.451,9.48
			c-0.283,0.236-0.52,0.585-0.821,1.057c-2.642,3.048-5.33,6.095-8.207,9.15c-0.943,0.925-1.812,1.981-2.755,2.925
			c-0.943,0.925-1.934,1.858-2.867,2.802c-0.755,0.708-1.528,1.528-2.293,2.236c-1.283,1.188-2.566,2.471-3.867,3.641
			c-0.699,0.585-1.416,1.161-2.113,1.867c-0.228,0.123-0.472,0.351-0.699,0.586c-0.659,0.471-1.301,1.16-1.943,1.641
			c-0.527,0.472-0.999,0.812-1.461,1.284c-2.586,2.113-5.227,4.207-7.868,6.226c-0.472,0.34-0.943,0.689-1.462,1.038
			c-2.208,1.765-4.566,3.396-6.905,5.037c-0.349,0.236-0.755,0.472-1.114,0.708c-2.574,1.755-5.207,3.396-7.782,5.037
			c-0.188,0.113-0.302,0.217-0.405,0.217c-2.925,1.887-5.868,3.519-8.867,5.283c-5.143,2.811-10.472,5.377-15.868,7.849h-0.112
			c-8.557,3.868-17.283,7.15-26.357,9.735h-0.058c-5.207,1.632-10.489,2.925-15.81,4.095h-0.058
			c2.991-18.613,5.793-36.433,8.434-53.064c2.698-17.452,5.16-33.282,7.208-46.885c0.405-3.038,0.877-5.849,1.226-8.651
			c1.868-12.546,3.283-22.499,4.104-29.055c0.283-2.358,0.472-4.34,0.642-5.755c-0.66,0-1.179,0.122-1.698,0.122
			c-15.593-14.404-55.61-55.535-62.582-63.62c-0.226-0.226-0.585-0.564-0.755-0.697l0.058,465.171
			c1.104,0.244,23.725-134.976,42.007-248.991c5.33-1.159,10.594-2.339,15.811-3.744c12.472-3.396,24.528-7.962,36.018-13.463
			c5.33-2.565,10.613-5.264,15.717-8.188L1009.562,1060.347z"/>
		<path fill="#005C5C" d="M858.454,1086.129c-0.472-2.83-0.877-5.631-1.358-8.434c-5.33-1.057-10.594-2.358-15.811-3.868
			c-9.434-2.585-18.584-5.98-27.414-9.716h-0.122v-0.133c-5.444-2.452-10.718-4.904-15.943-7.734l-0.047-0.095h-0.123
			c-2.755-1.538-5.519-3.18-8.141-4.698c-0.189,0-0.236-0.123-0.359-0.123c-2.527-1.642-5.095-3.169-7.547-4.924
			c-0.244-0.122-0.49-0.227-0.716-0.35c-2.34-1.632-4.576-3.16-6.793-4.811c-0.424-0.217-0.755-0.472-1.179-0.802
			c-2.595-1.868-5.113-3.745-7.51-5.735c-0.585-0.472-1.113-0.831-1.642-1.293l-0.528-0.349c-0.811-0.708-1.528-1.416-2.339-2.113
			c-0.755-0.595-1.586-1.293-2.34-2c-1.642-1.415-3.227-2.812-4.755-4.34c-0.405-0.349-0.754-0.698-1.226-1.17
			c-1.293-1.179-2.575-2.339-3.868-3.632c-1.113-1.065-2.113-2.113-3.16-3.283c-2.831-2.924-5.566-5.971-8.273-9.019
			c-0.227-0.349-0.472-0.584-0.755-1.057c-2.575-2.924-5.095-6.094-7.499-9.244c-3.633-4.698-6.981-9.623-10.188-14.66
			c-10.783-16.867-19.245-35.376-24.905-54.951c-1.462-5.159-2.83-10.424-3.924-15.829c25.895,4.227,50.563,8.085,72.11,11.481
			c36.621,5.632,64.337,9.734,73.524,10.546c0.359,0.123,0.756,0.123,1.114,0.123c4.057-3.746,9.669-9.15,15.989-15.471
			c5.915-5.85,12.358-12.415,18.584-18.745c3.443-3.519,6.736-6.925,9.887-10.188c1.189-1.189,2.302-2.359,3.396-3.529
			c7.811-8.084,13.726-14.414,15.376-16.508h-459.01c-0.188,1.037,129.24,22.951,240.5,40.885c1.057,5.377,2.282,10.66,3.679,15.706
			c0.123,0.586,0.359,1.057,0.473,1.643c4.15,14.877,9.904,29.169,16.942,42.64c-24.904-16.51-48.979-33.867-71.479-52.96
			c-2.358-0.35-4.623-0.698-6.98-1.18l-67.904-10.999c-1.632-0.236-3.207-0.472-4.81-0.831
			c40.148,42.886,90.118,81.092,150.578,115.778l5.331-11.725c0,0,3.112-7.028,7.547-16.981c3.282,4.905,6.753,9.604,10.376,14.17
			c9.084,11.367,19.226,21.914,30.357,31.413l-88.647,100.996c0.528,0.943,61.46-37.847,122.976-76.978
			c5.095,2.924,10.358,5.727,15.642,8.188c-3.453,2.235-6.745,4.226-9.736,6.094c18.585,12.312,35.792,24.716,51.622,37.149
			c-1.642-10.425-3.302-20.621-4.755-29.876c5.17,1.387,10.433,2.566,15.772,3.491L858.454,1086.129z"/>
		<path fill="#005C5C" d="M941.535,650.816c0.472,2.924,0.878,5.754,1.34,8.556c5.33,1.179,10.604,2.453,15.812,3.981
			c9.679,2.83,19.056,6.339,28.074,10.424c5.376,2.358,10.66,5.038,15.829,7.857c5.566,3.161,10.942,6.444,16.227,10.076
			c0.121,0.095,0.282,0.227,0.404,0.227c2.359,1.642,4.688,3.301,7.029,5.037c0.302,0.236,0.659,0.472,0.942,0.708
			c2.566,1.886,5.028,3.867,7.491,5.867c0.527,0.472,0.999,0.943,1.527,1.283c0.586,0.471,1.113,0.942,1.698,1.415
			c0.538,0.565,1.065,1.037,1.651,1.51c0.942,0.849,1.934,1.65,2.867,2.48c1.227,1.17,2.453,2.358,3.679,3.509
			c0.425,0.359,0.887,0.831,1.293,1.293c1.057,0.925,2.113,1.858,3.113,2.924c1.094,1.17,2.15,2.331,3.264,3.51
			c2.925,2.925,5.688,6.094,8.377,9.368c0.358,0.357,0.708,0.829,1.113,1.414c2.642,3.038,5.16,6.321,7.547,9.604
			c3.585,4.811,6.924,9.734,10.094,14.772c10.235,16.622,18.264,34.79,23.65,54.007c0.755,2.576,1.472,5.151,2.048,7.735
			c0.659,2.689,1.357,5.378,1.82,8.076c-25.547-3.963-49.866-7.736-71.13-11.009c-36.149-5.633-63.45-9.49-72.884-10.425
			c-0.528,0-1.057-0.122-1.462-0.122c-1.765,1.642-7.5,7.377-14.773,14.772c-18.047,18.282-45.875,46.998-48.206,49.81l-0.065,0.113
			h0.217l465.19-0.123c0-0.132-1.699-0.472-4.755-1.188c-24.83-4.812-142.354-24.245-243.708-40.423
			c-0.943-5.283-2.113-10.565-3.396-15.82c-1.642-5.971-3.519-11.952-5.631-17.829c-5.868-16.51-13.604-31.98-22.971-46.386
			c-3.171-4.905-6.566-9.716-10.188-14.414c-8.85-11.604-18.867-22.15-29.763-31.744l91.505-102.071
			c-1.35-1.981-65.148,38.093-126.193,77.11c-4.98-2.943-10.074-5.633-15.348-8.208c-11.952-5.754-24.622-10.424-37.612-13.942
			c-5.132-1.509-10.396-2.688-15.726-3.745L941.535,650.816z"/>
	</g>
	<g>
		<path fill="#D50032" d="M1025.495,1005.736c-1.463,0.585-5.566,15.584-5.566,15.584c0.528,1.18,4.735,3.632,4.735,3.632
			l1.18,0.708l4.057-14.887l3.566,2.113c0.811,0.236,17.924-5.037,17.924-5.037c0.226-1.869-4.283-4.576-4.283-4.576
			c-0.812-0.094-16.566,4.689-17.811,5.038c-1.415-1.17-3.802-2.585-3.802-2.585V1005.736z M1033.863,995.774h0.066h-0.123
			c-1.112-1.623-4.396-3.265-4.396-3.265c-0.755,0-16.415,5.736-17.292,5.972c-1.528-1.056-4.208-2.34-4.208-2.34
			c-1.537,0.689-4.057,15.802-4.057,15.802c0.585,1.18,5.218,3.396,5.218,3.396l1.282,0.584l2.453-14.999l4.057,1.981
			c0.811,0,17.386-6.085,17.386-6.085c0-0.34-0.17-0.585-0.396-1.037L1033.863,995.774z M1009.26,982.548
			c-0.755,0-16.415,6.67-16.811,6.915c-1.642-1.037-4.576-2.227-4.576-2.227c-1.414,0.943-2.698,16.057-2.698,16.057
			c0.698,1.057,5.614,3.047,5.614,3.047l1.282,0.566l1.245-15.113l4.34,1.765c0.754,0,16.811-6.915,16.811-6.915
			C1014.467,984.756,1009.26,982.548,1009.26,982.548z M993.958,977.502c0-0.35-0.227-0.708-0.519-0.944h0.057h-0.113
			c-1.528-1.631-5.51-2.688-5.51-2.688c-0.755,0.123-14.876,8.33-15.282,8.557c-1.764-0.708-5.217-1.642-5.217-1.642
			c-1.273,1.065,0.472,16.301,0.472,16.301c0.755,0.812,6.227,2.34,6.227,2.34l1.528,0.349l-1.765-15.094l4.812,1.396
			c0.811-0.112,15.339-8.556,15.339-8.556L993.958,977.502z M968.657,969.417l-0.057-0.123c-1.632-1.415-5.792-2.217-5.792-2.217
			c-0.227,0.122-1.18,0.698-2.575,1.528c-0.349,2.811-0.82,5.613-1.227,8.66c4.15-2.812,10.311-7.028,10.311-7.028
			C969.242,969.888,969.016,969.672,968.657,969.417L968.657,969.417z M832.974,980.897c-1.867,0.236-5.339,1.179-5.339,1.179
			c0,0.227,0.112,0.586,0.405,0.943l-0.123,0.113l0.406,0.227c2.575,3.52,12.357,11.604,12.357,11.604
			c0.529,0.122,2.058-0.235,3.453-0.472c-0.302-2.113-0.641-4.104-0.943-6.094l-7.5-6.207l4.396-1.18
			c0.312-0.349,0.85-2.575,1.302-5.16c-0.472-3.048-0.942-6.095-1.34-9.019c-2.047,0.235-4.405,0.83-4.405,0.83
			c-0.698,0.698-2.34,10.896-2.688,13.235H832.974z M805.901,991.208l0.349,0.236c2.99,3.283,13.886,10.434,13.886,10.434
			c0.943,0.122,5.924-1.868,5.924-1.868l1.869-0.708l-14.83-9.839l3.518-1.283c0.661-0.707,2.774-13.717,2.774-13.717
			c-1.463-1.178-6.745,0.944-6.745,0.944c-0.66,0.697-2.405,11.357-2.698,13.349c-1.867,0.471-4.452,1.527-4.452,1.527
			c0,0.236,0.226,0.585,0.527,0.944h-0.121V991.208z M788.966,998.132c0,0.228,0.236,0.566,0.595,0.944l-0.123,0.112l0.472,0.228
			c3.17,2.924,14.415,9.367,14.415,9.367c1,0.113,5.565-2.113,5.565-2.113l1.756-0.83l-15.472-8.906l3.113-1.641
			c0.527-0.943,0.188-13.707,0.188-13.707c-1.538-0.943-6.349,1.528-6.349,1.528c-0.51,0.925-0.218,11.112-0.16,13.226
			c-1.699,0.717-3.981,1.773-3.981,1.773L788.966,998.132z M776.193,991.689c-0.471,0.943,0.661,11.019,0.831,13.234
			c-1.528,0.708-3.519,1.869-3.519,1.869c0,0.235,0.235,0.472,0.594,0.829h-0.122l0.226,0.095
			c3.113,2.831,15.123,8.925,15.123,8.925c1.056-0.123,5.216-2.576,5.216-2.576l1.633-0.942l-15.812-7.972l2.868-1.642
			c0.472-1.038-0.924-13.707-0.924-13.707c-1.51-0.812-6.094,1.886-6.094,1.886L776.193,991.689z M758.326,1002.471
			c-0.188,1.038,3.17,10.188,3.98,12.642c-1.282,0.943-3.17,2.471-3.17,2.471c0.058,0.228,0.302,0.472,0.661,0.813h0.047
			c3.273,2.452,15.811,7.264,15.811,7.264c1.038-0.228,4.34-3.16,4.34-3.16l1.32-1.057l-16.103-6.207l2.575-2.218
			c0.235-1.18-4.207-13.112-4.207-13.112c-1.567-0.472-5.265,2.565-5.265,2.565H758.326z M750.119,1010.896
			c-1.576-0.349-5.208,2.698-5.208,2.698c-0.056,0.339,0.227,1.509,0.66,2.924c1.038,1.17,2.038,2.208,3.142,3.265
			c1.293,1.292,2.575,2.452,3.868,3.631c0.472,0.472,0.82,0.82,1.227,1.189l0.538-0.472
			C754.628,1022.97,750.119,1010.896,750.119,1010.896z M768.005,1032.565l-9.434-3.622c0.755,0.706,1.575,1.414,2.34,1.98
			c0.811,0.717,1.527,1.415,2.34,2.123l0.527,0.357c0.529,0.472,1.057,0.813,1.642,1.293c0.66-0.585,1.18-0.943,1.18-0.943
			l1.396-1.17L768.005,1032.565z M759.034,723.125c1.697-0.585,5.678-14.877,5.678-14.877c-0.235-0.821-1.943-2.34-2.924-3.283
			c-1.065,0.943-2.17,1.867-3.179,2.812l-2.868,9.849l-2.472-1.981c-0.283-0.132-1.981,0.217-4.208,0.925
			c-0.887,0.811-1.764,1.755-2.641,2.688c-0.991,0.943-1.935,1.887-2.868,2.942c-0.83,0.925-1.697,1.746-2.519,2.68
			c4.057-0.943,13.584-3.868,15.357-4.34C757.505,721.719,759.034,723.124,759.034,723.125L759.034,723.125z"/>
		<path fill="#D50032" d="M774.033,732.955c1.574-0.586,5.612-15.585,5.612-15.585c-0.472-1.16-4.735-3.632-4.735-3.632l-1.18-0.698
			l-0.282,1.273l-3.707,13.584l-3.632-2.207c-0.878-0.113-17.868,5.16-17.868,5.16c-0.226,1.887,4.227,4.575,4.227,4.575
			c0.887,0,16.697-4.812,17.754-5.037c1.415,1.169,3.82,2.566,3.82,2.566H774.033z M791.664,742.576
			c1.528-0.849,4.057-15.942,4.057-15.942c-0.595-1.057-5.16-3.302-5.16-3.302l-1.302-0.688l-0.227,1.415l-2.293,13.698l-3.98-2.001
			c-0.877-0.094-17.395,6.095-17.395,6.095c-0.133,1.867,4.791,4.34,4.791,4.34c0.831,0,16.51-5.756,17.292-6.095
			c1.51,1.17,4.208,2.452,4.208,2.452L791.664,742.576z M811.636,751.472c1.462-0.943,2.697-16.179,2.697-16.179
			c-0.66-0.943-5.566-2.925-5.566-2.925l-1.292-0.585l-0.056,1.415l-1.114,13.707l-4.339-1.764c-0.83,0-16.934,6.793-16.934,6.793
			c0,1.98,5.265,4.103,5.265,4.103c0.811,0,16.508-6.679,16.867-6.792c1.603,1.038,4.461,2.218,4.461,2.218L811.636,751.472z
			 M831.739,741.633c-0.755-0.943-6.207-2.357-6.207-2.357l-1.528-0.472l0.17,1.65l1.584,13.472l-4.811-1.284
			c-0.755,0.095-15.396,8.557-15.396,8.557c0.048,0.349,0.35,0.698,0.565,0.943h0.066c1.528,1.51,5.443,2.566,5.443,2.566
			c0.83-0.123,15.056-8.33,15.357-8.443c1.812,0.717,5.151,1.65,5.151,1.65c1.32-1.037-0.396-16.272-0.396-16.272V741.633z
			 M830.917,769.274h-0.065h0.132c1.698,1.414,5.85,2.244,5.85,2.244c0.244,0,1.772-0.943,3.641-2.235
			c0.405-2.802,0.812-5.604,1.283-8.537c-4.15,2.688-11.414,7.735-11.414,7.735c0.056,0.235,0.283,0.565,0.565,0.812
			L830.917,769.274z M966.601,757.793c1.887-0.227,5.34-1.16,5.34-1.16c0.057-0.236-0.123-0.585-0.406-0.943l0.17-0.113l-0.472-0.35
			c-2.679-3.509-12.404-11.48-12.404-11.48c-0.406-0.094-1.642,0.123-2.868,0.359c0.358,2.226,0.66,4.461,1.009,6.679l6.981,5.754
			l-4.463,1.17c-0.235,0.227-0.585,1.754-0.942,3.623c0.537,3.632,1.065,7.15,1.472,10.424c1.933-0.217,3.924-0.688,3.924-0.688
			c0.688-0.708,2.264-10.887,2.679-13.245L966.601,757.793z M993.676,747.368l-0.406-0.226c-2.99-3.17-13.82-10.32-13.82-10.32
			c-0.943-0.094-5.915,1.887-5.915,1.887l-1.934,0.697l14.812,9.736l-3.444,1.282c-0.659,0.944-2.697,13.82-2.697,13.82
			c1.396,1.18,6.734-0.942,6.734-0.942c0.585-0.689,2.396-11.472,2.688-13.35c1.812-0.585,4.397-1.528,4.397-1.528
			c0-0.226-0.236-0.585-0.529-0.942l0.095-0.114H993.676z M1010.09,739.652l0.094-0.133l-0.396-0.122
			c-3.17-3.047-14.528-9.622-14.528-9.622c-0.999,0-5.566,2.244-5.566,2.244l-1.697,0.821l15.414,8.905l-3.112,1.651
			c-0.52,0.943-0.17,13.717-0.17,13.717c1.528,0.924,6.34-1.538,6.34-1.538c0.527-0.944,0.226-10.896,0.169-13.358
			c1.698-0.566,3.981-1.632,3.981-1.632c-0.02-0.226-0.245-0.565-0.528-0.925V739.652z M1026.127,731.917
			c0-0.236-0.283-0.595-0.632-0.821l0.056-0.122h-0.132c-3.047-2.812-15.235-8.906-15.235-8.906
			c-0.99,0.123-5.141,2.453-5.141,2.453l-1.643,1.066l15.82,7.962l-2.867,1.642c-0.528,1.037,0.943,13.706,0.943,13.706
			c1.509,0.718,6.085-1.857,6.085-1.857c0.405-0.943-0.661-10.896-0.878-13.245c1.604-0.726,3.632-1.887,3.632-1.887
			L1026.127,731.917z M1019.524,716.087l-1.302,1.161l16.112,6.226l-2.642,2.227c-0.227,1.169,4.282,13.113,4.282,13.113
			c1.633,0.471,5.265-2.566,5.265-2.566c0.236-1.038-3.17-10.312-3.98-12.642c1.339-0.943,3.169-2.584,3.169-2.584
			s-0.302-0.473-0.66-0.708h-0.047c-3.207-2.472-15.802-7.264-15.802-7.264C1022.863,713.266,1019.524,716.087,1019.524,716.087
			L1019.524,716.087z M1049.39,727.69c1.642,0.472,5.264-2.698,5.264-2.698c0.058-0.349-0.282-1.755-0.877-3.52l-3.264-3.518
			c-1-1.057-2.048-1.981-3.113-2.925c-0.396-0.471-0.868-0.942-1.283-1.292l-0.943,0.707c-0.217,1.292,4.227,13.245,4.227,13.245
			H1049.39z M1031.693,706.125l10.726,4.104c-0.942-0.82-1.934-1.632-2.867-2.452c-0.585-0.472-1.113-0.944-1.642-1.537
			c-0.595-0.473-1.132-0.944-1.717-1.416c-0.528-0.34-0.991-0.802-1.528-1.273c-0.877,0.698-1.698,1.415-1.698,1.415l-1.282,1.17
			L1031.693,706.125z"/>
		<path fill="#D50032" d="M1040.494,1015.585c-1.698,0.585-5.632,14.877-5.632,14.877c0.123,0.349,0.585,0.942,1.18,1.528
			c0.472-0.472,0.942-0.821,1.472-1.293c0.632-0.472,1.282-1.179,1.933-1.642c0.236-0.245,0.473-0.472,0.708-0.595
			c0.708-0.707,1.415-1.282,2.113-1.867l1.51-5.52l2.358,1.869c0.755-0.708,1.509-1.528,2.282-2.236
			c0.943-0.943,1.935-1.867,2.868-2.812c0.943-0.943,1.812-1.98,2.764-2.924c-4.34,1.179-9.499,2.812-10.849,3.169
			c-1.075-1.179-2.707-2.584-2.707-2.584V1015.585z"/>
	</g>
</g>
</svg>
