<?xml version="1.0" encoding="utf-8"?>
<!-- Generator: Adobe Illustrator 16.0.3, SVG Export Plug-In . SVG Version: 6.00 Build 0)  -->
<!DOCTYPE svg PUBLIC "-//W3C//DTD SVG 1.0//EN" "http://www.w3.org/TR/2001/REC-SVG-20010904/DTD/svg10.dtd">
<svg version="1.0" id="MLB_-_Baltimore_Orioles" xmlns="http://www.w3.org/2000/svg" xmlns:xlink="http://www.w3.org/1999/xlink"
	 x="0px" y="0px" width="1800px" height="1800px" viewBox="0 0 1800 1800" enable-background="new 0 0 1800 1800"
	 xml:space="preserve">
<g>
	<g>
		<path d="M768.985,476.863c7.036-1.467,10.943-3.999,15.383-10.823c7.182-11.054,8.595-29.417,8.438-42.892
			c-0.138-16.603-3.458-38.49-8.292-53.634c-23.207,13.19-42.975,13.393-64.164,0.092c-4.889,16.906-4.678,35.958,0.092,52.744
			c7.183,24.73,25.647,58.918,48.552,54.524 M749.154,361.213c10.163,4.007,20.271,4.311,32.434-1.854
			c-8.108-27.748-23.445-60.761-40.728-60.669c-7.136,0.092-13.043,3.119-16.805,8.898c-4.98,7.521-5.32,18.841-0.981,29.096
			C727.662,347.444,737.531,356.828,749.154,361.213 M867.978,404.783c-1.321,2.734-0.972,5.871,0.917,7.916
			c1.962,2.055,4.797,2.542,7.576,1.468c2.936-1.192,4.587-2.935,5.569-5.577c0.972-2.137,1.467-5.559-0.203-9.577
			c-0.275-0.577-0.532-1.284-0.972-1.743c0,0-0.532-0.495-0.88-0.697c-6.275,1.963-10.274,4.678-11.998,8.209"/>
		<path d="M1661.682,323.907c-17.244-40.728-57.825-43.663-106.863-39.26c-42.341,3.89-61.687,5.266-323.157,63.293
			c-136.326,27.536-215.653,29.298-264.141,44.341c0,0-64.173-156.102-277.569-163.533c-27.39,0-72.282-5.467-95.324-28.326
			c-24.362-18.07-65.732-15.823-99.983,4.981c-26.711,14.264-48.139,36.527-53.615,57.632
			c-9.137,35.747-22.015,34.086-72.429,75.796c-61.604,50.89-202.747,163.221-54.321,446.202l-14.163-28.326
			c0,0,108.909-12.613,222.716-65.953L320.875,797.361h0.147C176.11,881.366,154.811,978.744,154.811,978.744l67.054-4.293
			c-9.173,18.162-18.658,77.648-18.658,104.616c-1.807,152.874,44.929,278.578,138.895,373.728
			c102.616,103.836,256.655,163.221,422.499,163.423c116.551,0,227.853-30.49,314.004-85.289
			c39.718-25.409,73.502-55.862,100.653-90.353c-332.605,206.894-636.776,30.767-698.014-145.141
			c-59.76-171.531,47.975-305.161,183.942-272.065c191.308,46.506,291.42,20.235,321.947-73.245
			c24.189,8.403,78.446,7.32,111.469-9.668c49.423-25.574,165.569-67.292,331.275-35.838
			c-207.122,114.779-193.161,262.663-425.288,323.616c-263.149,68.961-475.702-107.937-321.717-143.096
			c35.709-6.649,40.69-30.086,1.806-22.969c-92.26,5.073-210.607,53.322-99.928,236.971c0,0,15.869,6.256,22.565,0.092
			c0,0-42.397-93.086-9.87-120.531c149.15,143.188,478.729,168.486,686.153-106.771c69.254-91.912,151.306-146.031,229.797-177.476
			c-126.217-30.179-267.645-33.609-346.136-10.063c-9.228-125.135-16.694-159.038-40.452-212.167
			c-10.549-23.547-12.594-37.792,41.773-52.652c34.096-9.172,173.494-41.8,293.199-96.405
			c85.307-38.893,143.536-81.858,159.359-97.581c11.833-11.649,57.697-61.853,40.544-101.699 M478.39,289.215
			c26.785-99.158,104.827-39.378,104.827-39.378L478.4,289.206L478.39,289.215z M851.723,388.649
			c0.249-6.65,0.734-14.659,2.404-19.354l10.971-8.1l0.88-0.486l0.203,1.165c0.679,2.844,2.054,5.468,4.293,7.43l3.421,2.734
			l9.576,8.108c3.945,3.798,6.238,6.531,6.879,8.586l1.175,4.1l0.395,1.762c1.669,9.576-2.972,18.758-11.714,23.538
			c-4.101,2.357-8.806,2.256-11.769,1.192c-2.238-0.881-5.082-3.32-6.201-6.641c-1.651-5.082,0.78-14.952,14.402-20.125
			c0,0,0.642-0.293,1.321-0.487c-0.579-0.495-1.12-0.789-1.12-0.789c-4.201-2.935-11.833-9.173-14.75-13.869l-0.734-1.266
			c-0.238,0.687-0.441,1.375-0.441,1.375c-0.642,2.045-1.173,4.586-1.614,7.999l-0.733,11.814l-0.249,3.229l-0.642,11.136
			l-1.797,12.107c-3.266,14.659-9.127,23.456-17.814,27.06l-1.118,0.596l2.238-12.2h0.248c6.972-4.495,9.173-14.374,10.549-28.83
			l1.743-21.813V388.649z M835.946,352.508c1.771-3.715,2.89-5.274,4.404-5.871c0.349-0.184,0.88-0.478,1.421-0.478
			c-1.375,5.083-1.375,5.669-1.706,8.898c3.083-0.403,4.743,0.275,5.375,2.045c1.192,2.541,0.248,7.521-1.798,10.732
			c-0.88,1.559-1.807,2.257-3.229,2.936c-3.797,1.559-5.852,1.651-6.438,0.202c-1.633-3.715-0.661-12.704,1.981-18.465
			 M699.061,338.629c-5.082-14.062-2.449-30.178,5.66-41.901c7.732-11.236,19.795-17.483,33.995-18.162
			c24.372-1.283,47.093,22.07,64.576,68.081c3.853-4.101,7.761-9.476,10.054-15.043l9.383,3.421
			c-3.761,8.393-9.769,17.18-15.63,21.868c11.493,31.462,14.035,80.097-1.102,111.662c-7.09,14.456-17.391,24.215-30.774,28.802
			c-10.732,3.623-24.52,2.844-35.407-3.513c-18.657-10.732-33.508-31.646-43.021-60.568c-9.301-27.932-10.365-63.778,2.293-94.646
			 M872.701,994.944c-32.526,10.75-70.813-11.319-98.79-51.965c16.648,12.796,35.351,16.998,49.624,8.897
			c22.603-12.512,25.684-50.413,6.697-84.5c-18.915-34.187-52.652-51.771-75.217-39.167c-8.311,4.495-14.034,12.594-16.851,22.565
			c-8.897-59.88,9.081-112.046,46.745-124.346c45.333-14.86,101.69,33.205,125.97,107.532
			c24.198,74.135,7.201,146.215-38.159,160.983 M1052.389,921.469c-30.675,8.108-64.614-11.925-89.867-48.433
			c12.696,8.292,26.418,10.732,37.701,5.266c21.482-10.255,26.279-45.039,10.549-77.556c-15.686-32.426-45.719-50.497-67.209-40.04
			c-7.706,3.714-13.182,10.365-16.466,19.042c-8.925-64.466,12.173-120.641,52.651-131.381
			c46.021-12.402,99.59,38.983,119.705,114.385c19.997,75.399-0.953,146.416-47.057,158.727 M832.332,629.15
			c-107.157-14.457-176.705-13.667-107.744-59.192c0,0,160.295-124.842,341.54-145.554
			c168.102-21.006,435.011-80.189,435.011-80.189s-131.473,79.813-260.653,169.982c-141.354,84.39-244.548,118.567-408.163,114.935
			 M1336.304,510.739c0,0,262.123-182.851,271.745-169.761C1631.623,373.311,1499.232,455.454,1336.304,510.739"/>
	</g>
	<path fill="#FFFFFF" d="M300.126,756.725l14.163,28.317l6.302,12.401l0.293-0.092l201.949-106.588
		c-113.834,53.441-222.716,65.953-222.716,65.953 M784.872,726.455c-37.608,12.292-55.679,64.458-46.754,124.328
		c2.936-9.96,8.53-18.07,16.841-22.564c22.564-12.594,56.302,4.99,75.217,39.168c19.033,34.196,15.869,72.006-6.751,84.5
		c-14.218,8.099-32.931,3.898-49.57-8.897c27.977,40.728,66.228,62.622,98.901,51.973c45.268-14.74,62.265-86.83,38.048-160.964
		c-24.271-74.345-80.628-122.412-125.942-107.551 M979.73,648.395c-40.488,10.732-61.586,66.916-52.605,131.382
		c3.284-8.696,8.741-15.438,16.419-19.043c21.464-10.365,51.515,7.613,67.2,40.04c15.723,32.526,10.934,67.31-10.549,77.556
		c-11.283,5.466-25.005,3.027-37.7-5.274c25.243,36.525,59.183,56.468,89.866,48.45c46.111-12.31,67.054-83.316,47.093-158.726
		c-20.135-75.4-73.703-126.676-119.705-114.385"/>
	<g>
		<path fill="#DF4601" d="M1312.722,1562.007h-18.896v51.459h-12.906v-51.459h-18.942v-11.246h50.745v11.236V1562.007z
			 M1398.871,1613.466h-12.934v-50.01h-0.247l-18.254,50.01h-12.319l-17.611-50.01h-0.404v50.01h-12.805v-62.705h22.226
			l14.649,41.121h0.34l15.244-41.121h22.107v62.705H1398.871z"/>
		<path fill="#DF4601" d="M1745.723,269.594c-16.145-38.681-55.036-73.841-117.448-84.793
			c-98.607-9.962-264.452,31.169-430.131,65.549c-59.046,12.401-182.814,28.527-182.814,28.527
			C918.63,166.236,808.3,136.149,738.311,127.068c-39.699-5.367-58.706-1.358-75.061-6.733
			c-14.558-9.668-59.045-47.369-141.812-34.673c0,0-76.546,9.861-136.216,71.787c-11.832,11.924-33.113,39.663-42.993,68.566
			c-14.952,13.686-26.968,16.602-60.852,49.441C68.66,455.748,155.71,690.773,189.979,768.926
			C-1.943,918.479,39.857,1091.965,39.857,1091.965l59.183-9.577c-4.339,770.699,1112.568,826.378,1246.841,237.558
			c48.688-213.635,88.003-310.022,280.184-360.336c38.828-10.641,54.164-36.324,52.798-55.568
			c-8.292-75.722-173.036-159.038-421.142-135.391c-14.74-49.441-15.961-68.475-15.961-68.475
			c125.558-28.325,297.565-84.207,416.996-179.631c95.187-76.199,130.115-148.288,86.985-250.95 M1461.797,523.186
			c-119.705,54.597-259.04,87.215-293.236,96.406c-54.303,14.842-52.266,29.096-41.708,52.652
			c23.795,53.111,31.279,87.023,40.452,212.048c78.492-23.446,219.964-20.025,346.136,10.163
			c-78.537,31.445-160.543,85.674-229.798,177.494c-207.516,275.248-537.003,249.959-686.152,106.753
			c-32.472,27.445,9.87,120.531,9.87,120.531c-6.641,6.256-22.52-0.092-22.52-0.092c-110.669-183.64,7.577-231.797,99.836-236.979
			c38.93-7.127,33.995,16.328-1.761,22.96c-153.984,35.177,58.523,212.075,321.718,143.114
			c232.137-60.953,218.222-208.838,425.343-323.617c-165.752-31.444-281.907,10.274-331.376,35.958
			c-32.931,16.877-87.233,17.978-111.413,9.566c-30.519,93.472-130.639,119.852-321.993,73.254
			c-135.913-33.095-243.703,100.534-183.877,272.065c61.247,175.906,365.371,352.126,698.013,145.232
			c-27.151,34.399-60.944,64.853-100.653,90.17c-86.151,54.881-197.555,85.361-313.985,85.361
			c-165.872-0.211-319.947-59.596-422.518-163.432c-93.966-95.141-140.71-220.854-138.849-373.626c0-26.95,9.43-86.537,18.622-104.9
			l-67.072,4.494c0,0,21.245-97.388,166.12-181.383H320.6l-6.146-12.411c-148.535-282.889-7.43-395.202,54.302-446.101
			c50.249-41.709,63.146-40.049,72.328-75.795c5.375-21.097,26.858-43.36,53.625-57.724c34.242-20.704,75.611-22.96,99.983-4.981
			c23.098,22.959,67.971,28.435,95.233,28.435c213.47,7.412,277.605,163.515,277.605,163.515
			c48.542-15.044,127.868-16.805,264.177-44.351c261.479-58.027,280.825-59.394,323.158-63.292
			c48.955-4.404,89.682-1.468,106.862,39.259c17.153,39.856-28.711,89.967-40.581,101.69
			c-15.804,15.722-74.061,58.706-159.33,97.599"/>
		<path fill="#DF4601" d="M478.436,289.224l104.717-39.37c0,0-78.006-59.77-104.726,39.37 M1066.128,424.413
			c-181.254,20.712-341.54,145.352-341.54,145.352c-68.961,45.81,0.587,44.828,107.744,59.486
			c163.661,3.522,266.764-30.482,408.098-115.063c129.245-90.169,260.709-169.973,260.709-169.973s-266.909,59.193-435.011,80.189
			 M1336.314,510.757c162.927-55.284,295.328-137.436,271.744-169.761C1598.427,327.906,1336.314,510.757,1336.314,510.757"/>
		<path fill="#DF4601" d="M739.742,493.869c10.934,6.348,24.702,7.137,35.452,3.514c13.392-4.495,23.684-14.356,30.821-28.895
			c15.089-31.463,12.566-80.106,1.073-111.569c5.907-4.769,11.97-13.484,15.63-21.876l-9.383-3.431
			c-2.293,5.568-6.256,10.943-10.054,15.044c-17.483-46.204-40.195-69.347-64.577-68.09c-14.163,0.688-26.271,7.045-33.985,18.162
			c-8.164,11.741-10.732,27.849-5.66,41.92c-12.659,30.858-11.484,66.705-2.293,94.756c9.558,28.802,24.362,49.716,42.965,60.449
			 M724.002,307.579c3.806-5.76,9.723-8.898,16.896-8.898c17.336-0.091,32.582,32.931,40.727,60.761
			c-12.255,6.054-22.418,5.871-32.471,1.761c-11.531-4.403-21.557-13.777-26.088-24.519c-4.348-10.255-4-21.492,0.936-29.114
			 M720.332,369.596c21.189,13.283,40.911,13.09,64.21,0c4.797,15.044,8.118,36.921,8.319,53.533
			c0.092,13.484-1.321,31.83-8.503,42.883c-4.44,6.825-8.348,9.356-15.383,10.824c-22.904,4.402-41.369-29.692-48.551-54.505
			c-4.77-16.695-5.026-35.848-0.092-52.743"/>
		<path fill="#DF4601" d="M840.386,370.788c1.421-0.779,2.349-1.375,3.229-2.935c2.055-3.302,2.981-8.191,1.798-10.731
			c-0.642-1.762-2.294-2.44-5.375-2.055c0.339-3.211,0.339-3.806,1.707-8.898c-0.55,0-1.074,0.313-1.413,0.496
			c-1.522,0.486-2.642,2.146-4.402,5.871c-2.642,5.75-3.615,14.639-2,18.456C834.533,372.458,836.589,372.348,840.386,370.788
			 M839.414,439.163l-0.248,0.202l-2.248,12.108l1.12-0.577c8.741-3.624,14.557-12.412,17.823-27.061l1.762-12.217l0.679-11.035
			l0.247-3.229l0.825-11.814c0.349-3.422,0.891-5.962,1.523-8.008c0,0,0.183-0.679,0.43-1.266c0.339,0.485,0.734,1.174,0.734,1.174
			c2.935,4.678,10.604,10.943,14.75,13.777c0,0,0.551,0.395,1.119,0.881c-0.679,0.202-1.312,0.485-1.312,0.485
			c-13.63,5.173-16.07,14.952-14.401,20.125c1.101,3.32,4.036,5.66,6.191,6.641c2.972,1.082,7.659,1.284,11.76-1.174
			c8.741-4.77,13.392-13.961,11.723-23.538l-0.395-1.762l-1.173-4.1c-0.642-2.055-2.936-4.77-6.898-8.595l-9.576-8.109l-3.421-2.734
			c-2.229-1.962-3.605-4.586-4.193-7.43l-0.293-1.174l-0.871,0.587l-11.081,8.008c-1.522,4.678-2.055,12.694-2.293,19.336
			l-1.761,21.785c-1.358,14.447-3.559,24.309-10.549,28.711 M880.847,397.261c0.458,0.477,0.752,1.174,0.936,1.743
			c1.706,4.018,1.219,7.43,0.339,9.586c-1.073,2.642-2.733,4.402-5.659,5.568c-2.78,1.082-5.624,0.587-7.568-1.468
			c-1.899-2.136-2.247-5.173-0.917-7.907c1.697-3.522,5.66-6.256,12.053-8.209c0.293,0.202,0.826,0.688,0.826,0.688"/>
	</g>
</g>
</svg>
