<?xml version="1.0" encoding="utf-8"?>
<!-- Generator: Adobe Illustrator 16.0.3, SVG Export Plug-In . SVG Version: 6.00 Build 0)  -->
<!DOCTYPE svg PUBLIC "-//W3C//DTD SVG 1.0//EN" "http://www.w3.org/TR/2001/REC-SVG-20010904/DTD/svg10.dtd">
<svg version="1.0" id="MLB_-_Philadelphia_Phillies"
	 xmlns="http://www.w3.org/2000/svg" xmlns:xlink="http://www.w3.org/1999/xlink" x="0px" y="0px" width="1800px" height="1800px"
	 viewBox="0 0 1800 1800" enable-background="new 0 0 1800 1800" xml:space="preserve">
<g>
	<path fill="#E81828" d="M1097.459,1634.317h-23.619v64.389h-16.041v-64.389h-23.583v-14.032h63.243V1634.317z M1204.867,1698.706
		h-16.041v-62.441h-0.352l-22.774,62.434h-15.465l-21.967-62.434h-0.422v62.434h-15.936v-78.413h27.695l18.263,51.273h0.422
		l18.979-51.273h27.598v78.413V1698.706z"/>
	<path fill="#FFFFFF" d="M1530.763,441.776c-11.296-171.277-156.516-301.279-292.449-352.151
		c-43.863-13.826-89.049-28.075-132.904-37.361c-144.44-31.267-302.565-14.129-432.771,23.127
		c-178.722,50.66-351.285,190.559-422.725,372.887c-28.328,74.701-35.133,175.502,1.237,256.39
		c43.597,93.491,140.475,128.145,224.096,128.145c92.612,0,154.464-68.508,189.702-130.514v368.55l-1.968,249.795
		c-14.39,18.065-31.674,36.435-45.761,55.723c-32.237,49.627-75.826,117.411-78.617,199.443c0,24.252,1.386,65.937,23.366,100.591
		c29.819,53.459,87.291,76.367,129.692,84.311c53.451,8.45,106.635-0.315,150.801-15.887
		c98.13-37.156,185.829-130.219,202.432-241.753l0.718-3.923l2.073-475.256c36.883-14.551,74.182-29.088,110.959-45.29
		c46.956-20.948,94.475-44.672,139.604-74.393c162.097-95.424,252.017-270.828,232.51-462.427L1530.763,441.776z M1202.758,562.19
		c-10.164,50.963-63.243,100.906-123.393,121.433c-9.912,3.613-20.224,6.298-31.268,8.674l1.702-316.554
		c62.111-1.026,110.094,17.434,133.052,54.07l14.079,33.53c3.656,17.236,7.22,34.782,8.661,52.426
		C1207.251,533.2,1206.21,549.508,1202.758,562.19z"/>
	<path fill="#E81828" d="M1489.909,444.764c-9.35-152.496-143.772-270.947-264.656-316.237l-0.772-0.31
		c-37.096-11.761-83.32-26.627-127.738-35.899C931.2,56.412,766.924,90.983,683.767,114.714
		c-177.092,50.246-332.49,186.953-395.79,348.319c-28.005,73.668-27.85,161.675,0.352,224.625
		c30.55,65.316,100.401,104.42,186.911,104.42c69.802,0,133.881-54.056,171.433-144.755c0.562-1.336,4.287-13.314,4.287-13.314
		c6.088-19.189,12.33-38.893,12.33-61.282v-15.373h-15.324c-10.009,0-21.144-3.923-31.772-7.626l-7.592-2.587
		c-3.396-2.58-7.311-10.825-7.311-16.399c8.034-46.64,46.464-92.971,104.563-127.542v668.191c0,0-2.166,252.58-2.222,262.793
		c-4.288,5.567-24.195,30.121-24.195,30.121l-28.223,35.076c-31.112,47.47-69.134,105.975-71.713,176.95v0.106
		c0,24.884,2.109,55.518,17.995,79.656c16.87,31.583,53.817,55.405,100.921,64.39c41.213,6.396,85.899,1.546,129.846-14.03
		c91.931-34.775,162.611-118.867,176.227-209.357c0.26-2.164,2.123-456.135,2.319-498.966c0.773-1.335,0.929-1.447,1.758-2.986
		c4.956-1.863,12.021-4.64,12.021-4.64c86.56-33.545,175.966-68.41,256.403-121.236c135.421-79.242,215.429-220.701,215.429-376.605
		c0-16.006-0.871-31.885-2.517-47.87L1489.909,444.764z M1242.741,571.068c-14.811,74.181-85.8,129.186-149.817,151.16
		c-27.034,9.7-56.853,14.037-86.109,18.065c0.268-32.708,2.271-402.923,2.271-403.219c2.84,0,25.538-1.659,25.538-1.659
		c50.823-2.988,142.345,3.199,184.999,76.359c1.139,2.58,17.131,40.658,17.131,40.658c4.794,23.921,10.685,51.575,10.685,79.13
		C1247.438,544.96,1246.102,558.161,1242.741,571.068z"/>
</g>
</svg>
