<?xml version="1.0" encoding="utf-8"?>
<!-- Generator: Adobe Illustrator 16.0.3, SVG Export Plug-In . SVG Version: 6.00 Build 0)  -->
<!DOCTYPE svg PUBLIC "-//W3C//DTD SVG 1.0//EN" "http://www.w3.org/TR/2001/REC-SVG-20010904/DTD/svg10.dtd">
<svg version="1.0" id="MLB_-_Texas_Rangers" xmlns="http://www.w3.org/2000/svg" xmlns:xlink="http://www.w3.org/1999/xlink"
	 x="0px" y="0px" width="1800px" height="1800px" viewBox="0 0 1800 1800" enable-background="new 0 0 1800 1800"
	 xml:space="preserve">
<g>
	<path fill="#003278" d="M340.923,532.582l-0.408,50.535H141.756l73.325,92.443h213.04l0.174-36.429
		c0-202.641,19.234-331.047,231.167-354.152v-26.87C430.684,258.902,341.028,335.048,340.923,532.582 M1026.645,887.189v445.464
		c0,23,5.293,45.429,67.73,45.429h31.545V928.864c0-91.08,126.133-125.9,126.133-125.9s-30.915-12.311-62.332-34.622l-54.475,15.481
		C1134.115,784.055,1026.645,815.473,1026.645,887.189 M1563.982,39.416v543.701h-147.548l78.897,98.703h162.912V138.795
		 M1026.645,628.08c0,55.221,79.971,98.599,110.828,110.442l30.052,11.716c-22.941-20.948-41.616-48.053-41.616-80.261V290.994
		l17.882,1.247c53.624,0,104.335,18.221,146.627,49.078c-56.585-52.599-145.542-80.833-263.772-81.742v368.491V628.08z
		 M517.998,1661.205v0.91L595.52,1764h701.215v-234.733l-83.233-96.757v228.695"/>
	<path fill="#C0111F" d="M146.769,535.427h147.466c0-1.48,0.292-2.506,0.292-3.649c0-3.649-0.279-5.013-1.189-1.609
		c0-221.42,113.659-319.879,368.374-319.879h45.44v417.801c0,68.406-46.209,108.706-83.327,131.706
		c37.397,21.054,83.351,58.753,83.351,127.276v441.699c0,59.768-42.549,96.872-111.129,96.872h-76.123v188.081h645.936v-188.045
		h-71.459c-95.335,0-115.373-50.442-115.373-93.026V887.084c0-68.312,53.683-107.015,95.638-128.079
		c-41.442-24.691-95.626-67.264-95.626-130.914V233.978l17.719-22.884h23.84c246.811,0,388.424,112.145,388.424,307.709
		c0,0-0.047,8.767-0.232,16.624h107.598V36H146.769V535.427z"/>
	<path fill="#003278" d="M1327.931,1679.308h25.04v68.079h16.857v-68.079h24.76v-14.688h-66.646 M1458.844,1718.699h-0.467
		l-19.281-54.09h-29.213v82.768h16.902v-65.911h0.397l23.058,65.922h16.39l23.969-65.922h0.35v65.922h16.949v-82.767h-29.144"/>
</g>
</svg>
