<?xml version="1.0" encoding="utf-8"?>
<!-- Generator: Adobe Illustrator 16.0.3, SVG Export Plug-In . SVG Version: 6.00 Build 0)  -->
<!DOCTYPE svg PUBLIC "-//W3C//DTD SVG 1.0//EN" "http://www.w3.org/TR/2001/REC-SVG-20010904/DTD/svg10.dtd">
<svg version="1.0" id="MLB_-_Tamapa_Bay_Rays" xmlns="http://www.w3.org/2000/svg" xmlns:xlink="http://www.w3.org/1999/xlink"
	 x="0px" y="0px" width="1800px" height="1800px" viewBox="0 0 1800 1800" enable-background="new 0 0 1800 1800"
	 xml:space="preserve">
<g>
	<path fill="#092C5C" d="M1697.746,1543.719h-14.77v39.916h-9.943v-39.916h-14.551v-8.528h39.275v8.528H1697.746z M1764,1583.635
		h-9.833v-38.623h-0.266l-14.141,38.623h-9.534l-13.545-38.623h-0.33v38.623h-9.877v-48.444h17.211l11.38,31.618h0.056l11.82-31.618
		h17.036v48.444H1764z"/>
	<path fill="#8FBCE6" d="M457.692,229.202H206.4l-1.182,0.553C115.787,264.997,85.25,388.334,79.175,417.677
		c0,0.11-0.111,0.663-0.111,0.884l-38.999-2.166L36,449.097l71.645,3.755l2.905-14.141c4.806-23.621,33.176-142.295,114.676-175.736
		H457.67v-33.773H457.692z M1097.411,590.309v974.555h0.442c7.479,0,49.715,0.111,102.634,0.111c-22.162,0-55.173,0-69.523-0.111
		V622.878c14.781-0.441,42.611-1.083,42.611-1.083c1.934-0.111,97.143-4.418,160.744,55.792
		c37.706,35.795,57.283,87.498,58.476,153.84c0.111-3.558,0.166-7.225,0.166-10.794c0-245.978-236.068-232.6-236.068-232.6
		c-12.462,0-39.374,0-53.559,1.625l-5.933,0.663L1097.411,590.309z M1166.682,1056.601v63.746l15.467,1.215
		c28.392,2.364,274.691,27.51,279.541,216.094c0.166-3.889,0.275-7.556,0.275-11.335c0-211.034-271.829-236.488-295.239-238.322
		v-31.397h-0.066H1166.682z M846.728,1173.123c0,0-144.041-26.217-167.286-30.426V262.655h232.777
		c76.118,31.597,109.66,168.302,118.122,209.621l2.872,14.141l71.623-3.778l-40.601-345.354h-29.995l36.79,312.541l-3.835,0.332
		l-7.335,0.441l-28.061,1.393c-5.856-28.149-39.419-186.531-129.612-222.458l-1.139-0.441H647.57v910.798
		c0,0,157.044,28.592,167.451,30.426v50.156H291.534l-0.111,33.674h555.304V1173.123z M909.402,609.621
		c0,0-164.059-26.957-174.444-28.703v-50.267h-0.111v81.455c0,0,150.658,24.802,174.445,28.57l0.11-31.067V609.621z
		 M1608.36,1141.294c-54.268-53.096-126.342-74.793-179.261-83.742c74.539-36.899,184.752-116.73,184.752-266.803
		c0-177.471-119.604-260.12-376.375-260.12h-14.03c236.819,0.553,356.952,71.325,356.952,243.294
		c0,215.133-238.963,276.945-238.963,276.945v0.331c0,0,308.232-7.336,308.232,267.245c0,209.189-134.054,310.597-363.747,310.597
		H734.957v-47.583c-0.111,0.111-0.221,0.111-0.221,0.111l0.11,14.03v67.093h567.766c245.371,0,380.563-116.3,380.563-327.433
		c0-80.273-25.135-145.444-74.815-193.999"/>
	<path fill="#092C5C" d="M734.957,1629.174h550.984c229.684,0,363.748-101.529,363.748-310.729
		c0-274.569-308.232-267.245-308.232-267.245v-0.331c0,0,238.962-61.802,238.962-276.935c0-171.969-120.133-242.751-356.952-243.183
		c-0.961-0.111-1.769-0.111-2.586-0.111H734.968v50.278c10.407,1.735,174.444,28.703,174.444,28.703v938.837h-0.11
		c-4.419,0.663-164.192,28.592-174.334,30.426v50.278L734.957,1629.174z M1392.961,820.644c0,3.568-0.044,7.236-0.154,10.793
		c-7.623,201.103-226.037,223.54-226.037,223.54v33.021c23.366,1.834,295.196,27.288,295.196,238.322
		c0,3.779-0.11,7.446-0.276,11.324c-4.42,114.256-78.66,227.33-255.756,227.33h-5.435c-52.919,0-95.166-0.111-102.656-0.111h-0.441
		V590.298l5.943-0.663c14.186-1.602,41.098-1.602,53.56-1.602c0,0,236.068-13.367,236.068,232.611"/>
	<path fill="#092C5C" d="M291.534,1170.316v50.156h523.463v-50.156c-10.384-1.834-167.373-30.426-167.373-30.426V229.003h253.369
		l0.055,0.11l1.215,0.42c90.128,35.927,123.68,194.408,129.558,222.458l28.104-1.404l7.292-0.441l3.834-0.331l-36.812-312.42v-0.111
		l-960.899,0.442L40.043,416.384l38.998,2.154c0-0.221,0.111-0.663,0.111-0.884c6.076-29.332,36.624-152.657,126.121-187.922
		l1.126-0.552h251.292v910.688c0,0-154.116,28.592-166.158,30.426"/>
</g>
</svg>
