<?xml version="1.0" encoding="utf-8"?>
<!-- Generator: Adobe Illustrator 16.0.3, SVG Export Plug-In . SVG Version: 6.00 Build 0)  -->
<!DOCTYPE svg PUBLIC "-//W3C//DTD SVG 1.0//EN" "http://www.w3.org/TR/2001/REC-SVG-20010904/DTD/svg10.dtd">
<svg version="1.0" id="MLB_-_Boston_Red_Sox" xmlns="http://www.w3.org/2000/svg" xmlns:xlink="http://www.w3.org/1999/xlink"
	 x="0px" y="0px" width="1800px" height="1800px" viewBox="0 0 1800 1800" enable-background="new 0 0 1800 1800"
	 xml:space="preserve">
<g>
	<path fill="#FFFFFF" d="M1391.077,1054.276c-19.958-70.946-42.219-119.844-79.87-154.232
		c37.632-34.179,59.921-83.163,79.86-154.225c24.612-87.507,36.941-151.748,132.548-194.686
		c-143.409-65.977-157.092-146.328-196.797-252.451c-43.764-116.889-185.897-262.688-391.494-262.688
		c-86.309,0-166.141,26.292-231.024,70.717C658.82,63.696,597.928,37.195,530.916,37.195
		C390.317,37.184,276.375,153.124,276.375,295.9c0,52.659,15.352,101.661,41.796,142.441
		c15.486-64.02,64.307-113.128,115.949-112.378c53.925,0.767,98.859,52.351,98.926,116.697l-0.125,260.01
		c0,95.185-97.295,170.891-223.28,197.373c125.985,26.627,223.28,102.333,223.28,197.403l0.115,260.125
		c-0.067,64.24-45.002,115.814-98.926,116.678c-51.642,0.768-100.462-48.456-115.949-112.36
		c-26.435,40.752-41.787,89.754-41.787,142.202c0,142.987,113.942,258.82,254.541,258.82c67.003,0,127.904-26.291,173.385-69.536
		c64.893,44.454,144.696,70.62,231.014,70.62c205.596,0,347.73-145.463,391.532-262.716
		c39.686-105.76,53.349-186.243,196.778-252.315c-95.616-42.719-107.945-106.968-132.558-194.688 M1062,1337.431
		c0,57.666-54.837,105.681-122.435,105.681c-45.673,0-84.15-16.887-106.526-44.569v-310.74
		c22.386-27.788,60.833-43.467,106.536-43.467c67.579,0,122.415,46.729,122.415,104.473c0,37.854-32.72,71.715-70.409,94.321
		c37.709,22.597,70.409,56.554,70.409,94.302 M1061.99,650.108c0,57.763-54.836,104.492-122.435,104.492
		c-45.673,0-84.15-15.688-106.525-43.37V400.469c22.385-27.797,60.833-43.254,106.535-43.254
		c67.579,0,122.416,46.613,122.416,104.261c0,37.854-32.72,71.811-70.409,94.302c37.708,22.712,70.409,56.574,70.409,94.322"/>
	<path fill="#0D2B56" d="M935.535,277.18c-78.901,0-147.421,39.148-182.146,96.585v364.042
		c34.735,57.456,103.245,96.509,182.146,96.509c113.896,0,206.144-81.559,206.144-181.925c0-35.473-11.456-68.567-31.415-96.585
		c19.959-28.019,31.424-61.217,31.424-96.69c0-100.462-92.247-181.926-206.133-181.926 M1090.574,652.391
		c0,71.925-69.564,130.657-155.039,130.657c-55,0-103.456-24.122-130.974-60.68V389.128c27.519-36.462,75.975-60.67,130.974-60.67
		c85.493,0,155.04,58.502,155.04,130.648c0,38.285-19.526,72.674-50.683,96.691c31.156,23.68,50.683,58.29,50.683,96.575"/>
	<path fill="#0D2B56" d="M1372.913,1095.814c-15.64-46.076-21.042-134.65-109.404-195.867
		c88.353-61.122,93.774-149.685,109.404-195.646c25.571-74.651,42.449-120.497,96.739-152.832
		c-193.439-112.044-100.04-213.83-260.49-374.328C1070.569,38.586,852.739,27.552,701.749,144.258
		c-41.74-46.94-102.419-76.35-170.027-76.35c-125.669,0-227.55,101.882-227.55,227.55c0,27.155,4.654,53.225,13.472,77.462
		c21.742-45.001,64.843-75.707,114.538-75.707c71.388,0,129.305,63.482,129.305,141.462v258.908
		c0,27.154-9.077,147.747-164.231,202.362c155.154,54.837,164.231,175.324,164.231,202.459v258.82
		c0,78.201-57.917,141.367-129.305,141.367c-49.704,0-92.786-30.398-114.528-75.496c-8.809,24.219-13.462,50.395-13.462,77.434
		c0,125.669,101.882,227.551,227.56,227.551c67.588,0,128.269-29.524,170.027-76.349c150.98,116.581,368.801,105.547,507.414-32.989
		c160.451-160.277,67.051-262.17,260.49-374.328c-54.289-32.125-71.178-77.989-96.748-152.611 M1272.663,1418.328
		c-18.164,53.541-35.464,104.146-99.656,168.301c-130.273,130.321-346.368,125.984-476.757-4.318
		c-27.951,60.766-93.438,98.639-164.5,98.639c-86.213,0-158.187-62.196-173.385-144.072c22.395,11.034,47.535,17.003,73.815,17.003
		c99.455,0,180.458-86.424,180.458-192.633v-258.812c0-44.887-17.243-136.28-105.835-202.459
		c88.592-66.303,105.835-157.486,105.835-202.362V438.648c0-105.988-81.003-192.412-180.458-192.412
		c-26.291,0-51.43,6.045-73.815,16.657c15.199-81.655,87.172-143.832,173.385-143.832c71.062,0,136.54,37.843,164.5,98.514
		c130.398-130.226,346.483-134.544,476.757-4.221c64.192,64.134,81.492,114.662,99.665,168.3
		c19.689,57.533,39.917,116.812,113.8,175.208c-29.908,37.104-45.05,81.655-61.86,130.878c-3.685,10.593-6.486,22.261-9.691,34.284
		c-8.972,35.473-44.445,128.93-121.015,177.923c76.569,49.224,112.054,142.45,121.024,177.925c3.205,12.224,6.006,23.7,9.69,34.293
		c16.812,49.319,31.952,93.984,61.852,130.974c-73.883,58.493-94.11,117.657-113.8,175.209"/>
	<path fill="#0D2B56" d="M935.535,965.703c-78.901,0-147.421,39.149-182.146,96.365v364.272
		c34.735,57.427,103.245,96.479,182.146,96.479c113.896,0,206.144-81.56,206.144-181.925c0-35.475-11.456-68.568-31.415-96.586
		c19.959-28.238,31.424-61.217,31.424-96.7c0-100.463-92.247-181.925-206.133-181.925 M1090.594,1340.885
		c0,72.031-69.565,130.658-155.04,130.658c-55,0-103.455-24.228-130.974-60.68v-333.242c27.52-36.538,75.975-60.66,130.974-60.66
		c85.494,0,155.04,58.512,155.04,130.657c0,38.285-19.526,72.675-50.683,96.691
		C1071.068,1268.105,1090.594,1302.706,1090.594,1340.885 M1214.084,1667.199h8.223v22.606h5.249v-22.606h8.281v-4.434h-21.743
		 M1256.332,1682.023l-7.369-19.258h-7.619v27.039h4.865v-20.984h0.162l8.003,20.995h3.742l7.993-20.985h0.153v20.994h4.798v-27.039
		h-7.446"/>
	<path fill="#BD3039" d="M1314.939,1077.861c-9.019-35.474-44.55-128.815-121.072-177.914
		c76.522-49.108,112.044-142.45,121.072-177.923c3.091-11.995,5.95-23.576,9.634-34.293c16.754-49.205,32.067-93.765,61.813-130.878
		c-73.816-58.502-94.052-117.667-113.732-175.209c-18.163-53.637-35.464-104.251-99.598-168.299
		c-130.332-130.303-346.482-125.985-476.757,4.24c-28.017-60.669-93.496-98.523-164.558-98.523
		c-86.165,0-158.186,62.177-173.385,143.832c22.395-10.593,47.534-16.763,73.815-16.763c99.454,0,180.39,86.424,180.39,192.518
		v258.937c0,45.001-17.175,136.156-105.758,202.362c88.583,66.303,105.768,157.582,105.768,202.459v258.82
		c0,106.22-80.945,192.635-180.39,192.635c-26.291,0-51.43-5.95-73.825-16.984c15.199,81.866,87.22,144.053,173.385,144.053
		c71.062,0,136.541-37.854,164.558-98.639c130.274,130.437,346.425,134.649,476.757,4.318
		c64.134-64.135,81.435-114.76,99.598-168.301c19.689-57.523,39.916-116.678,113.742-175.208
		c-29.745-36.979-45.049-81.655-61.813-130.975c-3.685-10.574-6.544-22.04-9.633-34.255 M1141.669,1340.885
		c0,100.367-92.306,181.926-206.134,181.926c-78.901,0-147.421-39.053-182.146-96.479v-364.272
		c34.735-57.217,103.245-96.365,182.146-96.365c113.828,0,206.144,81.444,206.144,181.926c0,35.474-11.456,68.452-31.415,96.69
		c19.959,27.903,31.424,61.103,31.424,96.576 M1141.688,652.362c0,100.366-92.306,181.925-206.133,181.925
		c-78.901,0-147.42-39.052-182.146-96.479V373.766c34.735-57.447,103.245-96.595,182.146-96.595
		c113.827,0,206.144,81.444,206.144,181.925c0,35.474-11.457,68.673-31.415,96.691c19.958,28.018,31.424,61.102,31.424,96.575"/>
</g>
</svg>
