<?xml version="1.0" encoding="utf-8"?>
<!-- Generator: Adobe Illustrator 16.0.3, SVG Export Plug-In . SVG Version: 6.00 Build 0)  -->
<!DOCTYPE svg PUBLIC "-//W3C//DTD SVG 1.0//EN" "http://www.w3.org/TR/2001/REC-SVG-20010904/DTD/svg10.dtd">
<svg version="1.0" id="MLB_-_Cincinnati_Reds" xmlns="http://www.w3.org/2000/svg" xmlns:xlink="http://www.w3.org/1999/xlink"
	 x="0px" y="0px" width="1800px" height="1800px" viewBox="0 0 1800 1800" enable-background="new 0 0 1800 1800"
	 xml:space="preserve">
<g>
	<path d="M1018.887,537.188c223.359,0,391.935,103.131,448.508,192.582h281.213c-5.153-10.25-17.753-44.317-17.753-44.317h-268.557
		c-56.604-89.452-232.905-192.558-456.271-192.558c-379.814,0-528.874,252.389-528.874,373.356
		c0,69.999,20.444,131.618,55.104,184.031c-22.678-42.702-28.035-106.925-28.035-148.493
		C504.221,780.885,647.618,537.188,1018.887,537.188"/>
	<path d="M996.043,1465.231c-388.309,0-540.963-166.615-720.75-357.53c-73.766-78.321-119.866-149.034-239.281-237.098l24.58,56.745
		c114.827,93.899,162.2,161.773,235.941,240.013c179.812,191.056,329.864,341.305,718.198,341.305
		c339.918,0,603.122-168.008,726.807-374.659l-18.548-43.499C1599.192,1297.229,1336.069,1465.231,996.043,1465.231"/>
	<path fill="#C6011F" d="M1006.027,492.889c223.36,0,399.667,103.131,456.271,192.582h268.557
		c-124.511-245.988-445.996-394.144-767.505-394.144c-315.732,0-557.049,182.135-695.463,346.147
		C133.576,796.417,71.938,847.391,48.319,863.413C39.653,869.28,36,870.609,36,870.609
		c119.439,88.063,165.54,158.771,239.28,237.099c179.813,190.915,332.467,357.53,720.75,357.53
		c340.032,0,603.147-168.002,726.953-374.749h-265.528c-124.313,94.382-276.459,170.439-469.862,170.439
		c-178.654,0-365.262-74.505-455.311-210.621c-34.685-52.444-55.129-114.064-55.129-184.031
		C477.153,745.278,626.213,492.889,1006.027,492.889 M1676.158,1334.606h-19.451v52.838h-13.083v-52.838h-19.426v-11.467h51.96
		V1334.606z M1764,1387.362h-13.058v-51.114h-0.337l-18.631,51.114h-12.688l-17.926-51.114h-0.311v51.196h-13.058v-64.305h22.71
		l14.896,42.054h0.337l15.462-42.054h22.596v64.223H1764z"/>
</g>
</svg>
