<?xml version="1.0" encoding="utf-8"?>
<!-- Generator: Adobe Illustrator 16.0.3, SVG Export Plug-In . SVG Version: 6.00 Build 0)  -->
<!DOCTYPE svg PUBLIC "-//W3C//DTD SVG 1.0//EN" "http://www.w3.org/TR/2001/REC-SVG-20010904/DTD/svg10.dtd">
<svg version="1.0" id="MLB_-_Detroit_Tigers" xmlns="http://www.w3.org/2000/svg" xmlns:xlink="http://www.w3.org/1999/xlink"
	 x="0px" y="0px" width="1800px" height="1800px" viewBox="0 0 1800 1800" enable-background="new 0 0 1800 1800"
	 xml:space="preserve">
<g>
	<path fill="#0C2C56" d="M1417.175,1192.865V504.484c4.291-58.778,18.946-77.668,61.686-117.558
		c-95.257-35.668-204.373-146.867-263.146-264.425c-293.79,151.13-621.222,151.13-868.756-67.144
		c-24.588-21.697-52.433-32.7-33.558,8.372c69.874,151.869,215.01,246.373,378.212,288.316
		c-93.92,81.44-149.287,129.42-161.598,232.486c-80.364,5.979-166.313,64.765-193.539,119.317
		c-30.997,62.135,14.936,63.366,46.116,41.972c39.889-27.283,96.438-37.78,144.785-35.69l-0.106,77.985
		c-80.3,5.994-159.376,64.759-186.594,119.317c-31.011,62.121,14.915,63.338,46.08,41.986
		c39.918-27.298,92.274-41.986,140.612-39.891v235.061c0,92.351-46.15,138.495-73.497,163.709
		c-27.198,25.186-12.206,51.47,27.353,35.654c82.966-33.207,169.168-111.901,188.804-231.754c31.743,4.081,69.818,4.433,96.607,0.17
		l-0.028,32.221c0,92.351-46.179,138.495-73.447,163.709c-0.422,0.394-0.704,0.803-1.112,1.196
		c-88.291,7.703-167.276,37.497-230.178,86.42c-143.167,111.748-165.187,321.649-143.167,368.054
		c1.351,3.012,80.652-259.416,316.127-287.317c136.427-16.09,303.92,24.722,446.594,148.556
		c88.124-146.952,237.206-230.86,411.391-260.514C1434.004,1297.823,1419.335,1268.437,1417.175,1192.865 M1228.337,420.498v206.244
		c-94.181,28.394-230.052,27.367-314.798-3.04v-26.875c0-73.025,6.12-165.553,66.188-223.896
		c57.357-6.12,113.098-18.151,164.645-36.337l83.958,83.902H1228.337z M913.539,695.082c84.753,30.378,220.623,31.413,314.798,3.025
		v200.405c-94.181-28.401-230.052-27.367-314.798,3.025V695.096V695.082z M907.932,377.422
		c-44.237,38.623-82.044,74.517-107.449,116.222c-33.642-11.158-64.512-17.756-94.518-19.417
		c19.397-38.976,47.157-75.383,80.595-103.544c40.34,5.234,81.011,7.457,121.378,6.754 M674.23,1052.689V596.843
		c0-20.05,3.166-41.311,8.914-62.81c33.177-3.771,66.412-0.366,94.778,9.764c-6.683,21.345-10.954,44.182-10.813,70.127
		l-0.4,436.133c-23.674,5.115-60.06,5.698-92.492,2.632 M1035.262,1381.724c-91.141-45.053-180.945-68.423-264.784-73.215
		c75.276-50.598,143.061-139.804,143.061-258.332v-77.232c84.753-30.428,220.623-31.448,314.798-3.047v298.553
		c-58.787,16.766-130.116,58.724-193.082,113.268 M1492.811,1503.048h-8.126v-30.111l-10.996,30.111h-4.784l-11.003-30.111v30.111
		h-8.118v-37.301h13.1l8.421,22.055l8.386-22.055h13.128v37.307L1492.811,1503.048z M1445.274,1472.951h-11.376v30.11h-8.948v-30.11
		h-11.327v-7.204h31.658v7.204H1445.274z"/>
</g>
</svg>
