<?xml version="1.0" encoding="utf-8"?>
<!-- Generator: Adobe Illustrator 16.0.3, SVG Export Plug-In . SVG Version: 6.00 Build 0)  -->
<!DOCTYPE svg PUBLIC "-//W3C//DTD SVG 1.0//EN" "http://www.w3.org/TR/2001/REC-SVG-20010904/DTD/svg10.dtd">
<svg version="1.0" id="MLB_-_New_York_Yankees" xmlns="http://www.w3.org/2000/svg" xmlns:xlink="http://www.w3.org/1999/xlink"
	 x="0px" y="0px" width="1800px" height="1800px" viewBox="0 0 1800 1800" enable-background="new 0 0 1800 1800"
	 xml:space="preserve">
<g>
	<g>
		<path fill="#132448" d="M1617,1507.904c-24.351,29.252-168.276,170.904-292.587,256.096
			c-20.674-297.11-163.56-488.31-397.616-651.332v0.106c-7.317,158.604-8.111,297.744-2.469,395.13
			c4.885,84.239,45.211,135.463,110.953,189.109c-85.341,19.449-335.398,15.781-420.644-10.933
			c9.786-7.265,115.229-65.734,124.372-256.113c6.418-136.83,7.256-237.9,2.424-404.917l-9.945-42.803
			c-113.95-83.932-213.354-170.288-341.333-308.483c117.116,309.832-31.703,695.079-48.692,836.554
			c-5.784,47.538-20.806,143.972-15.931,242.74c-36.499-21.979-184.173-118.314-254.792-210.975
			c206.091-352.44,354.814-698.667,31.651-1013.348c61.062-91.514,151.253-173.224,223.141-208.559
			c75.776,218.24,241.523,391.444,361.116,466.966C595.084,448.067,477.88,337.21,403.673,299.335
			C452.303,185.146,613.377,66.4,698.781,36c-39.074,126.735-42.388,209.723-3.738,345.071
			c39.03,136.626,100.065,302.488,168.277,426.904c36.658-63.425,165.958-331.723,199.998-448.778
			c34.278-117.063,34.278-221.906,19.556-297.656c74.409,37.761,234.161,187.85,270.775,261.052
			c-78.051,16.927-114.647,57.006-160.986,136.406c-47.635,81.815-168.321,390.405-235.36,523.249
			c70.777,61.097,193.889,137.869,291.379,255.029c-107.268-422.055,2.469-742.837,143.989-838.961
			c65.831,19.352,149.912,73,211.018,136.521c-229.383,96.335-214.589,389.038-215.867,410.805
			c-10.456,167.862,57.271,466.119,184.322,538.801c27.596,15.869,30.391,16.927,44.85,23.451
			c-24.343,29.262-168.269,170.914-292.579,256.105"/>
		<path fill="#132448" d="M1620.307,1347.834h-24.024v65.418h-16.311v-65.418h-23.962v-14.3h64.297V1347.834L1620.307,1347.834z
			 M1729.278,1413.252h-16.196v-63.319h-0.423l-23.1,63.319h-15.72l-22.305-63.319h-0.467v63.319h-16.135v-79.718h28.125
			l18.514,52.061h0.44l19.238-52.068h28.035v79.716L1729.278,1413.252z"/>
	</g>
</g>
</svg>
