<?xml version="1.0" encoding="utf-8"?>
<!-- Generator: Adobe Illustrator 16.0.3, SVG Export Plug-In . SVG Version: 6.00 Build 0)  -->
<!DOCTYPE svg PUBLIC "-//W3C//DTD SVG 1.0//EN" "http://www.w3.org/TR/2001/REC-SVG-20010904/DTD/svg10.dtd">
<svg version="1.0" id="MLB_-_Oakland_Athletics" xmlns="http://www.w3.org/2000/svg" xmlns:xlink="http://www.w3.org/1999/xlink"
	 x="0px" y="0px" width="1800px" height="1800px" viewBox="0 0 1800 1800" enable-background="new 0 0 1800 1800"
	 xml:space="preserve">
<g>
	<path fill="#003831" d="M1415.558,1211.615c-173.274,187.248-226.375,114.585-257.117,25.152L878.966,392.753
		c-25.153-78.253-72.664-145.328-156.506-170.48c-125.763-33.537-259.911,25.152-307.422,226.375
		c44.715-64.279,128.558-120.174,204.017-72.664c64.279,39.126,64.279,81.047,39.126,159.3l-19.563,58.69
		c-78.253-83.843-245.938-67.074-265.502,120.174c50.306-47.511,237.554-41.921,181.66,122.969L387.09,1328.994
		c-139.737,0-279.474,72.664-321.396,245.939c39.126-61.485,324.191-184.454,584.103,2.794l164.89-201.223
		c-11.178-11.179-100.611-30.742-167.685,36.333c-36.332-30.743-81.048-53.101-131.353-67.075l86.637-254.322h318.602l111.79,335.37
		c44.716,134.148,145.327,209.606,212.4,108.995c0,0,176.07-265.501,198.427-296.243
		C1463.069,1211.615,1421.148,1208.82,1415.558,1211.615L1415.558,1211.615z M764.381,621.922l111.79,338.166H649.796
		L764.381,621.922z"/>
	<path fill="#003831" d="M1119.314,702.97h30.743l67.074-89.433v-95.021H1116.52v103.405h33.537L1119.314,702.97z"/>
	<path fill="#003831" d="M1586.037,753.276c-81.048-16.768-148.121-33.537-128.558-92.227
		c16.769-50.305,136.942-44.715,178.863,16.77l64.279-64.28c-72.664-100.611-251.527-114.584-324.191-13.973
		c-100.61,139.736,13.975,215.195,142.532,248.732c53.101,13.974,120.175,44.716,86.638,95.022
		c-27.947,44.716-136.942,22.357-220.785-53.1l-55.896,75.458c50.307,58.69,245.938,178.864,366.112,30.742
		C1798.439,879.039,1667.085,770.044,1586.037,753.276z M1468.658,1499.474l-16.769,41.921l-13.974-41.921h-25.153v64.279h13.974
		v-53.101l19.563,53.101h11.18l19.563-53.101v53.101h13.974v-64.279H1468.658z M1348.484,1510.653h19.563v53.101h13.974v-53.101
		h19.563v-11.179h-53.101V1510.653z"/>
</g>
</svg>
