<?xml version="1.0" encoding="utf-8"?>
<!-- Generator: Adobe Illustrator 16.0.3, SVG Export Plug-In . SVG Version: 6.00 Build 0)  -->
<!DOCTYPE svg PUBLIC "-//W3C//DTD SVG 1.0//EN" "http://www.w3.org/TR/2001/REC-SVG-20010904/DTD/svg10.dtd">
<svg version="1.0" id="MLB_-_New_York_Mets" xmlns="http://www.w3.org/2000/svg" xmlns:xlink="http://www.w3.org/1999/xlink"
	 x="0px" y="0px" width="1800px" height="1800px" viewBox="0 0 1800 1800" enable-background="new 0 0 1800 1800"
	 xml:space="preserve">
<path fill="#FF5910" d="M1379.221,1181.797c0-19.998-6.247-39.57-17.525-56.156c-18.018,27.851-46.707,40.994-79.372,33.042
	c-28.92-6.84-51.839-27.618-52.113-46.852v-438.97l6.145,2.437c32.753,13.375,56.539,44.769,63.609,83.796
	c1.375,7.519,2.039,15.255,2.039,22.883c0,26.635-10.049,50.292-26.077,69.307c30.004-6.188,118.391-32.939,118.391-144.694
	c0-103.027-83.188-166.146-160.563-181.185l-3.529-0.65V217.883c0.275-19.231,23.209-40.011,52.114-46.872
	c32.666-8.068,61.354,5.307,79.371,33.056c11.279-16.585,17.525-36.15,17.525-56.155c0-26.968-10.063-54.492-29.57-76.154
	c-43.113-47.529-114.307-47.646-190.583-0.434l-2.415,1.648l-2.313-1.663c-76.363-47.212-147.608-47.089-190.656,0.435
	c-19.629,21.676-29.521,49.192-29.521,76.16c0,20.013,6.146,39.57,17.526,56.155c18.024-27.741,46.764-41.123,79.494-33.055
	c28.797,6.868,51.73,27.64,51.998,46.872v343.007l-2.422,1.323c-59.647,30.944-113.034,74.613-158.857,129.662l-3.377,4.086
	l-3.528-4.193c0,0-391.983-475.31-392.864-479.063c4.309-20.113,30.561-39.243,59.683-43.451
	c29.68-4.078,54.717,9.398,71.245,34.827c11.228-16.586,17.467-36.15,17.467-56.156c0-26.968-9.992-54.493-29.57-76.153
	c-43.113-47.537-114.4-47.646-190.678-0.448l-2.328,1.662l-2.314-1.662c-76.327-47.213-147.564-47.089-190.633,0.434
	c-19.608,21.675-29.614,49.193-29.614,76.161c0,20.013,6.188,39.57,17.525,56.155c18.133-27.741,46.814-41.124,79.53-33.056
	c28.797,6.869,51.796,27.641,52.013,46.872v307.854l-3.528,0.665c-77.34,17.135-155.554,79.479-155.554,180.194
	c0,111.747,88.763,138.598,118.615,144.687c-15.869-18.906-26.1-42.773-26.1-69.639c0-6.189,0.506-12.385,1.446-18.69
	c5.64-38.246,27.583-70.081,58.802-85.111l6.29-3.218v437.2c-0.216,19.231-23.208,40.011-52.005,46.865
	c-32.716,7.952-61.397-5.206-79.53-33.057c-11.33,16.586-17.525,36.149-17.525,56.033c0,26.981,10.006,54.622,29.621,76.175
	c43.063,47.646,114.307,47.754,190.626,0.665l2.314-1.547l2.328,1.547c76.327,47.089,147.565,46.974,190.685-0.665
	c19.572-21.545,29.571-49.193,29.571-76.169c0-19.896-6.248-39.476-17.475-56.046c-18.126,27.857-46.865,41.008-79.646,33.056
	c-28.805-6.848-51.623-27.634-52.021-46.865V706.914l7.071,4.758c108.667,74.064,192.564,225.504,202.629,321.014v500.967
	c0,53.387-36.107,94.172-70.811,103.028c-24.539,6.072-45.982-4.555-60.906-27.091c-11.047,16.354-17.236,35.044-17.236,54.06
	c0,23.758,8.604,47.529,25.695,66.32c42.296,46.756,115.016,45.209,194.329-3.977l2.437-1.547l2.437,1.547
	c79.313,49.193,151.997,50.754,194.329,3.977c17.077-18.783,25.694-42.557,25.694-66.314c0-19.015-6.239-37.703-17.294-54.058
	c-14.424,21.545-34.877,31.724-58.707,25.76c-35.313-8.951-73.002-51.854-73.002-101.705v-494.215
	c2.263-33.938,15.472-77.939,37.147-123.583l2.979-6.398l4.584,5.524c0,0,159.248,195.644,160.246,198.97
	c-1.996,19.666-26.303,39.678-55.498,45.549c-15.255,2.964-51.789,4.736-76.277-33.063c-10.938,16.47-17.062,35.586-17.062,55.491
	c0,26.858,9.883,54.391,29.513,75.943c43.047,47.646,114.292,47.754,190.627,0.665l2.313-1.547l2.429,1.547
	c76.276,47.089,147.471,46.974,190.568-0.665c19.521-21.561,29.585-49.2,29.585-76.06L1379.221,1181.797z M804.687,900.259
	l-3.926-10.288c-73.782-194.56-191.285-287.176-276.837-330.628l-2.495-1.106V421.827l318.518,391.318l1.548,2.313l-36.822,84.793
	L804.687,900.259z M1083.188,895.827l-87.165-105.775l2.443-2.77c24.438-28.522,50.632-52.62,77.65-71.851l7.086-5.082V895.82
	L1083.188,895.827z M1560.391,1077.786l-16.579,44.97h-0.434l-15.877-44.97h-24.365v68.757h13.982v-54.731h0.391l19.182,54.731
	h13.592l19.956-54.731h0.216v54.731h14.156v-68.757 M1435.094,1090.149h20.664v56.394h14.098v-56.394h20.679v-12.363h-55.455"/>
</svg>
