<?xml version="1.0" encoding="utf-8"?>
<!-- Generator: Adobe Illustrator 16.0.3, SVG Export Plug-In . SVG Version: 6.00 Build 0)  -->
<!DOCTYPE svg PUBLIC "-//W3C//DTD SVG 1.0//EN" "http://www.w3.org/TR/2001/REC-SVG-20010904/DTD/svg10.dtd">
<svg version="1.0" id="MLB_-_Colorado_Rockies" xmlns="http://www.w3.org/2000/svg" xmlns:xlink="http://www.w3.org/1999/xlink"
	 x="0px" y="0px" width="1800px" height="1800px" viewBox="0 0 1800 1800" enable-background="new 0 0 1800 1800"
	 xml:space="preserve">
<g>
	<g>
		<path d="M1680.537,1701.608l-15.104,40.761h-0.305l-14.488-40.761h-22.107V1764h12.779v-49.64h0.279l17.48,49.64h12.279
			l18.053-49.64h0.361V1764h12.707v-62.392 M1566.778,1712.717h18.801v51.28h12.711v-51.28h18.809v-11.108h-50.32"/>
		<path d="M1413.219,1642.885c-59.08-58.096-166.908-363.293-255.998-383.381c32.66-16.42,238.182-64.308,239.098-286.53
			c-0.92-240.238-223.418-318.078-445.932-318.078c-47.28,0-133.496,3.505-221.111,8.7
			c-111.239,6.952-168.258,12.168-252.998,19.108v81.711c119.495,0,144.546,27.808,144.546,158.18v155.45
			c-164.663-34.76-272.77-217.998-272.77-475.557c0-272.679,128.099-464.425,315.25-464.425c70.399,0,132.299,28.144,181.574,79.159
			c49.308,50.988,84.44,124.896,99.952,214.627h66.127L998.369,64.152h-52.16c-5.6,17.6-12.615,24.647-25.359,24.647
			C885.707,88.8,802.711,36,652.092,36c-163.258,0-302.609,59.832-399.684,165.387C153.856,308.706,97.528,454.729,97.528,630.639
			c0,121.399,35.168,258.599,115.467,367.678c80.175,109.079,209.71,188.239,398.237,188.239c3.256,0,6.353-0.248,9.588-0.312
			v343.005c0,126.88-27.8,152.946-144.547,152.946v81.732h526.964v-81.732c-108.479,0-148.811-15.623-148.811-144.25v-232.938
			h73.687c0,0,271.639,459.018,279.027,458.985c19.23-0.064,324.408-0.201,324.408-0.201v-81.287
			c0.014,0-61.307,10.071-118.33-39.628V1642.885z M155.76,622.133c0.279-364.078,285.978-476.037,285.978-476.037
			S290.179,292.974,289.651,601.112c-0.42,286.171,141.559,464.478,141.559,464.478s-275.786-70.468-275.446-443.457H155.76z
			 M797.851,1681.957H677.764V750.323l120.079-8.308v939.941H797.851z M1325.448,977.662
			c0.607,183.011-223.258,229.118-223.258,229.118s82.699-49.84,82.758-227.063c0.098-178.919-79.131-229.519-79.131-229.519
			s219.023,19.748,219.639,227.463H1325.448z M854.435,1219.844v-57.416c5.28-0.184,10.628-0.496,15.776-0.496
			c16.959,0,32.4,0,45.04,3.532c14.068,1.739,28.215,5.251,40.828,10.527l4.279-12.291c40.76-119.623,74.579-249.812,85.812-350.135
			h-66.144c-33.623,90.151-75.615,157.647-125.599,202.707V738.355h68.121c134.87,0,205.854,90.367,205.854,227.663
			c0,179.066-72.268,257.278-273.966,253.813V1219.844z M1213.672,1682.453c0,0-154.69-276.614-225.799-375.693
			c0,0,52.188-8.264,77.656-15.608c23.216-6.592,40.127-13.268,40.127-13.268c60.631,30.512,147.305,165.906,193.607,276.638
			c49.898,99.911,85.607,128.319,85.607,128.319l-171.199-0.385V1682.453z"/>
	</g>
	<g>
		<path fill="#C4CED4" d="M441.742,146.095c0,0-285.699,111.967-285.978,476.037c-0.34,372.989,275.45,443.457,275.45,443.457
			S289.235,887.278,289.655,601.112C290.175,292.974,441.742,146.095,441.742,146.095L441.742,146.095z"/>
		<path fill="#C4CED4" d="M677.76,1681.957h120.086V742.015l-120.091,8.308 M1184.948,979.718
			c-0.063,177.219-82.758,227.059-82.758,227.059s223.865-46.104,223.258-229.118c-0.607-207.707-219.639-227.455-219.639-227.455
			s79.232,50.6,79.139,229.519V979.718z M1299.264,1554.521c-46.303-110.735-132.977-246.135-193.607-276.638
			c0,0-16.92,6.672-40.127,13.268c-25.469,7.348-77.656,15.612-77.656,15.612c71.108,99.079,225.799,375.693,225.799,375.693
			l171.199,0.388c0,0-35.711-28.407-85.607-128.318V1554.521z"/>
	</g>
</g>
</svg>
