<?xml version="1.0" encoding="utf-8"?>
<!-- Generator: Adobe Illustrator 16.0.3, SVG Export Plug-In . SVG Version: 6.00 Build 0)  -->
<!DOCTYPE svg PUBLIC "-//W3C//DTD SVG 1.0//EN" "http://www.w3.org/TR/2001/REC-SVG-20010904/DTD/svg10.dtd">
<svg version="1.0" id="MLB_-_Kansas_City_Royals" xmlns="http://www.w3.org/2000/svg" xmlns:xlink="http://www.w3.org/1999/xlink"
	 x="0px" y="0px" width="1800px" height="1800px" viewBox="0 0 1800 1800" enable-background="new 0 0 1800 1800"
	 xml:space="preserve">
<g>
	<path fill="#004687" d="M187.824,300.177c0-114.117-69.372-150.794-131.537-149.941L36,149.383V90.25h405.207l0.071,60.235
		c-58.09,4.858-117.436,44-117.436,149.691v355.472l28.084-17.42c58.387-91.2,211.622-333.063,243.499-402.908
		c39.248-85.583-20.737-85.583-78.271-85.583V90.014h359.181v59.725h-25.277c-39.082,0-87.419,0-151.967,88.143
		c-82.525,112.991-246.426,386.791-246.426,386.791c251.011,20.857,345.434,402.552,409.899,454.338
		c-36.854-272.674,145.201-612.692,412.27-599.503c29.887,1.339,66.693-2.82,151.92,23.155
		c85.263,25.952,93.06-20.62,104.459-72.666h63.755V879.24h-55.151c-4.562-77.797-39.366-335.125-264.283-342.946
		c-228.639-7.667-271.667,285.639-274.771,485.8c-11.447,739.715,453.687,716.43,538.89,477.505
		c12.442-34.508,7.015-44.378-6.957-51.927c-101.366-54.394,16.152-199.914,81.257-72.666
		c29.863,58.397-23.581,335.006-302.37,335.006c-432.83,0-559.496-670.013-720.66-888.081
		c-125.553-169.813-227.962-93.38-266.487-51.82l-1.695,116.677l1.031,207.853c0,114.236,69.3,150.913,131.597,150.178l20.3,0.712
		v58.896H36v-58.896l20.299-0.712c62.167,0.712,131.538-35.977,131.538-150.201v-794.44 M1659.043,1636.978h-23.298v63.281h-15.666
		v-63.281h-23.156v-13.414h62.131v13.426L1659.043,1636.978z M1764,1700.26h-15.666v-61.089h-0.355l-22.207,61.076h-15.169
		l-21.567-61.076h-0.438v61.076h-15.523v-76.671h27.16l17.775,49.973h0.356l18.604-50.008h27.019v76.694L1764,1700.26z"/>
</g>
</svg>
