<?xml version="1.0" encoding="utf-8"?>
<!-- Generator: Adobe Illustrator 16.0.3, SVG Export Plug-In . SVG Version: 6.00 Build 0)  -->
<!DOCTYPE svg PUBLIC "-//W3C//DTD SVG 1.0//EN" "http://www.w3.org/TR/2001/REC-SVG-20010904/DTD/svg10.dtd">
<svg version="1.0" id="MLB_-_Minnesota_Twins" xmlns="http://www.w3.org/2000/svg" xmlns:xlink="http://www.w3.org/1999/xlink"
	 x="0px" y="0px" width="1800px" height="1800px" viewBox="0 0 1800 1800" enable-background="new 0 0 1800 1800"
	 xml:space="preserve">
<g>
	<path fill="#D31145" d="M1055.885,334.702l-0.854,240.436c247.392,14.201,446.321,133.72,483.816,289.771l243.248-4.686
		c-36.42-283.502-343.66-505.04-726.223-525.532L1055.885,334.702z"/>
	<g>
		<path fill="#002B5C" d="M864.189,1266.202c44.352,6.535,90.498,10.058,138.172,9.039c16.948-0.222,33.542-1.263,50.068-2.525
			l3.898-1075.632c155.885,4.575,319.724,22.541,466.493,65.132c11.22,63.205,102.35,185.593,198.874,198.875
			c0,0-37.219-229.89-26.851-349.077c-211.457-59.305-896.785-132.59-1472.041-7.666c0,0-2.06,294.014-41.394,352.854
			c0,0,188.971-49.226,231.395-217.062c0,0,201.678-35.734,461.463-43.056l-3.433,372.793l-0.133,14.533l-6.536,681.781
			L864.189,1266.202z M861.862,1506.505l-0.665,77.958l-108.022,179.535l432.952-8.363l-134.807-164.758l0.267-80.131
			c-17.347,1.152-34.693,2.294-52.327,2.638c-47.741,0.919-93.378-1.596-137.387-6.868L861.862,1506.505z M1241.578,1573.032
			l-9.328,25.41h-0.397l-15.729-44.64h-24.115v68.122h13.847v-54.056h0.299l19.108,54.056h13.347l2.991-8.252l16.837-45.813h0.221
			v54.055h13.957v-68.123h-23.925 M1159.055,1621.914v-55.761h20.492v-12.372h-54.941v12.36h20.604v55.751"/>
		<path fill="#D31145" d="M1052.451,1272.737c-16.538,1.241-33.143,2.271-50.067,2.515c-47.709,1.02-93.821-2.525-138.195-9.05
			c-237.29-34.56-414.974-168.069-418.009-331.343c-3.212-167.727,178.67-311.183,424.532-350.45l0.111-14.544l1.994-217.661
			c-200.746,27.604-389.02,129.045-513.746,258.867C254.96,737.037,87.4,902.36,17.915,928.911c0,0,261.082,213.973,312.146,298.245
			c111.234,140.255,293.05,251.666,531.801,279.359c44.031,5.262,89.667,7.787,137.398,6.867c17.634-0.332,34.97-1.484,52.327-2.637
			c359.156-24.037,650.014-222.445,718.713-477.989l-257.372,4.929c-70.117,124.893-246.903,218.658-460.467,235.052H1052.451z"/>
	</g>
</g>
</svg>
